<svg width="80" height="80" viewBox="0 0 80 80" fill="none" xmlns="http://www.w3.org/2000/svg">
<g clip-path="url(#clip0_20_595)">
<path fill-rule="evenodd" clip-rule="evenodd" d="M7.37476 45.0001C13.5098 54.2001 23.8948 64.355 39.9998 75.0001C56.1048 64.355 66.4898 54.2001 72.6248 45.0001H59.9998C59.5005 44.9999 59.0127 44.8503 58.5992 44.5705C58.1857 44.2907 57.8655 43.8935 57.6798 43.43L50.3948 25.2201L42.4048 53.1851C42.2619 53.6866 41.9658 54.1309 41.5579 54.4558C41.1499 54.7806 40.6506 54.9698 40.1299 54.9968C39.6091 55.0238 39.0929 54.8873 38.6535 54.6064C38.2142 54.3254 37.8737 53.9141 37.6798 53.43L29.4448 32.84L22.0798 43.8901C21.8511 44.2319 21.5417 44.512 21.1788 44.7056C20.816 44.8993 20.411 45.0004 19.9998 45.0001H7.37476ZM4.39476 40.0001C-12.1302 8.40005 22.0498 -9.99995 39.1198 5.71505C39.4198 5.99005 39.7148 6.27505 39.9998 6.57005C40.2819 6.27532 40.5754 5.99177 40.8798 5.72005C57.9498 -9.99995 92.1298 8.40005 75.5998 40.0001H61.6848L52.3148 16.5701C52.1208 16.086 51.7803 15.6747 51.341 15.3937C50.9016 15.1128 50.3855 14.9763 49.8647 15.0033C49.3439 15.0303 48.8446 15.2195 48.4367 15.5443C48.0287 15.8692 47.7326 16.3135 47.5898 16.8151L39.6048 44.7801L32.3198 26.5701C32.1501 26.1476 31.8683 25.7795 31.5048 25.5055C31.1413 25.2315 30.7099 25.0619 30.257 25.0151C29.8042 24.9682 29.3472 25.0459 28.9353 25.2398C28.5234 25.4336 28.1723 25.7363 27.9198 26.1151L18.6598 40.0001H4.39976H4.39476Z" fill="white"/>
</g>
<defs>
<clipPath id="clip0_20_595">
<rect width="80" height="80" fill="white"/>
</clipPath>
</defs>
</svg>
