<svg width="21" height="21" viewBox="0 0 21 21" fill="none" xmlns="http://www.w3.org/2000/svg">
<path d="M10.5 0.4375C4.94316 0.4375 0.4375 4.94316 0.4375 10.5C0.4375 16.0568 4.94316 20.5625 10.5 20.5625C16.0568 20.5625 20.5625 16.0568 20.5625 10.5C20.5625 4.94316 16.0568 0.4375 10.5 0.4375ZM14.4644 13.5929L13.822 14.4688C13.808 14.4879 13.7904 14.504 13.7702 14.5163C13.7499 14.5285 13.7275 14.5367 13.7041 14.5402C13.6808 14.5438 13.6569 14.5427 13.634 14.537C13.611 14.5313 13.5894 14.5211 13.5704 14.507L9.85537 11.7982C9.83223 11.7816 9.81341 11.7597 9.80052 11.7343C9.78762 11.7089 9.78101 11.6807 9.78125 11.6522V5.46875C9.78125 5.36992 9.86211 5.28906 9.96094 5.28906H11.0413C11.1401 5.28906 11.221 5.36992 11.221 5.46875V11.0278L14.4239 13.3436C14.5048 13.3997 14.5228 13.512 14.4644 13.5929Z" fill="#3B413C"/>
</svg>
