<svg width="639" height="472" viewBox="0 0 639 472" fill="none" xmlns="http://www.w3.org/2000/svg">
<g clip-path="url(#clip0_24_1536)">
<path opacity="0.1" d="M41.8226 184.999H97.3598V260.667H45.8834C45.752 261.45 45.6207 262.226 45.4729 263.009H97.3598V324.022C97.2722 324.022 97.1846 323.957 97.1025 323.924C95.6432 323.344 94.1838 322.73 92.7244 322.08C92.4124 321.938 92.1059 321.791 91.7885 321.654C90.3291 320.965 88.8697 320.235 87.4104 319.466C86.9014 319.198 86.3924 318.919 85.8944 318.634C77.7924 314.116 70.4288 308.386 64.0583 301.644C63.8667 301.464 63.6916 301.267 63.511 301.097C62.6244 300.134 61.7543 299.161 60.9115 298.165C60.594 297.799 60.2876 297.427 59.9756 297.071C58.9796 295.857 58.0164 294.599 57.086 293.335C56.9437 293.144 56.8124 292.958 56.6756 292.788C52.8644 287.517 49.7038 281.805 47.2625 275.776C47.1859 275.595 47.1147 275.399 47.0436 275.229C46.2884 273.314 45.6043 271.373 45.0132 269.392C44.7615 268.566 44.5152 267.751 44.3072 266.892C44.2306 266.646 44.1704 266.395 44.1047 266.149C41.0291 254.032 40.6733 241.44 40.6733 228.908C40.6733 227.449 40.6733 225.991 40.6733 224.532C40.7171 219.416 40.7773 214.305 40.8539 209.199C40.8831 207.886 40.9105 206.568 40.936 205.244C41.0127 201.893 41.1221 198.534 41.2644 195.168C41.2972 194.238 41.341 193.303 41.3903 192.379C41.4122 191.842 41.4395 191.306 41.4724 190.77C41.5709 188.834 41.6876 186.91 41.8226 184.999Z" fill="#9DB5B2"/>
<path opacity="0.1" d="M97.3597 100.749H66.8931C71.8478 93.0056 77.2589 85.5641 83.0978 78.4634C87.6292 72.9057 92.4014 67.4903 97.3597 62.2718V100.749Z" fill="#9DB5B2"/>
<path opacity="0.1" d="M97.3596 103.079V182.658H41.9976C41.9976 182.428 42.0304 182.193 42.0523 181.963C42.1015 181.334 42.1508 180.711 42.2055 180.082C42.2602 179.349 42.3314 178.616 42.4025 177.894C42.4737 177.172 42.5448 176.296 42.6324 175.503C42.72 174.71 42.7911 173.906 42.8787 173.113C42.9662 172.32 43.0538 171.526 43.1523 170.739C43.2508 169.951 43.3384 169.152 43.4478 168.365C43.5299 167.714 43.612 167.057 43.705 166.401C43.8309 165.477 43.9623 164.552 44.0991 163.633C44.0991 163.491 44.1429 163.354 44.1648 163.217C45.165 156.491 46.5241 149.822 48.2365 143.241C50.0346 136.337 52.33 129.573 55.1047 123.001C58.0531 116.115 61.5067 109.456 65.4372 103.079H97.3596Z" fill="#9DB5B2"/>
<path opacity="0.1" d="M110.625 184.999V260.668H229.252V184.999H110.625ZM110.625 263.009V327.994C111.304 328.13 111.972 328.267 112.645 328.382C113.548 328.557 114.456 328.716 115.381 328.853L115.929 328.929C116.29 328.989 116.656 329.038 117.023 329.082C117.937 329.214 118.851 329.312 119.759 329.4C120.186 329.443 120.63 329.476 121.062 329.514L122.118 329.591C122.693 329.635 123.262 329.668 123.831 329.689C124.181 329.689 124.532 329.717 124.887 329.728C125.243 329.739 125.435 329.728 125.719 329.728H126.754C127.224 329.728 127.695 329.728 128.16 329.728H128.762C129.233 329.728 129.703 329.728 130.169 329.684H130.196C130.524 329.684 130.847 329.684 131.176 329.646C131.269 329.651 131.362 329.651 131.455 329.646C131.728 329.646 132.002 329.646 132.265 329.613C132.327 329.608 132.389 329.608 132.451 329.613C133.058 329.575 133.671 329.525 134.29 329.471C134.908 329.416 135.494 329.35 136.112 329.285L137.354 329.132C142.431 328.421 147.451 327.354 152.377 325.937C163.448 322.852 174.268 318.536 185.334 315.38C199.628 311.304 215.433 309.297 229.247 314.258V263.009H110.625ZM229.252 100.749V0.0109393C216.266 -0.13187 203.315 1.3847 190.713 4.52379C160.673 12.0671 133.698 28.4282 110.625 49.3241V100.743H116.596V103.079H110.625V182.658H229.252V103.079H141.021V100.738L229.252 100.749ZM381.656 66.719C374.224 66.4565 366.836 64.1098 360.149 60.4722C347.375 53.5306 337.163 42.7982 325.758 33.7506C302.061 14.8951 272.673 3.51181 242.523 0.689234V100.749H411.855L412.276 100.306L381.656 66.719ZM397.084 63.984L413.442 81.9314V59.2633C407.936 59.958 403.142 61.5716 397.084 63.9621V63.984ZM413.442 344.131V263.009H378.559C378.471 262.664 378.373 262.314 378.263 261.964C378.367 262.314 378.46 262.664 378.553 263.009H242.523V321.67C243.815 322.628 245.09 323.64 246.354 324.657C247.719 325.773 249.074 326.902 250.421 328.043L251.778 329.164C252.429 329.711 253.091 330.258 253.748 330.778C255.065 331.839 256.391 332.89 257.727 333.929C258.394 334.454 259.066 334.97 259.741 335.477C270.43 343.642 281.705 351.012 293.474 357.527C296.112 358.998 298.777 360.415 301.459 361.799C303.243 362.718 305.04 363.619 306.85 364.501C309.564 365.825 312.301 367.101 315.059 368.33C340.488 379.74 367.379 387.567 394.961 391.589C401.083 392.49 407.232 393.201 413.409 393.723V344.12H413.956L413.442 344.131ZM242.523 103.079V182.658H413.442V103.079H242.523ZM242.523 184.988V260.668H413.442V184.999L242.523 184.988ZM426.708 59.1539V84.4805L447.581 61.5771C440.663 60.4357 433.706 59.6279 426.708 59.1539ZM426.708 184.999V260.668H592.942V184.999H426.708ZM592.356 350.131L592.942 263.009H426.708V394.603C437.415 395.048 448.139 394.919 458.833 394.215H459.019C464.127 393.887 469.211 393.42 474.271 392.815H474.386C501.391 389.673 527.796 382.623 552.772 371.886L592.356 350.131ZM625.012 197.427C624.38 195.969 623.733 194.51 623.069 193.051C621.832 190.316 620.53 187.658 619.183 185.005H606.213V260.668H639C638.973 239.236 633.544 217.355 625.012 197.427ZM606.213 263.009V337.949C615.445 329.104 623.255 318.979 628.87 307.404C635.629 293.461 638.721 278.374 638.978 263.003L606.213 263.009ZM606.213 162.949V182.642H617.968C614.405 175.872 610.481 169.299 606.213 162.949ZM493.475 74.0052C492.61 73.6715 491.74 73.3379 490.87 73.0206C481.695 69.6314 472.319 66.8143 462.795 64.5857L430.845 99.6273L430.221 100.3L430.632 100.743H544.344C528.506 89.85 511.43 80.8746 493.475 74.0052ZM547.682 103.079H429.039L426.708 105.207V182.658H447.148H592.942V145.133C579.759 129.198 564.542 115.06 547.682 103.079Z" fill="#9DB5B2"/>
<path opacity="0.1" d="M97.3596 143.224V182.658H41.9976C41.9976 182.428 42.0304 182.193 42.0523 181.963C42.1015 181.334 42.1508 180.711 42.2055 180.082C42.2602 179.349 42.3314 178.616 42.4025 177.894C42.4737 177.172 42.5448 176.296 42.6324 175.503C42.72 174.71 42.7911 173.906 42.8787 173.113C42.9662 172.32 43.0538 171.526 43.1523 170.739C43.2508 169.951 43.3384 169.152 43.4478 168.365C43.5299 167.714 43.612 167.057 43.705 166.401C43.8309 165.477 43.9623 164.552 44.0991 163.633C44.0991 163.491 44.1429 163.354 44.1648 163.217C45.165 156.491 46.5241 149.822 48.2365 143.241L97.3596 143.224Z" fill="#9DB5B2"/>
<path opacity="0.1" d="M41.8226 184.999H97.3598V260.667H45.8834C45.752 261.45 45.6207 262.226 45.4729 263.009H97.3598V324.022C97.2722 324.022 97.1846 323.957 97.1025 323.924C95.6432 323.344 94.1838 322.73 92.7244 322.08C92.4124 321.938 92.1059 321.791 91.7885 321.654C90.3291 320.965 88.8697 320.235 87.4104 319.466C86.9014 319.198 86.3924 318.919 85.8944 318.634C77.7924 314.116 70.4288 308.386 64.0583 301.644C63.8667 301.464 63.6916 301.267 63.511 301.097C62.6244 300.134 61.7543 299.161 60.9115 298.165C60.594 297.799 60.2876 297.427 59.9756 297.071C58.9796 295.857 58.0164 294.599 57.086 293.335C56.9437 293.144 56.8124 292.958 56.6756 292.788C52.8644 287.517 49.7038 281.805 47.2625 275.776C47.1859 275.595 47.1147 275.399 47.0436 275.229C46.2884 273.314 45.6043 271.373 45.0132 269.392C44.7615 268.566 44.5152 267.751 44.3072 266.892C44.2306 266.646 44.1704 266.395 44.1047 266.149C41.0291 254.032 40.6733 241.44 40.6733 228.908C40.6733 227.449 40.6733 225.991 40.6733 224.532C40.7171 219.416 40.7773 214.305 40.8539 209.199C40.8831 207.886 40.9105 206.568 40.936 205.244C41.0127 201.893 41.1221 198.534 41.2644 195.168C41.2972 194.238 41.341 193.303 41.3903 192.379C41.4122 191.842 41.4395 191.306 41.4724 190.77C41.5709 188.834 41.6876 186.91 41.8226 184.999Z" fill="#9DB5B2"/>
<path opacity="0.1" d="M152.382 114.479V182.658H110.62V114.479H116.574V91.3947H141.016V114.479H152.382Z" fill="#9DB5B2"/>
<path opacity="0.1" d="M152.377 184.994H110.62V260.662H152.377V184.994Z" fill="#9DB5B2"/>
<path opacity="0.1" d="M110.625 263.009H152.382V325.915C147.457 327.333 142.437 328.398 137.36 329.104C136.944 329.164 136.533 329.214 136.117 329.257C135.504 329.328 134.897 329.394 134.29 329.449L132.456 329.596H132.27L131.46 329.64H131.181C130.853 329.64 130.53 329.679 130.201 329.684H130.174C129.703 329.684 129.238 329.717 128.768 329.728H128.166C127.7 329.728 127.235 329.728 126.759 329.728H125.73H124.893C124.537 329.728 124.187 329.728 123.831 329.684C123.269 329.662 122.7 329.629 122.124 329.586L121.067 329.509C120.63 329.476 120.192 329.432 119.759 329.389C118.84 329.308 117.928 329.204 117.023 329.077L115.929 328.924L115.381 328.847C114.467 328.71 113.559 328.557 112.645 328.382C111.966 328.262 111.299 328.125 110.625 327.983V263.009Z" fill="#9DB5B2"/>
<path opacity="0.1" d="M413.437 106.427H379.002V182.653H413.437V106.427Z" fill="#9DB5B2"/>
<path opacity="0.1" d="M413.442 184.994V260.668H242.523V228.027H333.562V247.282H379.002V184.994H413.442Z" fill="#9DB5B2"/>
<path opacity="0.1" d="M413.984 344.147C413.803 344.147 413.623 344.147 413.436 344.114V393.755C407.267 393.249 401.119 392.539 394.993 391.628C367.402 387.607 340.501 379.783 315.059 368.38C307.714 365.068 300.52 361.46 293.474 357.554C281.709 351.036 270.436 343.667 259.746 335.504C257.054 333.447 254.401 331.345 251.789 329.197C249.977 327.698 248.182 326.167 246.354 324.684C245.096 323.661 243.82 322.649 242.523 321.687V263.009H378.553C378.455 262.659 378.367 262.314 378.269 261.964C378.373 262.314 378.471 262.659 378.559 263.009H413.442V344.109C413.622 344.114 413.803 344.131 413.984 344.147Z" fill="#9DB5B2"/>
<path opacity="0.1" d="M503.249 100.749H480.811V93.7797H490.864V73.0206C491.736 73.3415 492.605 73.6697 493.469 74.0052V93.7797H503.244L503.249 100.749Z" fill="#9DB5B2"/>
<path opacity="0.1" d="M557.314 182.658H447.148C447.159 182.661 447.17 182.661 447.181 182.658H447.132H426.708V106.432H432.498V162.774H458.953V129.407H480.817V103.079H503.255V129.423H525.107V162.791H557.32L557.314 182.658Z" fill="#9DB5B2"/>
<path opacity="0.1" d="M426.708 184.999V260.667H557.32V184.999H426.708ZM592.755 349.732L592.942 289.834H557.32V263.031H426.708V394.603C437.415 395.048 448.139 394.919 458.833 394.215H459.019C464.127 393.887 469.211 393.42 474.271 392.815H474.386C501.391 389.673 527.796 382.623 552.772 371.886" fill="#9DB5B2"/>
<path opacity="0.1" d="M608.512 263.009H638.978C638.715 278.374 635.629 293.466 628.87 307.404C623.255 318.984 615.445 329.11 606.213 337.955V289.818H608.512V263.009Z" fill="#9DB5B2"/>
<path opacity="0.1" d="M639 260.668H608.511V197.427H625.012C633.544 217.355 638.973 239.236 639 260.668Z" fill="#9DB5B2"/>
<path opacity="0.1" d="M413.442 127.618H394.993V151.517H413.442V127.618Z" fill="#9DB5B2"/>
<path opacity="0.1" d="M413.442 177.155H394.993V182.658H413.442V177.155Z" fill="#9DB5B2"/>
<path opacity="0.1" d="M413.442 184.994H394.993V201.049H413.442V184.994Z" fill="#9DB5B2"/>
<path opacity="0.1" d="M413.442 226.693H394.993V250.592H413.442V226.693Z" fill="#9DB5B2"/>
<path opacity="0.1" d="M413.442 276.23H394.993V300.129H413.442V276.23Z" fill="#9DB5B2"/>
<path opacity="0.1" d="M413.442 344.109C413.623 344.109 413.803 344.109 413.989 344.147C413.809 344.147 413.628 344.147 413.442 344.114V349.666H394.993V325.767H413.442V344.109Z" fill="#9DB5B2"/>
<path opacity="0.1" d="M413.442 375.299V393.755C407.269 393.249 401.119 392.539 394.993 391.628V375.299H413.442Z" fill="#9DB5B2"/>
<path opacity="0.1" d="M321.588 258.912H242.523V260.668H321.588V258.912Z" fill="#9DB5B2"/>
<path opacity="0.1" d="M321.588 263.003H242.523V269.731H321.588V263.003Z" fill="#9DB5B2"/>
<path opacity="0.1" d="M321.588 291.787H242.523V302.607H321.588V291.787Z" fill="#9DB5B2"/>
<path opacity="0.1" d="M321.588 324.662V335.482H259.746C257.054 333.433 254.401 331.329 251.789 329.17C249.972 327.676 248.177 326.145 246.354 324.662H321.588Z" fill="#9DB5B2"/>
<path opacity="0.1" d="M321.588 357.532V368.38H315.059C307.714 365.068 300.52 361.46 293.474 357.554L321.588 357.532Z" fill="#9DB5B2"/>
<path opacity="0.1" d="M474.397 192.329H458.833V207.886H474.397V192.329Z" fill="#9DB5B2"/>
<path opacity="0.1" d="M137.398 119.845H121.834V135.402H137.398V119.845Z" fill="#9DB5B2"/>
<path opacity="0.1" d="M137.398 155.98H121.834V171.537H137.398V155.98Z" fill="#9DB5B2"/>
<path opacity="0.1" d="M137.398 192.116H121.834V207.673H137.398V192.116Z" fill="#9DB5B2"/>
<path opacity="0.1" d="M137.398 228.246H121.834V243.803H137.398V228.246Z" fill="#9DB5B2"/>
<path opacity="0.1" d="M137.398 264.382H121.834V279.939H137.398V264.382Z" fill="#9DB5B2"/>
<path opacity="0.1" d="M137.398 300.517H121.834V316.074H137.398V300.517Z" fill="#9DB5B2"/>
<path opacity="0.1" d="M533.814 192.329H518.25V207.886H533.814V192.329Z" fill="#9DB5B2"/>
<path opacity="0.1" d="M474.397 230.702H458.833V246.259H474.397V230.702Z" fill="#9DB5B2"/>
<path opacity="0.1" d="M533.814 230.702H518.25V246.259H533.814V230.702Z" fill="#9DB5B2"/>
<path opacity="0.1" d="M474.397 269.07H458.833V284.627H474.397V269.07Z" fill="#9DB5B2"/>
<path opacity="0.1" d="M533.814 269.07H518.25V284.627H533.814V269.07Z" fill="#9DB5B2"/>
<path opacity="0.1" d="M474.397 307.442H458.833V322.999H474.397V307.442Z" fill="#9DB5B2"/>
<path opacity="0.1" d="M533.814 307.442H518.25V322.999H533.814V307.442Z" fill="#9DB5B2"/>
<path opacity="0.1" d="M474.397 345.815H458.833V361.372H474.397V345.815Z" fill="#9DB5B2"/>
<path opacity="0.1" d="M533.814 345.815H518.25V361.372H533.814V345.815Z" fill="#9DB5B2"/>
<path opacity="0.1" d="M458.833 394.215V384.183H474.392V392.787L458.833 394.215Z" fill="#9DB5B2"/>
<path opacity="0.1" d="M44.0991 163.201V172.101H97.3596V163.201H44.0991ZM49.4022 171.543H45.024V163.764H49.4022V171.543ZM54.7052 171.543H50.3271V163.764H54.7052V171.543ZM59.9974 171.543H55.6192V163.764H59.9974V171.543ZM65.3004 171.543H60.9223V163.764H65.3004V171.543ZM70.598 171.543H66.2198V163.764H70.598V171.543ZM75.9011 171.543H71.5229V163.764H75.9011V171.543ZM81.2041 171.543H76.826V163.764H81.2041V171.543ZM86.5017 171.543H82.1236V163.764H86.5017V171.543ZM91.7993 171.543H87.4212V163.764H91.7993V171.543ZM97.1024 171.543H92.7242V163.764H97.1024V171.543Z" fill="#9DB5B2"/>
<path opacity="0.1" d="M44.0991 189.107V198.007H97.3596V189.107H44.0991ZM49.4022 197.449H45.024V189.671H49.4022V197.449ZM54.7052 197.449H50.3271V189.671H54.7052V197.449ZM59.9974 197.449H55.6192V189.671H59.9974V197.449ZM65.3004 197.449H60.9223V189.671H65.3004V197.449ZM70.598 197.449H66.2198V189.671H70.598V197.449ZM75.9011 197.449H71.5229V189.671H75.9011V197.449ZM81.2041 197.449H76.826V189.671H81.2041V197.449ZM86.5017 197.449H82.1236V189.671H86.5017V197.449ZM91.7993 197.449H87.4212V189.671H91.7993V197.449ZM97.1024 197.449H92.7242V189.671H97.1024V197.449Z" fill="#9DB5B2"/>
<path opacity="0.1" d="M44.0991 215.019V223.914H97.3596V215.019H44.0991ZM49.4022 223.35H45.024V215.572H49.4022V223.35ZM54.7052 223.35H50.3271V215.572H54.7052V223.35ZM59.9974 223.35H55.6192V215.572H59.9974V223.35ZM65.3004 223.35H60.9223V215.572H65.3004V223.35ZM70.598 223.35H66.2198V215.572H70.598V223.35ZM75.9011 223.35H71.5229V215.572H75.9011V223.35ZM81.2041 223.35H76.826V215.572H81.2041V223.35ZM86.5017 223.35H82.1236V215.572H86.5017V223.35ZM91.7993 223.35H87.4212V215.572H91.7993V223.35ZM97.1024 223.35H92.7242V215.572H97.1024V223.35Z" fill="#9DB5B2"/>
<path opacity="0.1" d="M44.0991 240.926V249.82H97.3596V240.926H44.0991ZM49.4022 249.262H45.024V241.473H49.4022V249.262ZM54.7052 249.262H50.3271V241.473H54.7052V249.262ZM59.9974 249.262H55.6192V241.473H59.9974V249.262ZM65.3004 249.262H60.9223V241.473H65.3004V249.262ZM70.598 249.262H66.2198V241.473H70.598V249.262ZM75.9011 249.262H71.5229V241.473H75.9011V249.262ZM81.2041 249.262H76.826V241.473H81.2041V249.262ZM86.5017 249.262H82.1236V241.473H86.5017V249.262ZM91.7993 249.262H87.4212V241.473H91.7993V249.262ZM97.1024 249.262H92.7242V241.473H97.1024V249.262Z" fill="#9DB5B2"/>
<path opacity="0.1" d="M44.3564 266.821C44.5644 267.664 44.8107 268.495 45.0624 269.321V267.385H49.4406V275.158H47.0928C47.1585 275.344 47.2296 275.535 47.3062 275.705H97.3816V266.821H44.3564ZM54.7546 275.158H50.3764V267.385H54.7546V275.158ZM60.0467 275.158H55.6686V267.385H60.0467V275.158ZM65.3498 275.158H60.9716V267.385H65.3498V275.158ZM70.6474 275.158H66.2692V267.385H70.6474V275.158ZM75.9505 275.158H71.5723V267.385H75.9505V275.158ZM81.2535 275.158H76.8753V267.385H81.2535V275.158ZM86.5511 275.158H82.1729V267.385H86.5511V275.158ZM91.8487 275.158H87.4705V267.385H91.8487V275.158ZM97.1518 275.158H92.7736V267.385H97.1518V275.158Z" fill="#9DB5B2"/>
<path opacity="0.1" d="M56.6919 292.728C56.8342 292.903 56.9655 293.1 57.1023 293.275H59.9974V297.011L60.9332 298.105V293.253H65.3114V301.097H63.5109C63.686 301.278 63.8557 301.469 64.0582 301.644H97.3487V292.728H56.6919ZM70.6254 301.097H66.2473V293.286H70.6254V301.097ZM75.9285 301.097H71.5503V293.286H75.9285V301.097ZM81.2316 301.097H76.8534V293.286H81.2316V301.097ZM86.5291 301.097H82.151V293.286H86.5291V301.097ZM91.8267 301.097H87.4486V293.286H91.8267V301.097ZM97.1298 301.097H92.7516V293.286H97.1298V301.097Z" fill="#9DB5B2"/>
<path opacity="0.1" d="M85.9106 318.634C86.4141 318.919 86.9231 319.181 87.4321 319.46V319.187H91.8102V321.654C92.1277 321.791 92.4287 321.938 92.7406 322.08V319.187H97.1188V323.924C97.202 323.961 97.288 323.993 97.376 324.017V318.634H85.9106Z" fill="#9DB5B2"/>
<path opacity="0.1" d="M413.436 344.109H413.984H413.436ZM378.263 261.964C378.367 262.314 378.46 262.664 378.553 263.009C378.471 262.664 378.373 262.314 378.263 261.964ZM116.596 100.749V103.079H141.043V100.738L116.596 100.749ZM413.442 344.109H413.989H413.442ZM378.263 261.964C378.367 262.314 378.46 262.664 378.553 263.009C378.471 262.664 378.373 262.314 378.263 261.964ZM413.436 344.109H413.984H413.436ZM378.263 261.964C378.367 262.314 378.46 262.664 378.553 263.009C378.471 262.664 378.373 262.314 378.263 261.964Z" fill="#9DB5B2"/>
<path opacity="0.1" d="M481.287 472C510.738 472 534.613 468.167 534.613 463.439C534.613 458.711 510.738 454.879 481.287 454.879C451.836 454.879 427.961 458.711 427.961 463.439C427.961 468.167 451.836 472 481.287 472Z" fill="#9DB5B2"/>
<path opacity="0.1" d="M240.783 463.439C270.234 463.439 294.109 459.607 294.109 454.879C294.109 450.151 270.234 446.318 240.783 446.318C211.332 446.318 187.457 450.151 187.457 454.879C187.457 459.607 211.332 463.439 240.783 463.439Z" fill="#9DB5B2"/>
<path d="M302.176 228.514C302.163 228.46 302.135 228.41 302.094 228.372C301.279 227.568 290.88 212.87 290.88 212.87C290.88 212.87 290.333 211.229 289.447 209.095C289.731 208.727 289.944 208.31 290.076 207.864C290.124 207.676 290.159 207.484 290.18 207.29C290.18 207.23 290.224 207.181 290.24 207.121C290.43 206.379 290.411 205.599 290.185 204.867C290.125 205.055 290.05 205.237 289.961 205.414C289.755 204.777 289.48 204.164 289.14 203.587C287.761 201.213 285.791 199.211 284.341 196.897C282.144 193.302 281.272 189.054 281.872 184.884C281.872 185.098 281.872 185.317 281.872 185.53C281.927 184.703 282.037 183.881 282.201 183.068C282.429 182.144 282.735 181.24 283.115 180.366C284.417 177.385 286.524 174.787 287.805 171.794C288.234 170.785 288.561 169.735 288.779 168.66C289.23 166.865 289.395 165.009 289.266 163.163C289.266 163.6 289.195 164.038 289.129 164.47C288.991 160.03 287.197 155.802 284.1 152.616C279.629 148.125 273.209 146.38 267.069 145.461C264.488 145.16 262.024 144.22 259.899 142.726C257.541 141.2 254.492 140.834 251.734 141.167C248.564 141.51 245.618 142.966 243.421 145.275C240.504 148.481 239.24 153.021 235.836 155.723C233.773 157.364 231.157 158.13 228.754 159.246C226.352 160.362 224.08 161.981 223.309 164.377C223.309 164.377 223.309 164.344 223.309 164.328V164.465L223.276 164.552C222.477 167.386 224.02 170.268 224.825 173.096C225.662 176.023 225.717 179.114 225.761 182.138C225.821 185.836 225.875 189.54 225.815 193.243C225.788 194.698 225.739 196.169 225.629 197.619C224.334 198.01 223.076 198.516 221.869 199.129C220.644 199.927 216.057 204.878 216.057 204.878L207.088 239.132L207.208 239.268L207.088 239.733L207.542 239.629C208.812 240.997 212.604 244.892 216.698 247.32L217.081 254.038C217.081 254.038 217.541 260.777 223.741 263.561C223.883 265.897 224.327 275.382 222.274 279.14C220.853 281.885 220.185 284.958 220.337 288.045C220.337 288.045 221.054 293.745 220.239 296.743C219.762 298.746 219.727 300.829 220.135 302.848C220.135 302.848 220.135 303.509 220.135 304.647C220.135 310.714 220.206 330.154 220.135 332.353C220.031 334.952 220.135 373.379 220.135 373.379C220.135 373.379 219.626 392.585 217.995 397.787C216.364 402.989 216.774 420.214 216.774 420.214C216.774 420.214 215.751 440.733 219.368 444.781C219.368 444.961 219.336 445.147 219.33 445.328C219.33 445.41 219.33 445.503 219.33 445.585C219.286 447.144 219.587 448.801 220.928 449.31C223.665 450.36 227.282 453.511 227.966 454.414C228.65 455.316 232.629 457.564 237.817 456.963C241.067 456.598 244.338 456.448 247.608 456.514C247.608 456.514 249.654 456.142 248.992 453.599C248.565 452.012 246.967 449.573 245.829 447.97C246.037 448.025 246.239 448.068 246.431 448.107L246.628 448.145H246.781C246.865 448.15 246.949 448.15 247.033 448.145H247.142C247.244 448.153 247.347 448.153 247.449 448.145C248.823 448.014 253.945 450.399 254.859 451.974C255.773 453.549 258.996 454.747 261.426 455.048C262.871 455.223 266.516 454.928 269.575 454.534C271.116 454.375 272.642 454.097 274.139 453.702C274.862 453.429 275.015 452.554 274.807 451.569C274.561 450.319 273.893 449.191 272.913 448.375C272.027 447.746 270.856 446.088 269.991 444.732L269.761 444.365C271.288 442.91 274.046 438.151 274.884 437.166C275.902 435.968 273.242 392.158 273.242 392.158V370.196L277.319 349.409L280.17 338.409L282.617 321.802C282.617 321.802 286.896 302.404 285.577 300.501C285.577 300.463 284.483 280.491 283.334 275.694C282.836 273.555 282.961 268.741 283.257 264.059C283.566 263.752 283.781 263.364 283.878 262.94C283.975 262.516 283.949 262.073 283.804 261.663C283.723 261.383 283.616 261.11 283.487 260.848C283.487 260.766 283.487 260.678 283.487 260.596C285.851 259.509 288.321 258.67 290.859 258.091C294.936 257.292 293.918 255.192 293.918 255.192C293.918 255.192 294.837 253.392 295.445 252.293C296.052 251.193 295.549 241.489 295.445 240.691C295.406 240.368 295.155 238.585 294.865 236.561C296.173 235.631 297.875 234.477 299.73 233.383C303.26 231.293 302.466 229.089 302.176 228.514ZM248.981 367.198C248.981 367.198 245.922 374.998 247.148 376.995C248.374 378.992 246.945 386.404 246.945 386.404L245.922 397.404C245.922 397.404 243.071 417.808 244.089 422.605C244.888 426.368 245.183 437.609 245.276 442.297C245.206 442.325 245.138 442.357 245.074 442.396L244.937 442.467C245.408 440.623 245.211 436.893 242.874 429.388L242.677 398.389C242.677 398.389 242.316 362.581 245.145 358.577C247.974 354.573 248.976 347.774 248.976 347.774C248.976 347.774 248.363 357.582 247.963 360.18C247.564 362.778 248.981 367.198 248.981 367.198ZM243.284 444.25C243.257 444.316 243.224 444.381 243.202 444.442L243.049 444.245C243.127 444.252 243.206 444.254 243.284 444.25Z" fill="url(#paint0_linear_24_1536)"/>
<path d="M274.484 456.536C272.903 457.143 264.327 458.177 261.93 457.887C259.533 457.597 256.359 456.383 255.456 454.796C254.553 453.21 249.49 450.814 248.133 450.967C247.577 450.984 247.022 450.906 246.491 450.738C245.555 450.454 244.64 450.103 243.755 449.687C243.631 448.998 243.652 448.29 243.815 447.609C243.847 447.471 243.887 447.336 243.935 447.204C244.255 446.307 244.916 445.571 245.774 445.158L245.971 445.065C246.351 444.901 246.747 444.78 247.153 444.704C251.455 443.878 269.203 445.536 269.203 445.536C269.203 445.536 269.701 446.427 270.385 447.532C271.239 448.9 272.399 450.568 273.275 451.197C274.245 452.026 274.903 453.161 275.141 454.414C275.349 455.382 275.196 456.268 274.484 456.536Z" fill="white"/>
<path opacity="0.1" d="M274.484 456.536C272.903 457.143 264.332 458.177 261.935 457.887C259.538 457.597 256.364 456.377 255.456 454.796C254.547 453.216 249.496 450.814 248.138 450.967C246.781 451.121 243.76 449.687 243.76 449.687C243.76 449.687 243.29 447.499 244.658 446.006L247.394 447.948C247.394 447.948 254.717 450.218 256.074 452.324C257.431 454.43 259.905 455.606 263.479 455.819C266.149 455.994 272.284 454.955 275.157 454.435C275.349 455.382 275.201 456.268 274.484 456.536Z" fill="black"/>
<path d="M248.286 459.326C245.058 459.263 241.829 459.415 238.621 459.78C233.483 460.381 229.559 458.139 228.875 457.214C228.19 456.29 224.65 453.166 221.93 452.072C220.6 451.558 220.288 449.884 220.348 448.32C220.348 448.238 220.348 448.145 220.348 448.063C220.398 447.072 220.545 446.088 220.786 445.125L242.08 444.671L243.925 447.171L244.209 447.554L245.331 449.08C245.331 449.08 245.84 449.748 246.508 450.721C247.635 452.362 249.211 454.786 249.633 456.388C250.306 458.954 248.286 459.326 248.286 459.326Z" fill="white"/>
<path opacity="0.1" d="M248.286 459.326C245.058 459.263 241.829 459.415 238.621 459.78C233.488 460.381 229.559 458.139 228.88 457.214C228.201 456.29 224.65 453.139 221.93 452.083C220.6 451.569 220.288 449.895 220.348 448.331C221.869 448.686 225.066 449.594 226.319 451.175C227.961 453.287 230.899 456.837 235.075 457.061C238.446 457.242 246.655 456.64 249.665 456.399C250.311 458.954 248.286 459.326 248.286 459.326Z" fill="black"/>
<path opacity="0.1" d="M245.752 445.136C245.506 446.963 244.745 447.456 244.198 447.565C244.064 447.591 243.927 447.591 243.793 447.565C243.721 447.56 243.65 447.549 243.58 447.532C243.58 447.532 224.458 451.755 220.594 448.336C220.496 448.248 220.405 448.153 220.321 448.052C220.371 447.061 220.518 446.077 220.758 445.114L242.053 444.66L243.897 447.16C244.216 446.263 244.877 445.528 245.736 445.114L245.752 445.136Z" fill="black"/>
<path opacity="0.1" d="M270.38 447.51C269.953 447.981 269.597 448.249 269.373 448.156C268.366 447.751 260.113 446.345 257.491 447.554C254.87 448.763 245.999 447.751 245.999 447.751C245.999 447.751 245.999 446.701 245.949 445.016C246.329 444.852 246.725 444.731 247.132 444.655C251.433 443.829 269.181 445.486 269.181 445.486C269.181 445.486 269.701 446.405 270.38 447.51Z" fill="black"/>
<path d="M282.868 323.776L280.449 340.482L277.636 351.553L273.609 372.482V394.636C273.609 394.636 276.225 438.714 275.218 439.918C274.211 441.121 270.385 447.975 269.378 447.576C268.371 447.177 260.118 445.765 257.497 446.969C254.875 448.172 246.004 447.171 246.004 447.171C246.004 447.171 245.802 430.066 244.795 425.236C243.788 420.406 246.606 399.876 246.606 399.876L247.613 388.81C247.613 388.81 249.025 381.36 247.816 379.347C246.606 377.334 249.627 369.501 249.627 369.501C249.627 369.501 248.221 365.065 248.626 362.45C249.031 359.835 249.627 349.973 249.627 349.973C249.627 349.973 248.626 356.821 245.829 360.842C243.032 364.862 243.388 400.894 243.388 400.894L243.585 432.074C248.626 448.582 243.585 446.969 243.585 446.969C243.585 446.969 224.464 451.197 220.6 447.773C216.736 444.349 217.842 422.796 217.842 422.796C217.842 422.796 217.442 405.489 219.051 400.259C220.66 395.03 221.169 375.704 221.169 375.704C221.169 375.704 221.065 337.058 221.169 334.448C221.246 332.26 221.169 312.672 221.169 306.551C221.169 305.413 221.169 304.74 221.169 304.74L223.478 299.008L250.842 295.583H263.933C263.933 295.583 283.635 300.211 285.67 302.208C285.714 302.241 285.751 302.282 285.78 302.328C287.099 304.259 282.868 323.776 282.868 323.776Z" fill="#9DB5B2"/>
<path opacity="0.1" d="M249.643 411.528C249.643 411.528 255.663 426.018 258.504 427.025C261.344 428.031 249.643 411.528 249.643 411.528Z" fill="black"/>
<path opacity="0.1" d="M251.871 432.861C251.871 432.861 272.197 433.868 271.994 436.083C271.792 438.299 251.871 432.861 251.871 432.861Z" fill="black"/>
<path opacity="0.1" d="M224.677 427.068C225.481 427.829 240.181 429.257 238.972 430.646C237.762 432.035 225.886 434.738 225.886 434.738L224.677 427.068Z" fill="black"/>
<path opacity="0.1" d="M222.263 402.07C222.263 402.672 225.284 421.39 226.094 422.195C226.904 422.999 233.543 423.803 233.543 423.803L222.263 402.07Z" fill="black"/>
<path d="M244.182 146.211C241.298 149.433 240.05 154 236.69 156.724C234.648 158.365 232.065 159.148 229.69 160.264C227.315 161.379 224.962 163.081 224.256 165.608C223.468 168.452 224.989 171.357 225.788 174.201C226.614 177.144 226.664 180.218 226.713 183.298C226.768 187.023 226.828 190.748 226.762 194.474C226.664 200.277 226.182 206.349 223.101 211.267C234.227 214.806 246.059 215.287 257.727 215.741C259.969 215.901 262.221 215.845 264.453 215.572C266.386 215.187 268.299 214.703 270.183 214.122C273.907 213.137 277.746 212.646 281.599 212.662C283.279 212.662 284.992 212.766 286.612 212.328C288.232 211.89 289.791 210.769 290.229 209.15C290.618 207.695 290.049 206.147 289.304 204.839C287.947 202.455 286.021 200.463 284.565 198.111C283.079 195.627 282.197 192.828 281.991 189.941C281.785 187.053 282.26 184.158 283.377 181.488C284.669 178.484 286.749 175.87 288.018 172.861C289.319 169.631 289.665 166.096 289.015 162.675C288.365 159.254 286.746 156.091 284.352 153.563C279.935 149.044 273.598 147.294 267.534 146.364C264.981 146.062 262.545 145.122 260.452 143.629C258.126 142.097 255.111 141.725 252.385 142.064C249.241 142.417 246.329 143.888 244.182 146.211Z" fill="#3F3D56"/>
<g opacity="0.1">
<path opacity="0.1" d="M283.547 178.331C282.431 180.967 281.953 183.829 282.152 186.684C282.274 184.642 282.746 182.637 283.547 180.755C284.833 177.751 286.913 175.137 288.183 172.128C289.22 169.616 289.657 166.896 289.458 164.186C289.345 166.085 288.914 167.953 288.183 169.71C286.913 172.719 284.833 175.328 283.547 178.331Z" fill="black"/>
<path opacity="0.1" d="M226.877 182.554C226.91 184.699 226.943 186.848 226.948 188.993C226.948 186.039 226.921 183.09 226.877 180.142C226.833 177.084 226.779 173.988 225.952 171.04C225.405 169.169 224.595 167.271 224.31 165.384C223.823 168.064 225.208 170.783 225.952 173.457C226.779 176.378 226.833 179.496 226.877 182.554Z" fill="black"/>
<path opacity="0.1" d="M286.798 209.199C285.156 209.642 283.47 209.544 281.79 209.533C277.94 209.508 274.104 209.99 270.38 210.966C268.495 211.544 266.583 212.026 264.65 212.41C262.417 212.687 260.163 212.746 257.918 212.585C246.645 212.142 235.212 211.666 224.414 208.444C224.094 209.16 223.728 209.854 223.32 210.523C234.446 214.057 246.278 214.543 257.94 214.997C260.184 215.158 262.439 215.1 264.672 214.822C266.598 214.442 268.503 213.962 270.38 213.384C274.096 212.404 277.925 211.917 281.768 211.934C283.449 211.934 285.156 212.038 286.776 211.595C288.396 211.152 289.956 210.042 290.393 208.422C290.578 207.672 290.559 206.887 290.339 206.147C289.852 207.678 288.347 208.745 286.798 209.199Z" fill="black"/>
</g>
<path d="M270.588 202.717C270.183 203.625 268.475 211.469 268.07 212.273C267.665 213.077 265.454 225.949 265.252 226.671C265.049 227.393 250.678 223.651 250.678 223.651L242.025 216.403L233.132 207.558C233.132 207.558 232.87 199.577 239.42 197.017C239.866 196.842 240.323 196.7 240.789 196.591C248.735 194.681 247.936 170.531 247.936 170.531L264.245 177.571C264.245 177.571 261.224 191.662 261.328 194.381C261.355 195.294 262.072 195.863 263.008 196.208C264.455 196.619 265.961 196.782 267.463 196.689C267.463 196.689 270.993 201.815 270.588 202.717Z" fill="#FBBEBE"/>
<path d="M299.784 229.182L302.099 229.789C302.099 229.789 303.812 232.392 299.784 234.816C297.227 236.369 294.772 238.084 292.435 239.952L280.531 243.573L278.238 236.38L289.315 227.978L299.784 229.182Z" fill="#9DB5B2"/>
<path opacity="0.1" d="M299.784 229.182L302.099 229.789C302.099 229.789 303.812 232.392 299.784 234.816C297.227 236.369 294.772 238.084 292.435 239.952L280.531 243.573L278.238 236.38L289.315 227.978L299.784 229.182Z" fill="black"/>
<path d="M212.916 236.129L208.286 240.658C208.286 240.658 216.637 250.318 223.062 250.92C229.487 251.521 233.63 243.573 233.63 243.573L228.07 234.821L212.916 236.129Z" fill="#9DB5B2"/>
<path opacity="0.1" d="M212.916 236.129L208.286 240.658C208.286 240.658 216.637 250.318 223.062 250.92C229.487 251.521 233.63 243.573 233.63 243.573L228.07 234.821L212.916 236.129Z" fill="black"/>
<path opacity="0.1" d="M256.895 186.312C265.79 186.312 273.001 179.105 273.001 170.214C273.001 161.323 265.79 154.115 256.895 154.115C248 154.115 240.789 161.323 240.789 170.214C240.789 179.105 248 186.312 256.895 186.312Z" fill="black"/>
<path d="M256.895 185.103C265.79 185.103 273.001 177.896 273.001 169.005C273.001 160.114 265.79 152.906 256.895 152.906C248 152.906 240.789 160.114 240.789 169.005C240.789 177.896 248 185.103 256.895 185.103Z" fill="#FBBEBE"/>
<path opacity="0.1" d="M285.791 304.155C282.123 304.574 278.511 305.383 275.015 306.567C268.995 308.569 221.82 306.6 221.164 306.567C221.164 305.429 221.164 304.757 221.164 304.757L223.473 299.024L250.837 295.6H263.927C263.927 295.6 283.629 300.227 285.665 302.224C285.747 303.427 285.791 304.155 285.791 304.155Z" fill="black"/>
<path opacity="0.1" d="M270.588 202.717C270.183 203.625 268.475 211.469 268.07 212.273C267.665 213.077 265.454 225.949 265.252 226.671C265.049 227.393 250.678 223.651 250.678 223.651L242.025 216.403L233.132 207.558C233.132 207.558 232.87 199.577 239.42 197.017L255.685 215.709L263.008 196.208C264.455 196.619 265.961 196.782 267.463 196.689C267.463 196.689 270.993 201.815 270.588 202.717Z" fill="black"/>
<path d="M255.685 216.31L239.037 197.165C238.063 196.543 236.949 196.173 235.796 196.088C234.643 196.003 233.487 196.206 232.432 196.678C228.705 198.292 224.075 199.599 222.865 200.403C221.656 201.207 217.125 206.185 217.125 206.185L230.62 241.473L224.677 264.715C224.677 264.715 225.585 276.591 223.27 280.918C221.861 283.684 221.2 286.772 221.355 289.872C221.355 289.872 222.061 295.611 221.256 298.625C220.786 300.64 220.751 302.732 221.152 304.762C221.152 304.762 268.978 306.775 275.015 304.762C278.51 303.575 282.123 302.766 285.791 302.35C285.791 302.35 284.696 282.22 283.602 277.39C282.507 272.56 284.51 254.147 284.51 254.147L283.202 234.422L291.05 214.182C291.05 214.182 286.798 201.207 282.365 199.9C282.365 199.9 274.314 197.985 272.601 197.083C270.888 196.18 265.854 195.371 265.854 195.371L263.21 196.257L255.685 216.31Z" fill="#9DB5B2"/>
<path opacity="0.1" d="M278.913 233.756L243.881 231.375C242.994 231.315 242.227 231.984 242.166 232.87L238.405 288.155C238.345 289.041 239.015 289.808 239.901 289.868L274.934 292.249C275.82 292.31 276.588 291.64 276.648 290.754L280.409 235.469C280.469 234.583 279.799 233.816 278.913 233.756Z" fill="black"/>
<path d="M280.119 232.555L245.087 230.174C244.201 230.114 243.433 230.783 243.373 231.67L239.612 286.954C239.551 287.84 240.221 288.608 241.108 288.668L276.14 291.049C277.026 291.109 277.794 290.44 277.854 289.553L281.615 234.269C281.676 233.383 281.006 232.615 280.119 232.555Z" fill="#3F3D56"/>
<path d="M278.963 236.889L245.646 234.624L242.222 284.953L275.539 287.218L278.963 236.889Z" fill="white"/>
<path opacity="0.1" d="M275.976 249.735L248.76 247.831L248.229 255.412L275.445 257.317L275.976 249.735Z" fill="black"/>
<path opacity="0.1" d="M274.991 279.864L270.672 279.57L270.403 283.521L274.722 283.815L274.991 279.864Z" fill="black"/>
<path opacity="0.1" d="M270.731 270.328L248.623 268.825L248.354 272.776L270.462 274.279L270.731 270.328Z" fill="black"/>
<path d="M274.839 235.007L251.819 233.442L251.406 239.517L274.426 241.081L274.839 235.007Z" fill="#3F3D56"/>
<path opacity="0.1" d="M274.839 235.007L251.819 233.442L251.406 239.517L274.426 241.081L274.839 235.007Z" fill="black"/>
<path opacity="0.1" d="M257.699 303.044C257.699 303.044 257.497 332.835 249.643 349.94C249.643 349.94 259.111 327.397 259.111 326.495C259.111 325.592 264.343 316.129 262.942 313.312C261.541 310.495 257.699 303.044 257.699 303.044Z" fill="black"/>
<path opacity="0.1" d="M258.126 164.979C257.825 162.342 258.471 159.684 259.949 157.479C259.773 159.689 260.398 161.889 261.71 163.676C263.023 165.464 264.934 166.72 267.096 167.216C266.912 167.056 266.78 166.844 266.718 166.608C266.657 166.371 266.668 166.122 266.751 165.892C267.873 167.161 268.732 168.666 270.002 169.782C271.272 170.897 273.176 171.565 274.67 170.772C276.701 169.678 276.723 166.795 276.197 164.552C275.07 159.776 272.757 155.361 269.471 151.714C268.652 150.611 267.588 149.714 266.363 149.091C265.138 148.469 263.785 148.138 262.411 148.125C259.303 147.885 256.074 148.158 253.288 149.553C251.721 150.408 250.252 151.433 248.91 152.611L241.248 158.858C240.511 159.389 239.88 160.053 239.388 160.816C239.059 161.454 238.862 162.152 238.808 162.867C238.612 164.913 238.991 166.973 239.901 168.816C240.812 170.658 242.218 172.211 243.963 173.299C243.926 171.682 244.371 170.09 245.241 168.727C246.111 167.363 247.367 166.289 248.85 165.641C249.082 165.835 249.27 166.076 249.401 166.349C249.533 166.621 249.604 166.919 249.611 167.222L251.225 164.344C251.465 163.821 251.844 163.372 252.32 163.048C253.316 162.501 254.558 163.146 255.406 163.918C256.255 164.689 257.081 165.652 258.219 165.772L258.263 161.489" fill="black"/>
<path d="M258.126 164.377C257.824 161.739 258.47 159.079 259.949 156.872C259.456 161.248 262.756 165.766 267.101 166.609C266.917 166.45 266.785 166.239 266.723 166.003C266.662 165.768 266.673 165.519 266.757 165.291C267.879 166.56 268.738 168.058 270.007 169.18C271.277 170.301 273.182 170.963 274.676 170.164C276.706 169.07 276.728 166.188 276.203 163.95C275.075 159.174 272.762 154.759 269.477 151.112C268.457 149.87 267.173 148.872 265.717 148.191C264.663 147.801 263.556 147.576 262.433 147.524C259.325 147.283 256.096 147.551 253.31 148.946C251.744 149.805 250.275 150.832 248.932 152.009L241.27 158.256C240.532 158.785 239.9 159.45 239.409 160.214C239.08 160.852 238.883 161.55 238.829 162.266C238.634 164.311 239.013 166.37 239.924 168.211C240.834 170.053 242.241 171.605 243.985 172.692C243.949 171.075 244.395 169.484 245.265 168.121C246.135 166.757 247.39 165.683 248.872 165.033C249.103 165.228 249.291 165.47 249.422 165.742C249.553 166.015 249.625 166.312 249.632 166.614L251.241 163.748C251.48 163.223 251.859 162.775 252.336 162.452C253.332 161.905 254.574 162.55 255.423 163.321C256.271 164.093 257.097 165.05 258.236 165.176L258.279 160.887" fill="#3F3D56"/>
<path d="M265.755 265.919C264.349 265.208 241.09 268.834 241.09 268.834C241.09 268.834 237.259 267.74 227.999 266.22C218.739 264.699 218.148 255.651 218.148 255.651L217.135 237.54L220.26 234.805L233.647 243.557C233.647 243.557 233.855 247.982 233.647 248.781C233.515 249.328 233.165 249.979 233.198 250.422C233.208 250.542 233.258 250.655 233.339 250.744C233.42 250.833 233.528 250.893 233.647 250.914C234.555 251.144 246.934 253.146 246.934 253.146C246.934 253.146 275.628 251.182 282.781 260.843C283.347 261.552 283.776 262.361 284.045 263.228C285.818 269.83 267.03 266.548 265.755 265.919Z" fill="#FBBEBE"/>
<path opacity="0.1" d="M284.061 263.266C282.967 263.753 282.288 264.103 282.288 264.103C282.288 264.103 272.021 263.802 266.253 261.712C260.485 259.623 253.474 259.995 253.474 259.995C253.474 259.995 229.438 255.859 233.165 250.46C233.175 250.58 233.225 250.694 233.306 250.783C233.387 250.872 233.495 250.931 233.614 250.953C234.522 251.182 246.902 253.184 246.902 253.184C246.902 253.184 275.595 251.221 282.748 260.881C283.332 261.586 283.778 262.395 284.061 263.266Z" fill="black"/>
<path d="M294.044 231.397C294.044 231.397 295.456 241.358 295.554 242.168C295.653 242.977 296.162 252.73 295.554 253.841C294.947 254.951 294.044 256.756 294.044 256.756C294.044 256.756 295.051 258.868 291.023 259.677C286.995 260.487 282.266 262.894 282.266 262.894C282.266 262.894 271.994 262.593 266.259 260.482C260.523 258.37 253.474 258.769 253.474 258.769C253.474 258.769 222.964 253.534 236.055 247.145C249.145 240.756 258.405 249.41 258.405 249.41L273.001 248.507C273.001 248.507 278.441 245.182 279.951 245.488C281.018 245.624 282.101 245.449 283.071 244.985L283.175 234.416L294.044 231.397Z" fill="#FBBEBE"/>
<path opacity="0.1" d="M220.031 206.945L217.108 206.792L208.253 241.254C208.253 241.254 217.814 238.836 221.935 241.254C226.056 243.672 233.614 244.17 233.614 244.17L230.796 216.699L220.031 206.945Z" fill="black"/>
<path d="M220.031 206.338L217.108 206.185L208.253 240.647C208.253 240.647 217.814 238.229 221.935 240.647C226.056 243.065 233.614 243.562 233.614 243.562L230.796 216.092L220.031 206.338Z" fill="#9DB5B2"/>
<path opacity="0.1" d="M287 213.887L291.023 214.795C291.023 214.795 301.295 229.564 302.1 230.39C302.904 231.216 298.269 234.219 296.359 234.219C294.449 234.219 285.085 235.314 282.365 237.841C279.645 240.368 280.778 227.65 280.778 227.36C280.778 227.07 284.154 219.045 284.154 219.045L287 213.887Z" fill="black"/>
<path d="M287 213.285L291.023 214.188C291.023 214.188 301.295 228.985 302.1 229.789C302.904 230.593 298.269 233.618 296.359 233.618C294.449 233.618 285.085 234.712 282.365 237.239C279.645 239.766 280.778 227.048 280.778 226.758C280.778 226.468 284.176 218.416 284.176 218.416L287 213.285Z" fill="#9DB5B2"/>
<g opacity="0.1">
<path opacity="0.1" d="M259.921 156.921C259.898 156.502 259.907 156.081 259.949 155.663C259.115 156.913 258.542 158.317 258.263 159.793V161.062C258.263 161.062 258.263 161.035 258.263 161.018V161.319C258.263 162.205 258.263 163.097 258.236 163.983H258.159V164.393C258.159 164.251 258.159 164.114 258.132 163.972C257.037 163.797 256.255 162.878 255.439 162.145C254.624 161.412 253.349 160.712 252.353 161.275C251.875 161.599 251.497 162.047 251.258 162.572L249.633 165.438C249.625 165.137 249.554 164.84 249.423 164.568C249.291 164.297 249.104 164.056 248.872 163.863C247.389 164.511 246.133 165.585 245.263 166.949C244.393 168.313 243.948 169.904 243.985 171.521C242.489 170.585 241.239 169.306 240.336 167.791C239.432 166.275 238.903 164.567 238.791 162.807C238.696 164.772 239.127 166.728 240.04 168.471C240.953 170.214 242.315 171.683 243.985 172.724C243.949 171.108 244.395 169.517 245.265 168.154C246.135 166.79 247.39 165.716 248.872 165.066C249.103 165.261 249.291 165.503 249.422 165.775C249.553 166.048 249.625 166.345 249.633 166.647L251.242 163.781C251.48 163.256 251.859 162.808 252.336 162.484C253.332 161.937 254.574 162.583 255.423 163.354C256.271 164.125 257.097 165.083 258.236 165.208C258.236 163.808 258.25 162.411 258.279 161.018C258.548 159.557 259.106 158.164 259.921 156.921Z" fill="black"/>
<path opacity="0.1" d="M258.071 162.43C258.099 162.058 258.143 161.686 258.197 161.336L258.258 159.826C258.093 160.683 258.031 161.557 258.071 162.43Z" fill="black"/>
<path opacity="0.1" d="M274.676 168.956C273.182 169.754 271.277 169.087 270.008 167.971C268.738 166.855 267.879 165.351 266.757 164.082C266.674 164.311 266.662 164.561 266.724 164.797C266.785 165.033 266.917 165.245 267.102 165.405C266.992 165.405 266.888 165.351 266.784 165.323C267.879 166.581 268.749 168.058 270.008 169.152C271.266 170.246 273.182 170.936 274.676 170.137C276.17 169.338 276.597 167.468 276.465 165.646C276.367 167.079 275.852 168.321 274.676 168.956Z" fill="black"/>
<path opacity="0.1" d="M266.751 165.312C264.921 164.814 263.287 163.768 262.068 162.315C260.85 160.862 260.104 159.072 259.932 157.184C259.62 161.478 262.86 165.783 267.101 166.609C266.921 166.452 266.791 166.245 266.729 166.014C266.666 165.783 266.674 165.539 266.751 165.312Z" fill="black"/>
</g>
<path d="M529.573 254.716C529.573 254.716 527.417 254.415 527.417 251.281C527.417 248.146 525.873 242.277 525.873 242.277C525.873 242.277 524.538 232.064 522.694 230.445C520.849 228.826 518.48 219.319 518.48 219.319C518.48 219.319 518.075 214.161 517.248 213.05C516.422 211.94 515.306 209.221 513.658 205.343C512.011 201.464 505.159 198.806 505.159 198.806C505.159 198.806 492.742 191.607 489.223 189.261C488.901 189.066 488.6 188.839 488.325 188.582C487.712 187.784 485.042 187.767 485.042 187.767C484.762 186 484.494 183.976 484.407 182.144C484.407 181.947 484.407 181.75 484.407 181.553C488.331 179.235 491.286 175.58 492.731 171.258C492.796 171.051 492.851 170.837 492.911 170.624C493.151 170.55 493.373 170.426 493.562 170.26C493.75 170.094 493.902 169.89 494.006 169.661C494.318 168.956 494.329 168.135 494.723 167.473C495.182 166.696 496.058 166.281 496.748 165.701C498.488 164.218 498.937 161.729 498.855 159.47C498.8 157.632 498.504 155.783 498.619 153.962C498.619 153.809 498.619 153.656 498.652 153.502C498.685 153.234 498.723 152.955 498.773 152.693C499.041 151.336 499.626 150.056 499.955 148.711C500.283 147.365 500.316 145.85 499.55 144.69C498.428 142.989 496.091 142.65 494.039 142.502C491.713 142.305 489.66 142.557 488.145 140.626C487.449 139.617 486.665 138.673 485.802 137.803C485.496 137.519 482.519 135.697 482.519 135.582C479.606 134.229 476.301 133.974 473.215 134.866C471.666 135.314 470.216 136.047 468.645 136.414C465.274 137.212 461.388 136.348 458.521 138.279C456.923 139.373 455.965 141.118 455.067 142.808C454.338 144.201 453.597 145.596 452.846 146.993C451.631 149.285 450.405 151.615 449.896 154.153C449.789 154.708 449.722 155.269 449.693 155.833C449.693 156.035 449.693 156.237 449.693 156.44C449.693 156.527 449.693 156.615 449.693 156.702C449.693 156.888 449.693 157.074 449.726 157.249C449.759 157.424 449.726 157.474 449.764 157.589C449.803 157.703 449.814 157.961 449.846 158.136C449.879 158.311 449.945 158.622 450.011 158.858C450.011 158.962 450.076 159.06 450.109 159.164C450.142 159.268 450.23 159.53 450.301 159.711C450.372 159.892 450.377 159.902 450.421 159.995C450.503 160.187 450.602 160.373 450.7 160.542C450.744 160.614 450.777 160.685 450.821 160.756C450.971 161.012 451.139 161.257 451.324 161.489C452.49 162.949 454.219 163.879 455.494 165.247C455.494 165.301 455.494 165.356 455.494 165.411C455.494 165.559 455.494 165.706 455.494 165.859C455.572 168.91 456.395 171.894 457.891 174.554C459.386 177.214 461.509 179.469 464.076 181.121C464.076 181.329 464.103 181.542 464.114 181.756C464.221 183.377 464.2 185.005 464.054 186.624C463.83 186.362 463.551 186.154 463.237 186.014C462.922 185.874 462.581 185.805 462.237 185.814C462.002 185.803 461.766 185.823 461.536 185.875L461.487 185.836V185.886C460.283 186.181 458.8 187.434 457.382 190.995C457.382 190.995 453.07 195.852 449.786 195.65C446.503 195.447 438.19 200.71 438.19 200.71C438.19 200.71 430.079 205.966 428.339 211.327C427.366 214.368 426.198 217.342 424.842 220.232L414.788 240.866L412.944 257.276C412.944 257.276 413.967 264.557 413.765 265.673C413.562 266.789 417.973 276.799 417.973 276.799C417.973 276.799 432.547 302.388 438.502 303.701L438.928 303.406C439.184 303.535 439.454 303.634 439.733 303.701L440.959 302.842C441.035 303.804 441.002 304.771 440.86 305.725C440.045 308.258 441.172 324.744 442.606 327.977C444.04 331.21 443.531 373.604 443.531 373.604L443.328 377.34C443.328 377.34 443.328 377.46 443.378 377.668L443.328 378.554L443.476 378.631C443.63 379.819 443.58 381.025 443.328 382.197C442.814 383.838 442.606 388.471 442.606 388.471C442.606 388.471 438.502 414.662 440.45 419.924C442.398 425.187 444.045 430.952 444.045 430.952C444.045 430.952 446.098 437.516 444.144 438.61C442.19 439.704 436.657 441.646 437.785 444.376C438.824 446.903 442.77 453.675 443.356 454.665L443.307 455.212L442.502 463.926C442.632 465.077 442.945 466.199 443.427 467.252C444.308 469.156 446.016 471.119 449.277 470.906C449.825 470.868 450.454 470.807 451.072 470.725C457.032 469.921 464.366 467.263 464.366 467.263C463.985 467.022 463.638 466.734 463.331 466.404C463.038 466.12 462.806 465.78 462.649 465.404C462.492 465.028 462.413 464.624 462.417 464.216C462.505 462.624 459.533 455.07 458.789 453.205L458.619 452.789C458.619 452.789 465.394 445.705 464.267 439.436C464.267 439.436 456.769 435.06 459.238 432.653C461.706 430.247 466.117 423.354 466.117 423.354C466.117 423.354 466.319 397.563 466.117 393.717C465.906 391.042 466.033 388.352 466.494 385.709C466.577 385.315 466.675 384.927 466.779 384.538C470.196 385.054 473.645 385.315 477.101 385.32C478.363 385.32 479.64 385.295 480.931 385.244C480.931 385.609 480.948 386.002 480.981 386.425C481.265 392.815 481.796 404.023 482.229 408.186C482.841 414.148 486.229 430.236 486.229 430.236C486.229 430.236 479.766 434.377 487.356 444.6C487.356 444.6 487.356 448.298 486.853 448.84C486.315 450.594 485.882 452.378 485.556 454.184C485.239 456.104 485.107 458.057 485.622 459.063C486.853 461.481 494.241 461.284 494.241 461.284C494.301 461.27 494.361 461.261 494.422 461.257C495.816 461.109 497.226 461.241 498.569 461.645C499.912 462.049 501.161 462.717 502.242 463.609C505.05 465.863 515.7 464.878 521.473 464.156C523.734 463.866 525.244 463.609 525.244 463.609C525.317 463.353 525.343 463.086 525.321 462.821C525.261 461.404 524.15 458.297 516.619 455.524C516.619 455.524 509.537 450.765 509.636 446.619H509.477H508.662C509.176 446.602 509.537 446.602 509.537 446.602C509.537 446.602 506.763 436.488 507.896 435.662C509.028 434.836 505.635 423.628 505.635 423.628C505.635 423.628 503.693 404.811 503.583 403.498C503.59 402.366 503.764 401.242 504.098 400.161L503.583 389.839C503.583 389.839 503.485 386.409 503.583 385.293C503.572 384.324 503.495 383.358 503.353 382.399C503.304 382.017 503.255 381.617 503.2 381.223C505.854 380.551 507.578 379.932 507.578 379.932L507.272 344.021C509.526 339.645 509.942 330.039 509.931 323.235C509.931 318.859 509.734 315.62 509.734 315.62L512.816 310.593C512.816 310.593 513.527 304.576 512.4 303.258C511.902 302.662 512.126 302.043 512.536 301.535C512.752 301.358 512.981 301.197 513.221 301.053C513.194 301.015 513.17 300.975 513.149 300.933C513.365 300.753 513.593 300.591 513.833 300.446C513.833 300.446 512.739 298.75 513.719 298.034C514.638 298.657 515.459 299.155 516.083 299.511C516.039 299.91 515.995 300.14 515.995 300.14L516.258 299.593C516.86 299.932 517.227 300.14 517.227 300.14C517.227 300.14 522.053 290.529 521.95 289.118C521.846 287.706 525.233 281.733 525.233 281.733C525.233 281.733 525.644 278.593 527.493 277.28C529.343 275.967 528.927 266.455 528.927 266.455C528.927 266.455 529.442 261.499 530.673 259.48C531.904 257.462 529.573 254.716 529.573 254.716ZM437.215 250.499L437.309 252.791C436.761 251.91 436.367 251.281 436.367 251.281L437.215 250.499Z" fill="url(#paint1_linear_24_1536)"/>
<path d="M517.511 295.983L516.329 301.015C516.329 301.015 506.861 296.174 505.159 290.047C503.457 283.921 508.011 281.585 508.011 281.585L516.838 285.316L517.511 295.983Z" fill="white"/>
<path opacity="0.1" d="M517.511 295.983L516.329 301.015C516.329 301.015 506.861 296.174 505.159 290.047C503.457 283.921 508.011 281.585 508.011 281.585L516.838 285.316L517.511 295.983Z" fill="black"/>
<path d="M464.376 467.257C464.376 467.257 455.62 470.474 449.6 470.879C446.404 471.092 444.724 469.134 443.859 467.246C443.389 466.206 443.083 465.099 442.951 463.964L443.744 455.294L444.16 450.683L456.95 447.357L458.761 452.898L458.931 453.314C459.654 455.168 462.576 462.684 462.488 464.254C462.481 464.66 462.557 465.064 462.71 465.44C462.863 465.816 463.091 466.157 463.38 466.442C463.677 466.755 464.011 467.029 464.376 467.257Z" fill="white"/>
<path d="M524.16 462.849C524.183 463.114 524.157 463.38 524.084 463.636C524.084 463.636 505.356 466.754 501.525 463.636C500.448 462.725 499.193 462.049 497.84 461.651C496.487 461.252 495.065 461.14 493.667 461.322C493.667 461.322 486.421 461.519 485.211 459.134C484.708 458.133 484.839 456.191 485.151 454.282C485.47 452.487 485.894 450.711 486.421 448.965L486.711 448.736L488.435 447.352L508.618 446.755H508.771C508.673 450.88 515.618 455.612 515.618 455.612C523.011 458.347 524.1 461.437 524.16 462.849Z" fill="white"/>
<path opacity="0.1" d="M524.166 462.849C524.185 463.114 524.158 463.381 524.084 463.636C524.084 463.636 505.356 466.754 501.531 463.636C500.453 462.725 499.197 462.048 497.843 461.65C496.489 461.251 495.066 461.14 493.667 461.322C493.667 461.322 486.415 461.519 485.206 459.134C484.708 458.133 484.834 456.191 485.145 454.277C487.937 454.556 492.342 455.25 494.071 456.913C496.687 459.43 501.12 461.946 503.835 462.148C505.98 462.28 518.737 462.684 524.166 462.849Z" fill="black"/>
<path opacity="0.1" d="M464.376 467.257C464.376 467.257 455.62 470.474 449.6 470.879C446.404 471.092 444.724 469.134 443.859 467.246C446.092 467.996 449.184 468.778 450.81 468.062C452.736 467.203 459.566 466.656 463.397 466.42C463.686 466.741 464.015 467.022 464.376 467.257Z" fill="black"/>
<path d="M477.369 208.034C470.145 205.228 460.852 195.956 463.173 191.624C463.685 190.53 463.992 189.35 464.076 188.145C464.225 186.508 464.247 184.862 464.141 183.222C463.978 180.533 463.655 177.857 463.173 175.208C463.173 175.208 485.726 175.717 484.412 179.037C484.029 180.016 483.963 181.706 484.073 183.594C484.182 185.481 484.45 187.63 484.735 189.441C485.124 191.919 485.523 193.817 485.523 193.817C485.523 193.817 484.139 195.748 483.334 195.852C482.53 195.956 487.734 212.055 477.369 208.034Z" fill="#CF6F80"/>
<path opacity="0.1" d="M458.909 453.287L458.74 453.473C451.997 445.322 443.843 455.486 443.843 455.486L443.722 455.267L444.138 450.656L456.928 447.33L458.74 452.871L458.909 453.287Z" fill="black"/>
<path opacity="0.1" d="M508.782 447.33C508.782 447.33 503.857 447.231 501.23 449.551C498.603 451.87 485.906 450.048 486.453 449.551C486.613 449.298 486.711 449.011 486.738 448.714L488.462 447.33L508.645 446.734C508.722 447.116 508.782 447.33 508.782 447.33Z" fill="black"/>
<path d="M467.299 383.324C466.933 384.231 466.654 385.17 466.467 386.13C466.011 388.759 465.884 391.434 466.089 394.095C466.292 397.924 466.089 423.584 466.089 423.584C466.089 423.584 461.761 430.427 459.342 432.839C456.923 435.252 464.267 439.584 464.267 439.584C465.362 445.825 458.729 452.871 458.729 452.871C451.986 444.721 443.832 454.879 443.832 454.879C443.832 454.879 439.399 447.22 438.294 444.485C437.188 441.75 442.622 439.863 444.532 438.747C446.442 437.631 444.434 431.089 444.434 431.089C444.434 431.089 442.825 425.351 440.909 420.116C438.994 414.881 443.022 388.827 443.022 388.827C443.022 388.827 443.23 384.194 443.728 382.58C443.976 381.415 444.026 380.217 443.876 379.035C443.843 378.636 443.805 378.308 443.777 378.078C443.75 377.848 443.728 377.75 443.728 377.75L443.805 377.619L446.541 372.52C446.541 372.52 468.612 380.113 467.299 383.324Z" fill="#9DB5B2"/>
<path d="M508.782 446.728C508.782 446.728 503.857 446.624 501.23 448.916C498.603 451.208 485.906 449.419 486.453 448.916C487.001 448.413 486.951 444.693 486.951 444.693C479.503 434.524 485.857 430.4 485.857 430.4C485.857 430.4 482.535 414.4 481.933 408.465C481.512 404.324 480.992 393.148 480.713 386.819C480.592 384.084 480.521 382.197 480.521 382.197L486.552 380.999L487.335 380.846L502.012 377.898C502.012 377.898 502.417 380.633 502.691 382.87C502.829 383.825 502.904 384.788 502.915 385.753C502.822 386.847 502.915 390.276 502.915 390.276L503.419 400.538C503.094 401.616 502.924 402.734 502.915 403.859C503.019 405.172 504.929 423.885 504.929 423.885C504.929 423.885 508.251 435.055 507.118 435.859C505.986 436.663 508.782 446.728 508.782 446.728Z" fill="#9DB5B2"/>
<path opacity="0.1" d="M484.412 179.053C484.029 180.033 483.963 181.723 484.073 183.61C481.052 185.428 477.579 186.358 474.053 186.292C470.528 186.226 467.092 185.168 464.141 183.238C463.978 180.55 463.655 177.874 463.172 175.224C463.172 175.224 485.726 175.733 484.412 179.053Z" fill="black"/>
<path d="M493.119 166.975C493.179 171.938 491.263 176.722 487.794 180.273C484.325 183.825 479.587 185.853 474.621 185.913C469.656 185.972 464.87 184.058 461.317 180.59C457.764 177.123 455.734 172.387 455.675 167.424C455.675 167.271 455.675 167.128 455.675 166.975C455.675 162.011 457.648 157.25 461.16 153.739C464.672 150.229 469.436 148.257 474.403 148.257C479.369 148.257 484.133 150.229 487.645 153.739C491.157 157.25 493.13 162.011 493.13 166.975H493.119Z" fill="#CF6F80"/>
<path opacity="0.1" d="M477.369 208.034C470.145 205.228 460.852 195.956 463.173 191.624C463.685 190.53 463.992 189.35 464.076 188.145L473.965 196.273L480.083 201.289L484.735 189.458C485.124 191.935 485.523 193.834 485.523 193.834C485.523 193.834 484.139 195.765 483.334 195.868C482.53 195.972 487.734 212.055 477.369 208.034Z" fill="black"/>
<path d="M502.943 243.956L494.684 382.624L483.914 383.329L456.02 302.924L460.595 207.465L461.564 187.297L473.965 197.477L480.083 202.493L484.872 190.311L493.776 198.067L502.943 243.956Z" fill="#9DB5B2"/>
<path opacity="0.1" d="M467.299 383.324C466.933 384.231 466.654 385.17 466.467 386.13C458.623 384.923 451.004 382.546 443.865 379.079L443.717 379.003L443.766 378.122V377.662L446.503 372.564C446.503 372.564 468.612 380.113 467.299 383.324Z" fill="black"/>
<path opacity="0.1" d="M486.733 386.152C484.729 386.494 482.709 386.726 480.68 386.847C480.559 384.112 480.488 382.224 480.488 382.224L486.552 380.999L486.733 386.152Z" fill="black"/>
<path opacity="0.1" d="M502.713 382.87C498.822 383.882 492.807 385.02 487.433 384.309L487.356 380.846L502.034 377.898C502.034 377.898 502.423 380.611 502.713 382.87Z" fill="black"/>
<path opacity="0.1" d="M487.335 384.943C464.896 388.772 444.346 377.794 444.346 377.794L444.543 374.074C444.543 374.074 445.052 331.905 443.64 328.672C442.228 325.439 441.128 309.067 441.927 306.567C442.726 304.067 439.01 266.324 439.01 266.324L438.408 251.007L416.359 242.053L426.21 221.523C427.54 218.646 428.684 215.686 429.636 212.662C431.349 207.328 439.301 202.093 439.301 202.093C439.301 202.093 447.455 196.864 450.678 197.061C453.902 197.258 458.127 192.433 458.127 192.433C461.246 184.485 464.07 188.057 464.07 188.057C464.07 188.44 464.07 188.057 463.917 189.233C462.822 197.958 481.616 225.527 481.884 226.02L483.695 269.595L485.507 324.739L487.335 384.943Z" fill="black"/>
<path d="M486.733 384.943C464.294 388.772 443.739 377.794 443.739 377.794L443.941 374.074C443.941 374.074 444.445 331.905 443.033 328.672C441.621 325.439 440.521 309.051 441.325 306.529C442.13 304.007 438.392 266.302 438.392 266.302L437.785 250.985L415.74 242.031L425.591 221.501C426.919 218.624 428.063 215.666 429.017 212.645C430.73 207.328 438.709 202.088 438.709 202.088C438.709 202.088 446.864 196.859 450.082 197.056C453.3 197.252 457.547 192.433 457.547 192.433C460.672 184.485 464.114 188.057 464.114 188.057C464.114 188.44 463.785 188.604 463.961 189.233C466.369 197.696 481.057 225.527 481.326 226.02L483.137 269.595L484.91 324.766L486.733 384.943Z" fill="white"/>
<path opacity="0.1" d="M480.685 227.251C478.272 226.244 465.487 211.655 465.487 211.655V208.335C465.022 207.241 462.253 207.908 460.015 208.674L460.978 188.506L462.073 189.414C464.464 197.871 480.423 226.764 480.685 227.251Z" fill="black"/>
<path d="M481.293 226.047C478.874 225.035 466.089 210.452 466.089 210.452V207.126C465.624 206.032 462.861 206.699 460.617 207.465L461.564 187.319L462.658 188.221C465.072 196.667 481.024 225.555 481.293 226.047Z" fill="white"/>
<path opacity="0.1" d="M444.346 298.8C444.647 298.8 459.949 297.191 459.949 297.191C459.949 297.191 469.214 315.407 468.607 319.832C467.999 324.258 466.899 328.185 463.173 327.49C459.446 326.796 443.115 328.037 443.115 328.037L444.346 298.8Z" fill="black"/>
<path d="M443.739 297.591C444.045 297.591 459.347 295.983 459.347 295.983C459.347 295.983 468.607 314.225 468.005 318.601C467.403 322.978 466.292 326.954 462.571 326.26C458.849 325.565 442.508 326.807 442.508 326.807L443.739 297.591Z" fill="white"/>
<path d="M455.27 289.063C455.27 289.063 469.313 296.612 469.614 298.909C469.915 301.207 462.467 297.903 460.858 297.498C459.798 297.246 458.72 297.078 457.634 296.995L446.902 297.284L455.27 289.063Z" fill="#CF6F80"/>
<path opacity="0.1" d="M476.761 228.191C477.577 228.191 478.239 227.53 478.239 226.714C478.239 225.899 477.577 225.238 476.761 225.238C475.945 225.238 475.284 225.899 475.284 226.714C475.284 227.53 475.945 228.191 476.761 228.191Z" fill="black"/>
<path d="M476.761 227.59C477.577 227.59 478.239 226.928 478.239 226.113C478.239 225.297 477.577 224.636 476.761 224.636C475.945 224.636 475.284 225.297 475.284 226.113C475.284 226.928 475.945 227.59 476.761 227.59Z" fill="#3F3D56"/>
<path opacity="0.1" d="M479.481 292.126C480.297 292.126 480.959 291.465 480.959 290.649C480.959 289.834 480.297 289.172 479.481 289.172C478.665 289.172 478.004 289.834 478.004 290.649C478.004 291.465 478.665 292.126 479.481 292.126Z" fill="black"/>
<path d="M479.481 291.519C480.297 291.519 480.959 290.858 480.959 290.042C480.959 289.226 480.297 288.565 479.481 288.565C478.665 288.565 478.004 289.226 478.004 290.042C478.004 290.858 478.665 291.519 479.481 291.519Z" fill="#3F3D56"/>
<path opacity="0.1" d="M478.239 260.159C479.055 260.159 479.717 259.498 479.717 258.682C479.717 257.866 479.055 257.205 478.239 257.205C477.423 257.205 476.761 257.866 476.761 258.682C476.761 259.498 477.423 260.159 478.239 260.159Z" fill="black"/>
<path d="M478.239 259.557C479.055 259.557 479.717 258.896 479.717 258.08C479.717 257.264 479.055 256.603 478.239 256.603C477.423 256.603 476.761 257.264 476.761 258.08C476.761 258.896 477.423 259.557 478.239 259.557Z" fill="#3F3D56"/>
<path d="M512.301 296.688C512.301 296.688 513.308 298.198 512.301 298.876C511.294 299.555 512.4 301.294 512.4 301.294C512.4 301.294 509.888 302.76 510.993 304.089C512.099 305.419 511.398 311.386 511.398 311.386L508.377 316.413C508.377 316.413 508.558 319.635 508.569 323.99C508.569 330.783 508.169 340.334 505.958 344.689L506.254 380.414C506.254 380.414 495.675 384.281 486.82 383.1L485.507 325.773C485.507 325.773 487.422 293.264 488.128 287.028C488.541 283.791 488.71 280.527 488.632 277.264C488.632 277.264 488.331 267.505 487.318 262.981C487.318 262.981 486.224 243.355 486.114 237.923C486.065 235.324 486.202 227.743 486.355 220.533C486.525 212.651 486.716 205.217 486.716 205.217L484.719 189.414C484.719 189.414 486.716 189.217 487.318 190.015C487.588 190.267 487.881 190.493 488.194 190.688C491.647 193.019 503.829 200.184 503.829 200.184C503.829 200.184 510.572 202.865 512.186 206.705C513.801 210.545 514.922 213.269 515.705 214.363C516.488 215.457 516.915 220.599 516.915 220.599C516.915 220.599 519.235 230.062 521.046 231.665C522.858 233.268 524.16 243.442 524.16 243.442L508.153 256.023C508.153 256.023 506.746 276.952 506.445 277.762C506.144 278.571 512.301 296.688 512.301 296.688Z" fill="white"/>
<path d="M512.909 296.688C512.909 296.688 513.91 298.198 512.909 298.876C511.907 299.555 513.002 301.294 513.002 301.294C513.002 301.294 510.49 302.76 511.595 304.089C512.701 305.419 512 311.386 512 311.386L508.99 316.413C508.99 316.413 509.171 319.635 509.187 323.99C509.187 330.783 508.788 340.334 506.577 344.688L506.878 380.414C506.878 380.414 496.299 384.281 487.444 383.1L486.136 325.773C486.136 325.773 488.046 293.264 488.757 287.028C489.171 283.791 489.338 280.526 489.255 277.264C489.255 277.264 488.954 267.505 487.947 262.981C487.947 262.981 486.853 243.355 486.738 237.923C486.689 235.324 486.826 227.743 486.979 220.533C487.148 212.651 487.34 205.217 487.34 205.217L484.702 189.2C484.702 189.2 487.34 189.2 487.947 190.015C488.215 190.27 488.508 190.496 488.823 190.688C492.271 193.019 504.453 200.184 504.453 200.184C504.453 200.184 511.179 202.865 512.821 206.705C514.463 210.545 515.557 213.269 516.34 214.363C517.123 215.457 517.549 220.599 517.549 220.599C517.549 220.599 519.87 230.062 521.681 231.665C523.493 233.268 524.801 243.442 524.801 243.442L508.793 256.023C508.793 256.023 507.387 276.952 507.08 277.762C506.774 278.571 512.909 296.688 512.909 296.688Z" fill="white"/>
<path opacity="0.1" d="M493.738 209.861L495.188 214.073L487.575 221.731C487.745 213.849 487.937 206.415 487.937 206.415L485.299 190.404C485.299 190.404 487.937 190.404 488.544 191.219C488.811 191.474 489.105 191.699 489.42 191.892L495.888 210.539L493.738 209.861Z" fill="black"/>
<path d="M493.119 208.652L494.57 212.859L486.962 220.517C487.127 212.634 487.324 205.201 487.324 205.201L484.68 189.184C484.68 189.184 487.324 189.184 487.926 189.999C488.194 190.252 488.487 190.478 488.801 190.672L495.308 209.336L493.119 208.652Z" fill="white"/>
<path opacity="0.1" d="M493.119 166.975C493.121 168.946 492.811 170.905 492.2 172.779C492.097 172.796 491.991 172.793 491.89 172.768C491.788 172.744 491.693 172.699 491.609 172.637C491.461 167.714 489.042 163.086 486.059 159.153C485.221 157.967 484.206 156.915 483.049 156.035C481.879 155.157 480.424 154.746 478.967 154.881C477.325 155.105 475.875 156.221 474.217 156.363C472.027 156.544 470.068 155.029 467.895 154.957C467.012 154.965 466.14 155.161 465.339 155.533C464.538 155.904 463.825 156.443 463.249 157.113C462.107 158.46 461.259 160.03 460.759 161.724C459.899 164.294 459.43 166.979 459.369 169.689C459.342 171.22 459.194 173.14 457.771 173.698C457.879 172.572 457.751 171.437 457.396 170.363C457.04 169.29 456.466 168.302 455.708 167.462L455.675 167.424C455.675 167.271 455.675 167.128 455.675 166.975C455.675 162.011 457.648 157.25 461.16 153.739C464.672 150.229 469.436 148.257 474.403 148.257C479.369 148.257 484.133 150.229 487.645 153.739C491.157 157.25 493.13 162.011 493.13 166.975H493.119Z" fill="black"/>
<path d="M482.174 137.256C479.33 135.919 476.095 135.666 473.078 136.545C471.562 136.994 470.134 137.721 468.596 138.088C465.312 138.881 461.481 138.022 458.663 139.942C457.098 141.036 456.157 142.765 455.281 144.449L453.092 148.612C451.899 150.893 450.695 153.213 450.197 155.723C449.699 158.234 450 161.046 451.592 163.07C452.747 164.536 454.465 165.46 455.724 166.844C456.48 167.688 457.054 168.679 457.408 169.755C457.762 170.831 457.889 171.969 457.782 173.096C459.205 172.549 459.347 170.618 459.38 169.087C459.441 166.377 459.91 163.693 460.77 161.122C461.269 159.429 462.118 157.858 463.26 156.511C463.836 155.841 464.548 155.301 465.35 154.928C466.151 154.556 467.023 154.359 467.906 154.35C470.096 154.427 472.06 155.942 474.227 155.756C475.869 155.619 477.325 154.503 478.978 154.279C480.435 154.141 481.891 154.553 483.06 155.433C484.217 156.311 485.231 157.363 486.065 158.551C489.053 162.49 491.477 167.096 491.62 172.035C492.238 172.484 493.13 171.893 493.437 171.193C493.743 170.493 493.754 169.672 494.143 169.005C494.591 168.233 495.451 167.818 496.124 167.238C497.831 165.766 498.258 163.288 498.192 161.04C498.127 158.792 497.689 156.511 498.116 154.301C498.373 152.95 498.953 151.675 499.271 150.335C499.588 148.995 499.626 147.491 498.877 146.337C497.782 144.646 495.478 144.307 493.47 144.149C491.187 143.952 489.146 144.203 487.69 142.283C487.005 141.283 486.236 140.342 485.392 139.472C485.091 139.182 482.174 137.377 482.174 137.256Z" fill="#512E4E"/>
<path opacity="0.1" d="M422.674 252.61L416.961 242.047L415.149 258.348C415.149 258.348 416.156 265.591 415.954 266.701C415.751 267.811 420.08 277.767 420.08 277.767C420.08 277.767 434.381 303.23 440.22 304.538L459.922 290.447L454.69 283.806C454.69 283.806 452.878 283.1 452.424 283.806C452.424 283.806 442.705 267.1 441.703 265.897C440.701 264.693 440.893 262.27 440.893 262.27C440.893 262.27 439.383 260.662 439.886 259.152C440.39 257.643 436.996 252.413 436.996 252.413L440.116 249.498L422.674 252.61Z" fill="black"/>
<path d="M417.262 240.838L415.751 242.047L413.94 258.348C413.94 258.348 414.947 265.591 414.744 266.701C414.542 267.811 418.876 277.767 418.876 277.767C418.876 277.767 433.171 303.23 439.01 304.538L458.745 290.447L453.508 283.806C453.508 283.806 451.696 283.1 451.242 283.806C451.242 283.806 441.528 267.1 440.521 265.897C439.514 264.693 439.716 262.27 439.716 262.27C439.716 262.27 438.206 260.662 438.709 259.152C439.213 257.643 435.787 252.413 435.787 252.413L438.906 249.498L417.262 240.838Z" fill="white"/>
<path opacity="0.1" d="M510.993 304.718C512.088 306.048 511.398 312.021 511.398 312.021L508.377 317.015C508.377 317.015 508.558 320.243 508.569 324.597L503.49 326.183C503.03 326.326 502.543 326.358 502.069 326.274C501.594 326.191 501.147 325.996 500.763 325.705C500.38 325.413 500.072 325.035 499.864 324.6C499.657 324.166 499.557 323.688 499.572 323.207L500.453 294.982L512.301 299.505C511.294 300.206 512.4 301.923 512.4 301.923C512.4 301.923 509.888 303.389 510.993 304.718Z" fill="black"/>
<path d="M511.595 304.117C512.69 305.44 512 311.414 512 311.414L508.99 316.413C508.99 316.413 509.171 319.635 509.187 323.99L504.015 325.603C503.566 325.744 503.09 325.775 502.626 325.694C502.163 325.614 501.725 325.423 501.35 325.139C500.975 324.855 500.674 324.485 500.471 324.06C500.268 323.636 500.17 323.169 500.185 322.699L501.066 294.374L512.909 298.909C511.896 299.609 513.002 301.327 513.002 301.327C513.002 301.327 510.49 302.787 511.595 304.117Z" fill="white"/>
<path d="M515.525 290.649C515.525 290.649 514.72 295.786 512.706 296.087C510.692 296.387 509.789 304.396 507.781 304.117C505.772 303.838 507.102 296.666 507.173 295.277C507.244 293.888 504.984 288.133 506.67 286.826C508.355 285.518 513.719 286.826 513.719 286.826L515.525 290.649Z" fill="#CF6F80"/>
<path opacity="0.1" d="M519.782 251.1L523.575 243.442C523.575 243.442 525.091 249.279 525.091 252.397C525.091 255.515 527.203 255.821 527.203 255.821C527.203 255.821 529.518 258.556 528.298 260.553C527.078 262.549 526.59 267.494 526.59 267.494C526.59 267.494 526.99 276.952 525.179 278.259C523.367 279.567 522.962 282.69 522.962 282.69C522.962 282.69 519.64 288.625 519.744 290.037C519.848 291.448 515.114 301.004 515.114 301.004C515.114 301.004 517.429 289.128 503.939 283.998C503.939 283.998 503.835 279.972 504.842 278.867C505.849 277.762 507.419 277.226 506.434 271.668C505.449 266.11 506.15 259.409 506.15 258.069C506.15 256.729 509.171 248.376 509.171 248.376L519.782 251.1Z" fill="black"/>
<path d="M521.468 242.348L524.784 243.442C524.784 243.442 526.3 249.279 526.3 252.397C526.3 255.515 528.413 255.821 528.413 255.821C528.413 255.821 530.728 258.556 529.507 260.553C528.287 262.549 527.794 267.494 527.794 267.494C527.794 267.494 528.199 276.952 526.388 278.259C524.576 279.567 524.199 282.69 524.199 282.69C524.199 282.69 520.877 288.625 520.981 290.037C521.085 291.448 516.345 301.004 516.345 301.004C516.345 301.004 518.66 289.129 505.17 283.998C505.17 283.998 505.072 279.972 506.079 278.867C507.086 277.762 508.656 277.226 507.671 271.668C506.686 266.11 507.387 259.409 507.387 258.069C507.387 256.729 510.408 248.376 510.408 248.376L521.468 242.348Z" fill="white"/>
<path opacity="0.1" d="M448.199 440.842C448.199 440.842 453.486 437.522 456.956 439.934C460.425 442.347 448.199 440.842 448.199 440.842Z" fill="black"/>
<path opacity="0.1" d="M489.288 430.575C489.288 430.575 493.968 429.973 497.897 434.202C501.826 438.43 489.288 430.575 489.288 430.575Z" fill="black"/>
<g opacity="0.1">
<path opacity="0.1" d="M496.124 166.034C495.45 166.62 494.586 167.03 494.137 167.801C493.754 168.463 493.743 169.284 493.436 169.989C493.13 170.695 492.238 171.28 491.614 170.832C491.472 165.909 489.047 161.286 486.065 157.348C485.231 156.161 484.217 155.111 483.06 154.235C481.89 153.353 480.432 152.94 478.972 153.076C477.33 153.3 475.885 154.416 474.227 154.558C472.038 154.739 470.073 153.223 467.901 153.152C467.018 153.159 466.147 153.355 465.346 153.727C464.546 154.098 463.834 154.638 463.26 155.308C462.117 156.654 461.269 158.225 460.77 159.919C459.91 162.489 459.441 165.174 459.38 167.883C459.347 169.41 459.205 171.313 457.793 171.882C457.826 172.288 457.826 172.696 457.793 173.102C459.221 172.555 459.363 170.624 459.396 169.092C459.458 166.383 459.926 163.698 460.786 161.128C461.286 159.434 462.134 157.863 463.276 156.516C463.851 155.847 464.563 155.307 465.363 154.935C466.163 154.562 467.034 154.365 467.917 154.356C470.106 154.432 472.076 155.948 474.244 155.762C475.886 155.625 477.341 154.509 478.989 154.285C480.447 154.147 481.905 154.559 483.077 155.439C484.234 156.316 485.247 157.368 486.081 158.557C489.064 162.495 491.488 167.101 491.631 172.041C492.254 172.489 493.146 171.898 493.453 171.198C493.759 170.498 493.77 169.678 494.153 169.01C494.602 168.239 495.467 167.823 496.14 167.243C497.847 165.772 498.274 163.294 498.209 161.046C498.209 160.975 498.209 160.909 498.209 160.838C498.099 162.796 497.579 164.782 496.124 166.034Z" fill="black"/>
<path opacity="0.1" d="M455.719 165.652C454.465 164.268 452.747 163.338 451.592 161.872C450.617 160.578 450.061 159.016 450 157.397C449.828 159.422 450.393 161.44 451.592 163.081C452.747 164.547 454.465 165.471 455.719 166.855C456.929 168.208 457.657 169.924 457.787 171.734C457.87 170.633 457.729 169.527 457.373 168.482C457.018 167.437 456.455 166.474 455.719 165.652Z" fill="black"/>
<path opacity="0.1" d="M499.271 149.132C498.948 150.472 498.373 151.747 498.11 153.098C497.953 154.011 497.896 154.939 497.941 155.866C497.959 155.342 498.015 154.821 498.11 154.307C498.373 152.955 498.948 151.681 499.271 150.341C499.456 149.601 499.517 148.836 499.451 148.076C499.416 148.432 499.356 148.785 499.271 149.132Z" fill="black"/>
</g>
<path opacity="0.1" d="M72.6394 458.877C102.091 458.877 125.966 455.044 125.966 450.316C125.966 445.588 102.091 441.756 72.6394 441.756C43.1882 441.756 19.3132 445.588 19.3132 450.316C19.3132 455.044 43.1882 458.877 72.6394 458.877Z" fill="#9DB5B2"/>
<path d="M74.3579 286.317H70.9265V363.539H74.3579V286.317Z" fill="#535461"/>
<path d="M95.9259 363.309L95.707 366.788L95.4059 371.711L95.2801 373.757L94.9736 378.68L94.8423 380.726L94.5413 385.649L91.077 441.482C90.9293 443.884 89.8704 446.14 88.1161 447.789C86.3619 449.437 84.0445 450.355 81.6366 450.355H63.6478C61.2332 450.356 58.9098 449.433 57.1543 447.776C55.3988 446.119 54.3443 443.853 54.2073 441.444L50.7431 385.61L50.4421 380.687L50.3162 378.642L50.0043 373.718L49.8784 371.673L49.5774 366.749L49.3585 363.27C49.3206 362.604 49.4189 361.936 49.6474 361.308C49.8758 360.681 50.2296 360.106 50.6873 359.619C51.145 359.133 51.697 358.744 52.3097 358.478C52.9223 358.211 53.5829 358.072 54.2511 358.068H91.0387C91.7099 358.072 92.3732 358.213 92.988 358.482C93.6027 358.752 94.1559 359.144 94.6136 359.635C95.0712 360.125 95.4237 360.704 95.6494 361.336C95.875 361.968 95.9691 362.639 95.9259 363.309Z" fill="#3F3D56"/>
<path d="M95.7068 366.782L95.4003 371.694H49.8782L49.5718 366.782H95.7068Z" fill="#9D9CB5"/>
<path d="M95.2745 373.74L94.9735 378.652H50.3106L50.0042 373.74H95.2745Z" fill="#9D9CB5"/>
<path d="M94.8422 380.704L94.5412 385.61H50.743L50.4365 380.704H94.8422Z" fill="#9D9CB5"/>
<path d="M44.3563 315.265C64.3426 329.717 72.6666 352.319 72.6666 352.319C72.6666 352.319 48.5867 351.493 28.5949 337.041C8.60301 322.589 0.268066 300.003 0.268066 300.003C0.268066 300.003 24.348 300.813 44.3563 315.265Z" fill="#9DB5B2"/>
<path d="M0.268066 300.003C0.268066 300.003 25.262 313.87 33.2795 325.352C41.297 336.833 72.6448 352.33 72.6448 352.33" stroke="#535461" stroke-width="2" stroke-miterlimit="10"/>
<path d="M57.2337 286.153C68.1135 294.013 72.6449 306.316 72.6449 306.316C72.6449 306.316 59.5104 305.867 48.658 298.007C37.8056 290.146 33.2468 277.838 33.2468 277.838C33.2468 277.838 46.3595 278.287 57.2337 286.153Z" fill="#9DB5B2"/>
<path d="M33.2468 277.838C33.2468 277.838 46.852 285.387 51.2192 291.634C55.5865 297.881 72.6449 306.316 72.6449 306.316" stroke="#535461" stroke-width="2" stroke-miterlimit="10"/>
<path d="M88.45 305.692C75.9558 319.417 73.3125 337.353 73.3125 337.353C73.3125 337.353 90.9292 333.032 103.412 319.302C115.896 305.572 118.55 287.641 118.55 287.641C118.55 287.641 100.944 291.968 88.45 305.692Z" fill="#9DB5B2"/>
<path d="M118.561 287.646C118.561 287.646 102.285 301.715 98.1477 311.408C94.0103 321.101 73.3125 337.353 73.3125 337.353" stroke="#535461" stroke-width="2" stroke-miterlimit="10"/>
</g>
<defs>
<linearGradient id="paint0_linear_24_1536" x1="254.771" y1="457.061" x2="254.771" y2="141.08" gradientUnits="userSpaceOnUse">
<stop stop-color="#808080" stop-opacity="0.25"/>
<stop offset="0.54" stop-color="#808080" stop-opacity="0.12"/>
<stop offset="1" stop-color="#808080" stop-opacity="0.1"/>
</linearGradient>
<linearGradient id="paint1_linear_24_1536" x1="471.962" y1="470.895" x2="471.962" y2="134.297" gradientUnits="userSpaceOnUse">
<stop stop-color="#808080" stop-opacity="0.25"/>
<stop offset="0.54" stop-color="#808080" stop-opacity="0.12"/>
<stop offset="1" stop-color="#808080" stop-opacity="0.1"/>
</linearGradient>
<clipPath id="clip0_24_1536">
<rect width="639" height="472" fill="white"/>
</clipPath>
</defs>
</svg>
