<svg width="21" height="21" viewBox="0 0 21 21" fill="none" xmlns="http://www.w3.org/2000/svg">
<path d="M18.375 8.75V3.5C18.375 2.5375 17.5875 1.75 16.625 1.75H2.625C1.6625 1.75 0.88375 2.5375 0.88375 3.5L0.875 14C0.875 14.9625 1.6625 15.75 2.625 15.75H12.25V11.375C12.25 9.9225 13.4225 8.75 14.875 8.75H18.375ZM10.0887 9.33625C9.80875 9.51125 9.44125 9.51125 9.16125 9.33625L2.975 5.46875C2.88726 5.4195 2.81043 5.35295 2.74915 5.27315C2.68788 5.19334 2.64343 5.10193 2.6185 5.00445C2.59358 4.90697 2.58869 4.80544 2.60414 4.70602C2.61958 4.60659 2.65504 4.51134 2.70837 4.42601C2.7617 4.34069 2.83178 4.26707 2.91439 4.20962C2.99699 4.15217 3.09039 4.11207 3.18893 4.09176C3.28748 4.07145 3.38912 4.07135 3.48771 4.09145C3.5863 4.11156 3.67978 4.15147 3.7625 4.20875L9.625 7.875L15.4875 4.20875C15.5702 4.15147 15.6637 4.11156 15.7623 4.09145C15.8609 4.07135 15.9625 4.07145 16.0611 4.09176C16.1596 4.11207 16.253 4.15217 16.3356 4.20962C16.4182 4.26707 16.4883 4.34069 16.5416 4.42601C16.595 4.51134 16.6304 4.60659 16.6459 4.70602C16.6613 4.80544 16.6564 4.90697 16.6315 5.00445C16.6066 5.10193 16.5621 5.19334 16.5008 5.27315C16.4396 5.35295 16.3627 5.4195 16.275 5.46875L10.0887 9.33625Z" fill="#9DB5B2"/>
<path d="M19.25 12.25C18.7688 12.25 18.375 12.6437 18.375 13.125V15.75C18.375 16.7125 17.5875 17.5 16.625 17.5C15.6625 17.5 14.875 16.7125 14.875 15.75V11.8125C14.875 11.5675 15.0675 11.375 15.3125 11.375C15.5575 11.375 15.75 11.5675 15.75 11.8125V14.875C15.75 15.3562 16.1437 15.75 16.625 15.75C17.1063 15.75 17.5 15.3562 17.5 14.875V11.8125C17.5 11.2323 17.2695 10.6759 16.8593 10.2657C16.4491 9.85547 15.8927 9.625 15.3125 9.625C14.7323 9.625 14.1759 9.85547 13.7657 10.2657C13.3555 10.6759 13.125 11.2323 13.125 11.8125V15.75C13.125 17.6838 14.6912 19.25 16.625 19.25C18.5588 19.25 20.125 17.6838 20.125 15.75V13.125C20.125 12.6437 19.7312 12.25 19.25 12.25Z" fill="#9DB5B2"/>
</svg>
