<svg width="83" height="83" viewBox="0 0 83 83" fill="none" xmlns="http://www.w3.org/2000/svg">
<path d="M30.4336 38.7334C26.7647 38.7334 23.2462 37.276 20.6519 34.6818C18.0577 32.0875 16.6002 28.5689 16.6002 24.9001V13.8334C16.6002 13.0997 16.8917 12.396 17.4106 11.8771C17.9294 11.3583 18.6331 11.0668 19.3669 11.0668H22.1336C22.8673 11.0668 23.571 10.7753 24.0899 10.2564C24.6087 9.73759 24.9002 9.03388 24.9002 8.30011C24.9002 7.56635 24.6087 6.86264 24.0899 6.34379C23.571 5.82493 22.8673 5.53345 22.1336 5.53345H19.3669C17.1656 5.53345 15.0545 6.40791 13.4979 7.96446C11.9414 9.52101 11.0669 11.6322 11.0669 13.8334V24.9001C11.0705 28.0257 11.8326 31.1038 13.288 33.8699C14.7433 36.636 16.8483 39.0075 19.4222 40.7808C21.8952 42.961 23.9007 45.6197 25.3177 48.5964C26.7347 51.5731 27.5338 54.806 27.6669 58.1001C27.6669 63.2365 29.7073 68.1625 33.3393 71.7944C36.9712 75.4264 41.8972 77.4668 47.0336 77.4668C52.1699 77.4668 57.0959 75.4264 60.7279 71.7944C64.3598 68.1625 66.4002 63.2365 66.4002 58.1001V54.9461C69.0083 54.2727 71.2812 52.6713 72.7929 50.442C74.3046 48.2126 74.9514 45.5085 74.612 42.8364C74.2726 40.1643 72.9703 37.7078 70.9493 35.9272C68.9282 34.1466 66.3271 33.1642 63.6336 33.1642C60.94 33.1642 58.3389 34.1466 56.3179 35.9272C54.2968 37.7078 52.9945 40.1643 52.6551 42.8364C52.3157 45.5085 52.9625 48.2126 54.4742 50.442C55.986 52.6713 58.2589 54.2727 60.8669 54.9461V58.1001C60.8669 61.7689 59.4095 65.2875 56.8152 67.8818C54.221 70.476 50.7024 71.9334 47.0336 71.9334C43.3647 71.9334 39.8462 70.476 37.2519 67.8818C34.6577 65.2875 33.2002 61.7689 33.2002 58.1001C33.3403 54.802 34.1481 51.5665 35.5747 48.5896C37.0014 45.6126 39.0172 42.9561 41.5002 40.7808C44.0639 39.0014 46.1581 36.6271 47.6036 33.8614C49.0492 31.0957 49.8029 28.0208 49.8002 24.9001V13.8334C49.8002 11.6322 48.9258 9.52101 47.3692 7.96446C45.8127 6.40791 43.7015 5.53345 41.5002 5.53345H38.7336C37.9998 5.53345 37.2961 5.82493 36.7772 6.34379C36.2584 6.86264 35.9669 7.56635 35.9669 8.30011C35.9669 9.03388 36.2584 9.73759 36.7772 10.2564C37.2961 10.7753 37.9998 11.0668 38.7336 11.0668H41.5002C42.234 11.0668 42.9377 11.3583 43.4566 11.8771C43.9754 12.396 44.2669 13.0997 44.2669 13.8334V24.9001C44.2669 26.7167 43.9091 28.5156 43.2139 30.1939C42.5187 31.8722 41.4997 33.3972 40.2152 34.6818C38.9307 35.9663 37.4057 36.9853 35.7273 37.6805C34.049 38.3756 32.2502 38.7334 30.4336 38.7334ZM63.6336 49.8001C62.166 49.8001 60.7586 49.2171 59.7209 48.1794C58.6832 47.1417 58.1002 45.7343 58.1002 44.2668C58.1002 42.7992 58.6832 41.3918 59.7209 40.3541C60.7586 39.3164 62.166 38.7334 63.6336 38.7334C65.1011 38.7334 66.5085 39.3164 67.5462 40.3541C68.5839 41.3918 69.1669 42.7992 69.1669 44.2668C69.1669 45.7343 68.5839 47.1417 67.5462 48.1794C66.5085 49.2171 65.1011 49.8001 63.6336 49.8001Z" fill="white"/>
</svg>
