<svg width="37" height="80" viewBox="0 0 37 80" fill="none" xmlns="http://www.w3.org/2000/svg">
<path fill-rule="evenodd" clip-rule="evenodd" d="M5.12308 17.1428V19.98V19.9657L5.10885 19.9942C5.08039 20.0857 4.98647 20.3714 4.69331 20.8914C4.24408 21.6544 3.73792 22.3822 3.17916 23.0685C2.4514 23.9816 1.68014 24.8588 0.868085 25.6971L0.833928 25.7343L0.828239 25.74L7.27912e-06 26.5771V61.4285C-0.00363714 65.2241 1.36131 68.8927 3.84266 71.7565C6.324 74.6204 9.75403 76.4859 13.499 77.0084C17.244 77.5309 21.0508 76.675 24.216 74.599C27.3812 72.5229 29.691 69.367 30.7185 65.7143H24.6562C23.6876 67.7668 22.0517 69.4272 20.0179 70.4222C17.984 71.4172 15.6733 71.6876 13.466 71.1887C11.2587 70.6899 9.28637 69.4516 7.87347 67.6777C6.46058 65.9037 5.69133 63.6998 5.69231 61.4285V28.8943L5.74354 28.8371C6.25301 28.2828 6.93893 27.5028 7.63624 26.6257C8.31932 25.7628 9.05932 24.7428 9.64278 23.7142C9.78508 23.4571 9.94162 23.1714 10.0896 22.8571H21.0274C21.6962 24.6743 22.8632 26.2 23.7682 27.2257C24.4342 27.9828 25.0945 28.6171 25.6154 29.0857V31.4285H31.3077V26.3314L30.1806 25.4771H30.1778L30.1522 25.4571C29.3901 24.8458 28.6808 24.171 28.0318 23.44C26.8193 22.06 26.1846 20.8143 26.1846 20V17.1428H5.12308Z" fill="white"/>
<path d="M37 51.6857C37 56.28 33.1776 60 28.4616 60C23.7455 60 19.9231 56.28 19.9231 51.6857C19.9231 44.4171 28.4616 37.1429 28.4616 37.1429C28.4616 37.1429 37 44.4171 37 51.6857ZM2.84619 0H28.4616V11.4286H2.84619V0Z" fill="white"/>
</svg>
