<svg width="134" height="134" viewBox="0 0 134 134" fill="none" xmlns="http://www.w3.org/2000/svg">
<g filter="url(#filter0_d_123_1807)">
<path d="M55.0037 63C61.0464 63 65.5037 58.5427 65.5037 52.5C65.5037 46.4572 61.0464 42 55.0037 42C48.9609 42 44.5037 46.4572 44.5037 52.5C44.5037 58.5427 48.9557 63 55.0037 63Z" fill="white"/>
<path d="M109 21H25C19.2092 21 14.5 25.4152 14.5 30.8438V95.1562C14.5 100.585 19.2092 105 25 105H109C114.791 105 119.5 100.585 119.5 95.1562V30.8438C119.5 25.4152 114.791 21 109 21ZM109 94.5L25 94.4423V31.5L109 31.5578V94.5Z" fill="white"/>
<path d="M77.5 47.25H98.5V57.75H77.5V47.25ZM82.75 68.25H98.5V78.75H82.75V68.25ZM74.5075 81.564C74.5075 74.3505 65.7085 66.9375 55.0037 66.9375C44.299 66.9375 35.5 74.3505 35.5 81.564V84H74.5075V81.564Z" fill="white"/>
</g>
<defs>
<filter id="filter0_d_123_1807" x="0" y="0" width="134" height="134" filterUnits="userSpaceOnUse" color-interpolation-filters="sRGB">
<feFlood flood-opacity="0" result="BackgroundImageFix"/>
<feColorMatrix in="SourceAlpha" type="matrix" values="0 0 0 0 0 0 0 0 0 0 0 0 0 0 0 0 0 0 127 0" result="hardAlpha"/>
<feOffset dy="4"/>
<feGaussianBlur stdDeviation="2"/>
<feComposite in2="hardAlpha" operator="out"/>
<feColorMatrix type="matrix" values="0 0 0 0 0 0 0 0 0 0 0 0 0 0 0 0 0 0 0.25 0"/>
<feBlend mode="normal" in2="BackgroundImageFix" result="effect1_dropShadow_123_1807"/>
<feBlend mode="normal" in="SourceGraphic" in2="effect1_dropShadow_123_1807" result="shape"/>
</filter>
</defs>
</svg>
