<svg width="87" height="87" viewBox="0 0 87 87" fill="none" xmlns="http://www.w3.org/2000/svg">
<path d="M14.4999 65.25C16.9286 71.9563 22.0036 79.75 43.4999 79.75C52.0549 79.75 61.8786 79.4962 68.8749 72.5C72.4999 68.875 79.7499 61.625 79.7499 39.875C79.7499 18.125 72.4999 14.5 65.2499 14.5C60.2474 14.5 54.3749 14.5 50.7499 21.75V21.8588C50.0974 23.0419 49.0975 23.9961 47.8851 24.5926C46.6728 25.189 45.3066 25.3989 43.9711 25.1937C39.8749 24.6862 39.8749 23.0913 39.8749 21.75V7.25H32.6249V21.75C32.5849 23.189 32.8388 24.621 33.3712 25.9585C33.9036 27.296 34.7032 28.5109 35.7211 29.5288C36.739 30.5467 37.9539 31.3463 39.2914 31.8787C40.6289 32.411 42.0609 32.665 43.4999 32.625C47.1249 32.625 47.1249 39.0775 47.1249 43.5C47.1249 50.3512 45.3124 55.3175 39.8749 58C31.5011 62.1688 23.1636 61.625 20.3361 56.0788C20.045 55.205 19.5367 54.4195 18.8589 53.796C18.1811 53.1725 17.356 52.7313 16.461 52.5139C15.5661 52.2965 14.6306 52.31 13.7423 52.5531C12.854 52.7962 12.0419 53.2609 11.3824 53.9038C9.84746 55.335 8.6729 57.109 7.95468 59.081C7.23646 61.053 6.99495 63.1669 7.2499 65.25V79.75H14.4999V65.25Z" fill="white"/>
</svg>
