<svg width="16" height="15" viewBox="0 0 16 15" fill="none" xmlns="http://www.w3.org/2000/svg">
<path d="M7.55556 0C8.29167 0 8.88889 0.62959 8.88889 1.40625V10.7754C7.82778 11.4023 7.11111 12.5977 7.11111 13.9717C7.11111 14.3496 7.21111 14.7012 7.38611 15H1.33333C0.596944 15 0 14.3701 0 13.5938V11.25H4C4.24444 11.25 4.44444 11.0391 4.44444 10.7812C4.44444 10.5234 4.24444 10.3125 4 10.3125H0V8.4375H4C4.24444 8.4375 4.44444 8.22656 4.44444 7.96875C4.44444 7.71094 4.24444 7.5 4 7.5H0V1.40625C0 0.62959 0.596944 0 1.33333 0H7.55556ZM4.22222 1.875C3.97778 1.875 3.77778 2.08477 3.77778 2.34375V3.04688H3.11111C2.86667 3.04688 2.66667 3.25781 2.66667 3.51562V3.98438C2.66667 4.24219 2.86667 4.45312 3.11111 4.45312H3.77778V5.15625C3.77778 5.41406 3.97778 5.625 4.22222 5.625H4.66667C4.91111 5.625 5.11111 5.41406 5.11111 5.15625V4.45312H5.77778C6.02222 4.45312 6.22222 4.24219 6.22222 3.98438V3.51562C6.22222 3.25781 6.02222 3.04688 5.77778 3.04688H5.11111V2.34375C5.11111 2.08477 4.91111 1.875 4.66667 1.875H4.22222ZM14.2222 7.96875C14.2222 9.26367 13.2278 10.3125 12 10.3125C10.7722 10.3125 9.77778 9.26367 9.77778 7.96875C9.77778 6.67383 10.7722 5.625 12 5.625C13.2278 5.625 14.2222 6.67383 14.2222 7.96875ZM8 13.9775C8 12.4717 9.15833 11.25 10.5861 11.25H13.4139C14.8417 11.25 16 12.4717 16 13.9775C16 14.543 15.5667 15 15.0306 15H8.96944C8.43333 15 8 14.543 8 13.9775Z" fill="#3B413C"/>
</svg>
