<svg width="75" height="75" viewBox="0 0 75 75" fill="none" xmlns="http://www.w3.org/2000/svg">
<path fill-rule="evenodd" clip-rule="evenodd" d="M49.135 35.1779C51.5228 35.1863 53.8663 34.5342 55.906 33.294C57.9756 34.5315 60.3488 35.1694 62.7604 35.1363L70.5106 32.5946C72.692 30.9709 74.192 28.7185 74.7545 26.2185C75.3165 23.7065 74.9056 21.0751 73.6045 18.8536C72.2982 16.5908 70.1669 14.8006 67.573 13.7847C66.9793 11.3638 65.4876 9.19676 63.3417 7.64592L55.7789 5.26035H54.9248C53.2435 3.04546 50.7184 1.46549 47.8287 0.822254L31.6137 0C28.9177 0.201921 26.376 1.21569 24.3989 2.87893C23.4604 2.67939 22.504 2.57616 21.5446 2.57085C19.2437 2.56846 16.9834 3.17617 14.9944 4.33193C13.0464 5.47684 11.5047 7.10677 10.561 9.02398L4.39828 12.9583C2.8849 14.7768 2.05249 17.0651 2.04404 19.4302C2.02946 20.4044 2.17322 21.3744 2.46906 22.3112C0.854427 24.2034 -0.0164323 26.5265 0.000234868 28.9163C-0.00393192 31.6849 1.16902 34.3515 3.2795 36.3665C3.44825 38.3483 4.21703 40.253 5.5004 41.8704C6.83012 43.5222 8.57611 44.7904 10.5589 45.5446C12.8499 46.8253 14.8264 48.6003 16.3445 50.7404C17.8017 52.7997 18.7381 55.181 19.0737 57.6806H24.7405V41.5603L19.2341 36.6725L15.5111 40.3945C15.1202 40.7849 14.5901 41.004 14.0374 41.0038C13.4847 41.0037 12.9548 40.7841 12.5641 40.3935C12.1735 40.0029 11.9541 39.4732 11.9543 38.921C11.9545 38.3688 12.1743 37.8393 12.5652 37.449L16.907 33.1129L15.584 25.8417L9.69635 22.9003C9.2021 22.6532 8.82631 22.2201 8.65166 21.6962C8.47701 21.1723 8.51781 20.6006 8.76507 20.1067C9.01234 19.6129 9.44582 19.2374 9.97016 19.0629C10.4945 18.8884 11.0667 18.9292 11.561 19.1762L17.3257 22.0572L24.5364 17.4713L22.3155 11.5511C22.1332 11.0371 22.1601 10.4721 22.3904 9.97771C22.6206 9.48329 23.0359 9.0989 23.5468 8.90719C24.0578 8.71547 24.6236 8.73174 25.1227 8.9525C25.6217 9.17326 26.0142 9.58088 26.2156 10.0877L28.5865 16.4035H31.5012L32.8554 13.7015L30.8741 9.08435C30.6655 8.57863 30.6646 8.01123 30.8715 7.50483C31.0783 6.99843 31.4763 6.59372 31.9795 6.3782C32.4826 6.16268 33.0504 6.15366 33.5601 6.35311C34.0698 6.55255 34.4805 6.94442 34.7033 7.444L36.4242 11.4554L43.2994 12.7043C43.3376 12.6681 43.3772 12.6334 43.4182 12.6003L47.6808 9.19468C48.1129 8.85872 48.66 8.70623 49.2038 8.77018C49.7475 8.83413 50.2442 9.10939 50.5865 9.53641C50.9287 9.96343 51.0889 10.5079 51.0325 11.052C50.9761 11.5962 50.7076 12.0963 50.285 12.4441L47.2183 14.8963L50.8205 19.5239L52.233 16.7011C52.4059 16.3554 52.6717 16.0646 53.0007 15.8613C53.3296 15.658 53.7088 15.5502 54.0956 15.55H59.2103C59.7628 15.55 60.2928 15.7693 60.6835 16.1597C61.0742 16.5501 61.2937 17.0795 61.2937 17.6316C61.2937 18.1837 61.0742 18.7132 60.6835 19.1036C60.2928 19.494 59.7628 19.7133 59.2103 19.7133H55.3831L54.5102 21.4598L58.8103 22.4132C58.977 22.4507 59.1374 22.5089 59.2895 22.5839L62.6979 24.2867C62.9428 24.4089 63.1612 24.5781 63.3406 24.7846C63.52 24.9911 63.657 25.2309 63.7436 25.4903C63.8303 25.7497 63.865 26.0237 63.8457 26.2965C63.8264 26.5693 63.7536 26.8356 63.6313 27.0803C63.509 27.3249 63.3396 27.5431 63.1329 27.7224C62.9263 27.9017 62.6862 28.0385 62.4266 28.1251C61.9023 28.3 61.3299 28.2596 60.8354 28.0128L57.6561 26.4225L50.235 24.7759C49.7619 24.6702 49.3405 24.403 49.0433 24.0202L43.564 16.9842L36.7659 15.7498C36.6354 15.8714 36.4898 15.9757 36.3325 16.06L34.8721 18.9764V20.6604H37.9013C38.2252 20.6598 38.5448 20.7347 38.8347 20.879L45.6537 24.2867C45.8984 24.409 46.1166 24.5783 46.2959 24.7849C46.4751 24.9915 46.6119 25.2314 46.6983 25.4908C46.7848 25.7502 46.8193 26.0241 46.7999 26.2968C46.7804 26.5695 46.7074 26.8357 46.5849 27.0803C46.4625 27.3248 46.2931 27.5428 46.0863 27.7219C45.8795 27.901 45.6395 28.0377 45.3798 28.1241C45.1202 28.2105 44.8461 28.245 44.5732 28.2255C44.3002 28.2061 44.0337 28.1331 43.789 28.0108L37.4097 24.8238H34.8721V28.704C34.8721 29.2561 34.6526 29.7855 34.2619 30.1759C33.8712 30.5663 33.3412 30.7856 32.7887 30.7856C32.2361 30.7856 31.7062 30.5663 31.3155 30.1759C30.9248 29.7855 30.7053 29.2561 30.7053 28.704V20.5668H27.4302L19.7466 25.4503L21.0738 32.7361L28.2073 39.0706C28.4269 39.2659 28.6025 39.5055 28.7228 39.7735C28.8431 40.0415 28.9053 40.3319 28.9052 40.6256V57.6806H34.9846V46.1586C34.9894 44.089 35.6261 42.0701 36.8096 40.3716C38.0534 38.5943 39.7643 37.1946 41.7535 36.327C42.8994 35.9315 43.1786 35.4006 43.5244 34.7491C43.7536 34.3161 44.0119 33.829 44.5724 33.2919C45.0578 33.5938 45.4349 33.8581 45.762 34.0892C46.7766 34.8032 47.31 35.18 49.1371 35.18L49.135 35.1779ZM35.4179 66.6734H18.7508V62.5101H35.4179V66.6734ZM35.4179 75H18.7508V70.8367H35.4179V75Z" fill="white"/>
</svg>
