<svg width="220" height="618" viewBox="0 0 220 618" fill="none" xmlns="http://www.w3.org/2000/svg">
<path d="M143.457 95.0431L74.9545 95.7105C71.7347 79.8591 60.9164 38.2677 70.6592 26.9232C71.1033 22.6534 73.177 18.7195 76.4486 15.9402C79.7203 13.1609 83.9378 11.7505 88.2232 12.0026C98.8406 -4.6172 116.525 -2.12184 128.478 8.25797C140.508 12.4087 145.043 19.7828 143.457 29.7897C152.365 37.5877 154.009 47.0751 150.01 57.8746L143.457 95.0431Z" fill="#2F2E41"/>
<path d="M136.862 137.242L87.4396 130.399L77.5552 115.952C91.1713 106.921 95.9895 94.3056 89.7207 77.1749L123.936 76.4146C122.333 91.6696 127.378 103.481 141.424 110.63L136.862 137.242Z" fill="#FFB9B9"/>
<path d="M75.755 583.02L73.8652 608.855C73.7796 610.024 73.9451 611.198 74.3505 612.298C74.756 613.399 75.3919 614.399 76.2158 615.234C77.0397 616.068 78.0325 616.716 79.1276 617.135C80.2226 617.555 81.3946 617.735 82.565 617.664L95.835 616.86C96.4498 616.823 97.0489 616.65 97.5897 616.355C98.1304 616.06 98.5996 615.65 98.9638 615.153C99.328 614.656 99.5783 614.085 99.6969 613.481C99.8156 612.876 99.7996 612.253 99.6502 611.656L92.2843 582.193L75.755 583.02Z" fill="white"/>
<path d="M118.716 582.193L111.35 611.656C111.2 612.253 111.185 612.876 111.303 613.481C111.422 614.085 111.672 614.656 112.036 615.153C112.401 615.65 112.87 616.06 113.41 616.355C113.951 616.65 114.55 616.823 115.165 616.86L128.435 617.664C129.605 617.735 130.777 617.555 131.873 617.135C132.968 616.716 133.96 616.068 134.784 615.234C135.608 614.399 136.244 613.398 136.65 612.298C137.055 611.198 137.22 610.024 137.135 608.854L135.245 583.019L118.716 582.193Z" fill="white"/>
<path d="M136.102 586.606L118.194 584.809L100.366 394.239L93.6279 584.195L76.0339 583.565L46.3809 320.485H159.672L136.102 586.606Z" fill="#9DB5B2"/>
<path d="M108.729 89.3407C127.626 89.3407 142.945 74.0219 142.945 55.1252C142.945 36.2285 127.626 20.9097 108.729 20.9097C89.8325 20.9097 74.5137 36.2285 74.5137 55.1252C74.5137 74.0219 89.8325 89.3407 108.729 89.3407Z" fill="#FFB9B9"/>
<path d="M176.4 326.568L38.0171 328.089C58.5538 249.908 70.8386 177.284 49.4223 127.358L83.6378 110.63C100.136 127.838 118.509 126.064 138.383 109.109L171.077 117.473C165.478 182.944 167.988 253.064 176.4 326.568Z" fill="#9DB5B2"/>
<path d="M0 245.972L85.919 280.187L105.128 285.837C105.988 286.09 106.889 286.166 107.779 286.062C108.668 285.957 109.527 285.674 110.304 285.229C111.082 284.784 111.761 284.187 112.302 283.473C112.842 282.758 113.233 281.942 113.45 281.074C113.831 279.55 113.66 277.941 112.967 276.531C112.275 275.122 111.106 274.003 109.667 273.374L89.7207 267.261L29.6534 232.285L42.1992 199.21L15.9672 185.144L0 245.972Z" fill="#FFB9B9"/>
<path d="M0.760254 183.623C17.1072 190.001 30.109 200.885 40.2982 215.558L72.2327 169.177L49.4224 127.358L0.760254 183.623Z" fill="#9DB5B2"/>
<path d="M147.292 49.5799C133.405 46.0018 119.752 45.5105 106.479 50.0491C98.0247 54.1438 87.8715 53.7666 76.5801 50.3927V16.2559L137.539 17.8814L147.292 49.5799Z" fill="#2F2E41"/>
<path d="M85.6338 206.106C82.9471 206.109 80.3712 207.178 78.4714 209.077C76.5716 210.977 75.503 213.553 75.5 216.24L79.5 299.972C79.503 302.659 80.5716 305.235 82.4714 307.135C84.3712 309.034 86.9471 310.103 89.6338 310.106H135.366C138.053 310.103 140.629 309.034 142.529 307.135C144.428 305.235 145.497 302.659 145.5 299.972L149.5 216.24C149.497 213.553 148.428 210.977 146.529 209.077C144.629 207.178 142.053 206.109 139.366 206.106H85.6338Z" fill="#3F3D56"/>
<path d="M215.39 239.646L140.5 269.466L134.85 271.716C134.67 271.786 134.49 271.846 134.3 271.906L115.37 277.476C112.95 278.186 109.6 274.926 107.64 272.676C106.67 271.592 106.12 270.196 106.091 268.741C106.061 267.286 106.554 265.869 107.48 264.746C107.742 264.445 108.029 264.167 108.34 263.916C109.07 263.348 109.929 262.97 110.84 262.816L129.75 259.096C130.429 258.963 131.08 258.72 131.68 258.376L140.5 253.236L186.29 226.576C187.564 225.836 188.533 224.668 189.026 223.28C189.518 221.892 189.502 220.374 188.98 218.996L180.24 195.946C179.704 194.536 179.7 192.979 180.228 191.565C180.756 190.152 181.781 188.979 183.11 188.266L197.59 180.506C198.418 180.062 199.335 179.811 200.273 179.773C201.212 179.735 202.146 179.91 203.007 180.286C203.868 180.661 204.632 181.227 205.242 181.941C205.853 182.655 206.293 183.498 206.53 184.406L219.1 232.286C219.487 233.754 219.323 235.313 218.639 236.669C217.956 238.025 216.8 239.084 215.39 239.646Z" fill="#FFB9B9"/>
<path d="M219.74 175.259C203.393 181.637 190.391 192.521 180.202 207.194L148.267 160.813L171.077 117.473L219.74 175.259Z" fill="#9DB5B2"/>
<path d="M131.5 85.5785C116.532 91.8046 100.837 91.5518 84.5 85.5785C89.2537 77.4645 82.148 71.1096 78.5 62.9187L139.5 61.106C134.835 68.2216 127.952 76.6285 131.5 85.5785Z" fill="white"/>
<path d="M138.854 62.4598L138.146 61.7528L139.146 60.7528L145.12 53.7808L145.88 54.4308L139.88 61.4308L138.854 62.4598Z" fill="white"/>
<path d="M74.3202 58.2221L73.6797 58.9907L79.6797 63.9907L80.3202 63.2221L74.3202 58.2221Z" fill="white"/>
<path d="M140.577 68.339L130.075 84.8374L130.919 85.3745L141.421 68.8761L140.577 68.339Z" fill="white"/>
<path d="M75.422 68.338L74.5781 68.875L85.0781 85.375L85.922 84.838L75.422 68.338Z" fill="white"/>
<path d="M142.5 251.821V269.938L136.193 272.449C135.992 272.528 135.791 272.594 135.579 272.661L114.449 278.879C111.748 279.671 108.008 276.032 105.82 273.521C104.737 272.311 104.124 270.752 104.091 269.128C104.058 267.504 104.608 265.922 105.642 264.669C105.934 264.333 106.255 264.022 106.602 263.743C107.416 263.109 108.375 262.687 109.392 262.515L130.5 258.362C131.258 258.214 131.985 257.942 132.655 257.559L142.5 251.821Z" fill="white"/>
<path d="M151.64 187.202H148.026C148.026 136.091 137.502 100.473 127.247 100.473L126.344 96.8594C135.541 96.8594 141.404 111.683 144.703 124.12C149.176 140.979 151.64 163.382 151.64 187.202Z" fill="#3F3D56"/>
<path d="M68.5248 174.554H64.9111C64.9111 127.745 75.5074 98.6665 91.1105 98.6665L90.207 102.28C79.4144 102.28 68.5248 124.628 68.5248 174.554Z" fill="#3F3D56"/>
<path d="M149.833 197.14C154.822 197.14 158.867 193.095 158.867 188.106C158.867 183.116 154.822 179.071 149.833 179.071C144.843 179.071 140.799 183.116 140.799 188.106C140.799 193.095 144.843 197.14 149.833 197.14Z" fill="#3F3D56"/>
<path d="M54.0697 196.236H50.4561C50.4561 183.284 57.7509 172.747 66.7177 172.747V176.361C59.7435 176.361 54.0697 185.277 54.0697 196.236Z" fill="#3F3D56"/>
<path d="M82.9794 196.236H79.3657C79.3657 185.277 73.692 176.361 66.7178 176.361V172.747C75.6846 172.747 82.9794 183.284 82.9794 196.236Z" fill="#3F3D56"/>
<path d="M81.1728 200.753C83.1686 200.753 84.7865 199.135 84.7865 197.14C84.7865 195.144 83.1686 193.526 81.1728 193.526C79.177 193.526 77.5591 195.144 77.5591 197.14C77.5591 199.135 79.177 200.753 81.1728 200.753Z" fill="#3F3D56"/>
<path d="M52.2631 200.753C54.2589 200.753 55.8768 199.135 55.8768 197.14C55.8768 195.144 54.2589 193.526 52.2631 193.526C50.2673 193.526 48.6494 195.144 48.6494 197.14C48.6494 199.135 50.2673 200.753 52.2631 200.753Z" fill="#3F3D56"/>
</svg>
