<svg width="31" height="75" viewBox="0 0 31 75" fill="none" xmlns="http://www.w3.org/2000/svg">
<path d="M4.37484 7.83342C4.37484 3.71716 7.67525 0.416748 11.7915 0.416748C15.9078 0.416748 19.2082 3.71716 19.2082 7.83342C19.2082 11.9497 15.9078 15.2501 11.7915 15.2501C7.67525 15.2501 4.37484 11.9497 4.37484 7.83342ZM30.3332 41.2084C30.3163 38.8329 29.6053 36.5141 28.2875 34.5374C26.9698 32.5608 25.1028 31.0126 22.9165 30.0834C22.9165 23.9276 17.9473 18.9584 11.7915 18.9584C5.63567 18.9584 0.666504 23.9276 0.666504 30.0834V56.0418H8.08317V74.5834H19.2082V56.0418H30.3332V41.2084Z" fill="white"/>
</svg>
