<svg width="55" height="77" viewBox="0 0 55 77" fill="none" xmlns="http://www.w3.org/2000/svg">
<path d="M14.0201 47.6157L25.0751 61.9047L14.0201 76.0205L0.0693359 65.3065L14.0173 47.6157H14.0201ZM7.55484 12.7458L13.5086 4.922C15.7196 2.1995 18.9508 0.5 22.3526 0.5H32.2168C33.9191 0.5 35.6186 0.840999 37.1503 1.69075C38.6821 2.37 40.0433 3.56075 41.0636 4.922L47.1851 12.9163C51.9481 19.211 51.9481 27.8845 47.1851 34.0087L40.7226 42.1735L29.6676 27.8845L36.4711 21.961C36.4711 21.961 36.3006 21.961 36.3006 21.7905C35.1068 21.1167 33.7582 20.7651 32.3873 20.7703H22.3498C20.9913 20.7703 19.6301 21.279 18.4393 21.961L25.2428 27.8845L41.2313 48.2978L54.5001 65.3065L40.7226 76.0205L7.55484 33.8382C2.79184 27.714 2.79184 19.0405 7.55484 12.7458ZM15.8873 15.9797C16.0578 16.1475 16.0578 16.318 16.2283 16.4885C16.5693 16.1475 17.0808 15.9798 17.5896 15.8093C19.1213 15.1273 20.8208 14.6185 22.5231 14.6185H32.3873C34.0896 14.6185 35.7891 14.9568 37.3208 15.8093C37.6618 15.9798 38.1733 16.318 38.5116 16.4885C39.7023 14.789 40.3816 15.1575 39.8728 13.1143C39.6871 11.8604 39.1568 10.6827 38.3411 9.7125C37.594 8.79741 36.6675 8.04496 35.6186 7.5015C34.5646 6.9618 33.4008 6.6711 32.2168 6.65175H22.3526C19.9711 6.65175 17.7601 7.8425 16.2283 9.7125C14.3583 12.2645 14.0173 13.2572 15.8901 15.9797H15.8873Z" fill="white"/>
</svg>
