<svg width="53" height="75" viewBox="0 0 53 75" fill="none" xmlns="http://www.w3.org/2000/svg">
<path fill-rule="evenodd" clip-rule="evenodd" d="M9.77537 0.394257C9.46191 0.332636 9.13871 0.341004 8.82885 0.418764C8.51899 0.496524 8.23014 0.641757 7.98291 0.844087C7.73569 1.04642 7.5362 1.30085 7.3987 1.58921C7.2612 1.87757 7.18908 2.19273 7.1875 2.51219V3.92415C7.1875 4.49326 6.96142 5.03906 6.559 5.44149C6.15658 5.84391 5.61078 6.06999 5.04167 6.06999H2.89583C2.32672 6.06999 1.78092 6.29606 1.3785 6.69849C0.976079 7.10091 0.75 7.64671 0.75 8.21582V12.1813C0.75 12.7504 0.976079 13.2962 1.3785 13.6987C1.78092 14.1011 2.32672 14.3272 2.89583 14.3272H5.04167C5.61078 14.3272 6.15658 14.5532 6.559 14.9557C6.96142 15.3581 7.1875 15.9039 7.1875 16.473V18.8549C7.1875 19.8355 7.85271 20.6938 8.80546 20.9277C22.6804 24.3267 30.9548 24.3289 44.216 20.9385C44.6735 20.8203 45.0786 20.5534 45.3677 20.1797C45.6567 19.8059 45.8132 19.3466 45.8125 18.8742V16.473C45.8125 15.9039 46.0386 15.3581 46.441 14.9557C46.8434 14.5532 47.3892 14.3272 47.9583 14.3272H50.1042C50.6733 14.3272 51.2191 14.1011 51.6215 13.6987C52.0239 13.2962 52.25 12.7504 52.25 12.1813V8.21582C52.25 7.64671 52.0239 7.10091 51.6215 6.69849C51.2191 6.29606 50.6733 6.06999 50.1042 6.06999H47.9583C47.3892 6.06999 46.8434 5.84391 46.441 5.44149C46.0386 5.03906 45.8125 4.49326 45.8125 3.92415V2.51863C45.8125 1.15603 44.5572 0.141048 43.2203 0.400694C30.5513 2.8684 22.4401 2.83622 9.77537 0.394257ZM15.7708 8.4583C15.7708 7.88919 15.5448 7.34339 15.1423 6.94097C14.7399 6.53854 14.1941 6.31246 13.625 6.31246C13.0559 6.31246 12.5101 6.53854 12.1077 6.94097C11.7052 7.34339 11.4792 7.88919 11.4792 8.4583V14.8958C11.4792 15.4649 11.7052 16.0107 12.1077 16.4131C12.5101 16.8156 13.0559 17.0416 13.625 17.0416C14.1941 17.0416 14.7399 16.8156 15.1423 16.4131C15.5448 16.0107 15.7708 15.4649 15.7708 14.8958V8.4583ZM9.77537 26.1443C9.46191 26.0826 9.13871 26.091 8.82885 26.1688C8.51899 26.2465 8.23014 26.3918 7.98291 26.5941C7.73569 26.7964 7.5362 27.0508 7.3987 27.3392C7.2612 27.6276 7.18908 27.9427 7.1875 28.2622V29.6742C7.1875 30.2433 6.96142 30.7891 6.559 31.1915C6.15658 31.5939 5.61078 31.82 5.04167 31.82H2.89583C2.32672 31.82 1.78092 32.0461 1.3785 32.4485C0.976079 32.8509 0.75 33.3967 0.75 33.9658V37.9313C0.75 38.5004 0.976079 39.0462 1.3785 39.4487C1.78092 39.8511 2.32672 40.0772 2.89583 40.0772H5.04167C5.61078 40.0772 6.15658 40.3032 6.559 40.7057C6.96142 41.1081 7.1875 41.6539 7.1875 42.223V44.6049C7.1875 45.5855 7.85271 46.4438 8.80546 46.6777C22.6804 50.0767 30.9548 50.0789 44.216 46.6906C44.6738 46.5724 45.0793 46.3051 45.3683 45.931C45.6574 45.5568 45.8137 45.097 45.8125 44.6242V42.223C45.8125 41.6539 46.0386 41.1081 46.441 40.7057C46.8434 40.3032 47.3892 40.0772 47.9583 40.0772H50.1042C50.6733 40.0772 51.2191 39.8511 51.6215 39.4487C52.0239 39.0462 52.25 38.5004 52.25 37.9313V33.9658C52.25 33.3967 52.0239 32.8509 51.6215 32.4485C51.2191 32.0461 50.6733 31.82 50.1042 31.82H47.9583C47.3892 31.82 46.8434 31.5939 46.441 31.1915C46.0386 30.7891 45.8125 30.2433 45.8125 29.6742V28.2686C45.8125 26.906 44.5572 25.891 43.2203 26.1507C30.5513 28.6184 22.4401 28.5862 9.77537 26.1443ZM15.7708 34.2083C15.7708 33.6392 15.5448 33.0934 15.1423 32.691C14.7399 32.2885 14.1941 32.0625 13.625 32.0625C13.0559 32.0625 12.5101 32.2885 12.1077 32.691C11.7052 33.0934 11.4792 33.6392 11.4792 34.2083V40.6458C11.4792 41.2149 11.7052 41.7607 12.1077 42.1631C12.5101 42.5656 13.0559 42.7916 13.625 42.7916C14.1941 42.7916 14.7399 42.5656 15.1423 42.1631C15.5448 41.7607 15.7708 41.2149 15.7708 40.6458V34.2083ZM9.77537 51.8943C9.46191 51.8326 9.13871 51.841 8.82885 51.9188C8.51899 51.9965 8.23014 52.1418 7.98291 52.3441C7.73569 52.5464 7.5362 52.8008 7.3987 53.0892C7.2612 53.3776 7.18908 53.6927 7.1875 54.0122V55.4242C7.1875 55.9933 6.96142 56.5391 6.559 56.9415C6.15658 57.3439 5.61078 57.57 5.04167 57.57H2.89583C2.32672 57.57 1.78092 57.7961 1.3785 58.1985C0.976079 58.6009 0.75 59.1467 0.75 59.7158V63.6813C0.75 64.2504 0.976079 64.7962 1.3785 65.1987C1.78092 65.6011 2.32672 65.8272 2.89583 65.8272H5.04167C5.61078 65.8272 6.15658 66.0532 6.559 66.4557C6.96142 66.8581 7.1875 67.4039 7.1875 67.973V70.3549C7.1875 71.3355 7.85271 72.1938 8.80546 72.4277C22.6804 75.8267 30.9548 75.8289 44.216 72.4385C44.6735 72.3204 45.0786 72.0534 45.3677 71.6796C45.6567 71.3059 45.8132 70.8466 45.8125 70.3742V67.973C45.8125 67.4039 46.0386 66.8581 46.441 66.4557C46.8434 66.0532 47.3892 65.8272 47.9583 65.8272H50.1042C50.6733 65.8272 51.2191 65.6011 51.6215 65.1987C52.0239 64.7962 52.25 64.2504 52.25 63.6813V59.7158C52.25 59.1467 52.0239 58.6009 51.6215 58.1985C51.2191 57.7961 50.6733 57.57 50.1042 57.57H47.9583C47.3892 57.57 46.8434 57.3439 46.441 56.9415C46.0386 56.5391 45.8125 55.9933 45.8125 55.4242V54.0186C45.8125 52.656 44.5572 51.641 43.2203 51.9007C30.5513 54.3684 22.4401 54.3362 9.77537 51.8943ZM15.7708 59.9583C15.7708 59.3892 15.5448 58.8434 15.1423 58.441C14.7399 58.0385 14.1941 57.8125 13.625 57.8125C13.0559 57.8125 12.5101 58.0385 12.1077 58.441C11.7052 58.8434 11.4792 59.3892 11.4792 59.9583V66.3958C11.4792 66.9649 11.7052 67.5107 12.1077 67.9131C12.5101 68.3156 13.0559 68.5416 13.625 68.5416C14.1941 68.5416 14.7399 68.3156 15.1423 67.9131C15.5448 67.5107 15.7708 66.9649 15.7708 66.3958V59.9583Z" fill="white"/>
</svg>
