<svg width="115" height="121" viewBox="0 0 115 121" fill="none" xmlns="http://www.w3.org/2000/svg">
<g clip-path="url(#clip0_123_1797)">
<path d="M46.7999 98.6523C45.5999 98.6523 44.7999 99.8554 44.7999 101.861C44.7999 103.465 45.5999 105.069 47.1999 105.069C48.3999 105.069 49.1999 103.866 49.1999 101.861C49.1999 100.256 48.3999 98.6523 46.7999 98.6523ZM14.7999 98.6523C14.7999 99.0533 14.3999 99.8554 14.3999 100.256L13.9999 102.262H15.9999L15.5999 100.256C15.1999 99.8554 15.1999 99.4544 14.7999 98.6523ZM7.1999 98.6523H6.3999V101.459H7.1999C8.3999 101.459 8.7999 101.058 8.7999 99.8554C8.7999 98.6523 8.3999 98.6523 7.1999 98.6523ZM37.9999 98.6523H37.1999V101.459H37.9999C39.1999 101.459 39.5999 101.058 39.5999 99.8554C39.5999 98.6523 38.7999 98.6523 37.9999 98.6523ZM55.5999 98.6523H54.7999V101.058H55.5999C56.7999 101.058 57.1999 100.657 57.1999 99.8554C57.1999 99.0533 56.3999 98.6523 55.5999 98.6523ZM115.6 29.2749L57.1999 0.401032C56.8664 0.1908 56.4921 0.0542924 56.1018 0.000619715C55.7115 -0.0530529 55.3144 -0.0226563 54.9367 0.0897809C54.5591 0.202218 54.2098 0.39411 53.912 0.65265C53.6142 0.91119 53.3749 1.23043 53.2099 1.58907L53.2049 1.60411V2.00513L52.0049 4.01026L45.2049 18.0462H69.6849C73.1749 18.0462 76.0049 20.8834 76.0049 24.3824V24.4676V24.4626V116.698C76.4049 116.297 76.8049 115.896 76.8049 115.495L116.805 33.2851C117.002 32.9476 117.128 32.573 117.175 32.1846C117.222 31.7962 117.189 31.4023 117.078 31.0273C116.967 30.6523 116.78 30.3041 116.529 30.0044C116.278 29.7047 115.969 29.4598 115.62 29.2849L115.605 29.2799L115.6 29.2749ZM45.9999 73.3877C43.3137 72.4649 40.5111 71.9266 37.6749 71.7886L37.5999 71.7836V83.4133C39.6454 82.4905 41.4591 81.1207 42.9082 79.4042C44.3573 77.6877 45.4051 75.668 45.9749 73.493L45.9999 73.3877ZM47.1999 48.5241C44.2704 49.5981 41.1741 50.1429 38.0549 50.1332L37.5799 50.1282H37.6049V56.5446H48.4049C48.3704 53.7558 47.948 50.9854 47.1499 48.3136L47.2049 48.5241H47.1999ZM37.5999 35.6913V46.519L37.9749 46.524C40.8699 46.524 43.6299 45.9325 46.1349 44.8647L45.9999 44.9149C45.4793 42.8138 44.448 40.8747 42.998 39.2705C41.548 37.6663 39.7243 36.447 37.6899 35.7214L37.5999 35.6913Z" fill="white"/>
<path d="M51.2001 70.9815C52.65 71.7786 53.7701 73.0318 54.385 74.5456L54.4001 74.5908C57.609 70.9158 59.5685 66.3126 59.995 61.4471L60 61.3569H52.4C52.6014 64.6786 52.1756 68.0086 51.1451 71.172L51.2001 70.9865V70.9815ZM19.6 77.799C20.86 78.9218 22.31 79.8642 23.895 80.566L24 80.6061C22.895 79.1023 21.95 77.3829 21.25 75.5432L21.2 75.3928C20.4559 76.0154 19.9043 76.838 19.61 77.7639L19.6 77.799ZM51.6 39.7015C50.1 38.5235 48.4051 37.3355 46.6451 36.2377L46.4 36.0923C47.825 37.8217 49.035 39.8068 49.94 41.9523L50 42.1077C50.8 42.1077 51.6 40.9046 51.6 39.7015ZM47.2 80.6061C48.745 79.8693 50.065 78.9268 51.2001 77.799C51.1337 77.3054 50.9567 76.8334 50.6821 76.4183C50.4076 76.0033 50.0428 75.6561 49.6151 75.4028L49.6001 75.3928C49.19 77.3929 48.35 79.1474 47.18 80.6312L47.2 80.6061ZM52.8001 56.9456H60.4C59.8753 51.9918 58.0633 47.2626 55.1451 43.2305L55.2001 43.3108C54.4397 44.8656 53.1906 46.1268 51.6451 46.8999L51.6 46.92C52 50.1282 52.4001 53.3364 52.8001 56.9456ZM48.4001 61.3569H37.6V67.3723C40.9588 67.4574 44.2736 68.1591 47.3801 69.4426L47.2 69.3774C47.9673 66.7791 48.3711 64.0866 48.4001 61.377V61.3569ZM23.6 37.2954C22.1289 37.8569 20.7693 38.6768 19.585 39.7166L19.6 39.7015C19.6297 40.1614 19.7506 40.6107 19.9558 41.023C20.161 41.4353 20.4464 41.8024 20.795 42.1027L20.8 42.1077C21.44 40.2479 22.395 38.6438 23.61 37.2803L23.6 37.2954ZM19.6 46.519C18.3574 45.6665 17.2812 44.5927 16.425 43.3509L16.4 43.3108C13.1719 47.2855 11.2212 52.1477 10.805 57.2564L10.8 57.3466H18C18.08 53.5772 18.643 49.8337 19.675 46.2082L19.6 46.519ZM33.2 82.6113V71.7836C30.3766 72.0936 27.5869 72.659 24.865 73.4729L25.2 73.3877C25.6937 75.4406 26.6689 77.3457 28.0447 78.9447C29.4205 80.5437 31.157 81.7904 33.11 82.5812L33.2 82.6113Z" fill="white"/>
<path d="M71.2 25.6656V25.5453C71.1999 24.7758 70.9142 24.0339 70.3985 23.464C69.8827 22.8942 69.1739 22.5371 68.41 22.4624H3.19502C3.11502 22.4524 3.02002 22.4524 2.92502 22.4524C2.51504 22.4534 2.10977 22.5401 1.73506 22.7069C1.36035 22.8737 1.02443 23.1169 0.748742 23.4211C0.473051 23.7254 0.263638 24.0839 0.133864 24.4738C0.00408994 24.8637 -0.0431955 25.2764 -0.00497542 25.6857V25.6756V117.155C-0.00497542 118.904 1.41002 120.318 3.15002 120.318H67.995C68.8229 120.26 69.6021 119.904 70.1899 119.317C70.7776 118.729 71.1345 117.949 71.195 117.12V117.109L71.2 25.6656ZM6.80002 56.1436C7.40344 49.3478 10.3638 42.9791 15.1662 38.1452C19.9686 33.3113 26.3091 30.3179 33.085 29.6859L33.2 29.6759V29.2748H37.6V29.6759C41.3555 29.9721 45.016 31.007 48.3725 32.7215C51.7291 34.4361 54.7159 36.7966 57.1625 39.6684C59.6091 42.5402 61.4675 45.867 62.6317 49.4589C63.7959 53.0508 64.243 56.8374 63.9475 60.6025C63.652 64.3676 62.6198 68.0375 60.9096 71.4026C59.1995 74.7677 56.845 77.7622 53.9805 80.2151C51.1161 82.668 47.7978 84.5312 44.2151 85.6983C40.6324 86.8655 36.8555 87.3137 33.1 87.0175L33.2 87.0225C18.315 85.7042 6.73502 73.2674 6.73502 58.1136C6.73502 57.4218 6.76002 56.7301 6.80502 56.0533L6.80002 56.1436ZM7.20002 103.064H6.40002V106.272H4.40002V97.0482H7.20002C8.20609 96.9364 9.2156 97.2263 10.01 97.8552L10 97.8502C10.8 98.2513 10.8 99.0533 10.8 99.8553C10.7883 100.6 10.5035 101.313 10 101.86C9.65967 102.24 9.24327 102.543 8.77803 102.751C8.31278 102.958 7.80915 103.065 7.30002 103.064H7.19502H7.20002ZM16.8 106.272L16 103.866H13.6L12.8 106.272H10.8L13.6 97.0482H16.4L19.2 106.272H16.8ZM22.4 106.272C21.5682 106.336 20.7333 106.194 19.97 105.856L20 105.871L20.4 104.267C21.1613 104.598 21.9927 104.736 22.82 104.668H22.8C23.6 104.668 24 104.267 24 103.866C24 103.465 23.6 103.064 22.4 102.663C21.2 101.86 20 101.058 20 99.8553C20 98.2513 21.2 97.0482 23.6 97.0482C24.4319 96.9835 25.2667 97.1264 26.03 97.4642L26 97.4492L25.6 99.0533C24.997 98.6844 24.2829 98.5423 23.585 98.6523H23.6C22.8 98.6523 22.4 99.0533 22.4 99.4543C22.4 99.8553 22.8 100.256 24 100.657C25.35 100.908 26.365 102.061 26.4 103.46V103.465C26.4 105.069 25.2 106.272 22.4 106.272ZM30 106.272C29.1682 106.336 28.3333 106.194 27.57 105.856L27.6 105.871V104.267C28.3613 104.598 29.1927 104.736 30.02 104.668H30C30.8 104.668 31.6 104.267 31.6 103.866C31.6 103.465 31.2 103.064 30 102.663C29.3426 102.602 28.7314 102.298 28.2864 101.809C27.8414 101.321 27.5948 100.683 27.595 100.021L27.6 99.8453V99.8553C27.6 98.2513 28.8 97.0482 31.2 97.0482C32.0319 96.9835 32.8667 97.1264 33.63 97.4642L33.6 97.4492L33.2 99.0533C32.597 98.6844 31.8829 98.5423 31.185 98.6523H31.2C30.4 98.6523 30 99.0533 30 99.4543C30 99.8553 30.4 100.256 31.6 100.657C32.95 100.908 33.965 102.061 34 103.46V103.465C33.8319 104.368 33.3161 105.169 32.5639 105.694C31.8117 106.219 30.8835 106.427 29.98 106.272L30 106.277V106.272ZM40.8 102.261C40.4602 102.658 40.0115 102.945 39.5099 103.086C39.0083 103.228 38.4762 103.218 37.98 103.059L38 103.064H37.2V106.272H35.2V97.0482H38C39.0061 96.9364 40.0156 97.2263 40.81 97.8552L40.8 97.8502C41.6 98.2513 41.6 99.0533 41.6 99.8553C41.51 100.758 41.225 101.575 40.785 102.287L40.8 102.261ZM51.2 101.459C51.2814 102.043 51.2403 102.637 51.0794 103.203C50.9186 103.77 50.6415 104.297 50.2659 104.75C49.8903 105.203 49.4245 105.572 48.8982 105.834C48.372 106.096 47.797 106.245 47.21 106.272H46.4C45.2363 106.261 44.1232 105.793 43.3003 104.968C42.4774 104.143 42.0105 103.027 42 101.86V101.459C41.9113 100.296 42.2768 99.1444 43.0194 98.2465C43.762 97.3485 44.8236 96.7751 45.98 96.6471H46.42C47.5151 96.6472 48.5707 97.0567 49.3807 97.7955C50.1907 98.5343 50.6967 99.5494 50.8 100.642V100.662L51.2 101.459ZM57.2 106.272C56.8 105.47 56.8 105.069 56.4 104.267C56 103.064 55.6 102.663 54.8 102.663H54V106.272H52V97.0482H54.8C55.298 96.9622 55.8089 96.9902 56.2946 97.1299C56.7803 97.2697 57.2283 97.5176 57.605 97.8552L57.6 97.8502C58.1023 98.396 58.387 99.1078 58.4 99.8503V99.8553C58.3867 100.364 58.2311 100.859 57.9509 101.284C57.6706 101.708 57.2771 102.045 56.815 102.256L56.8 102.261C57.6 102.663 57.6 103.064 58 103.866C58.09 104.768 58.375 105.585 58.815 106.297L58.8 106.272H57.2ZM67.2 99.0533H64.8V106.272H62.8V99.0533H60V97.4492H66.8V99.0533H67.2Z" fill="white"/>
<path d="M19.6 70.9815C18.8472 67.7794 18.3209 64.528 18.025 61.2516L17.9999 60.9558H11.2C11.7294 65.782 13.5426 70.3769 16.45 74.2599L16.4 74.1897C17.27 72.9214 18.3349 71.8537 19.5599 71.0065L19.6 70.9815ZM33.1999 61.3569H22.4C22.405 64.2192 22.8449 66.9812 23.655 69.5729L23.5999 69.3774C26.6557 68.3299 29.8274 67.6599 33.045 67.3823L33.1999 67.3722V61.3569ZM33.1999 34.8892C28.7999 35.6912 25.9999 40.5035 24.7999 44.1128C27.2549 45.0953 30.1 45.8021 33.0649 46.1079L33.1999 46.1179V34.8892ZM33.1999 56.9456V50.5292C29.8411 50.4441 26.5264 49.7424 23.42 48.4589L23.5999 48.524C22.8008 51.2576 22.3967 54.092 22.4 56.9406V56.9456H33.1999Z" fill="white"/>
</g>
<defs>
<clipPath id="clip0_123_1797">
<rect width="115" height="120.308" fill="white"/>
</clipPath>
</defs>
</svg>
