<svg width="18" height="19" viewBox="0 0 18 19" fill="none" xmlns="http://www.w3.org/2000/svg">
<path d="M4.1875 10.9419C4.00516 10.9419 3.8303 11.0176 3.70137 11.1524C3.57243 11.2872 3.5 11.47 3.5 11.6606V14.5356C3.5 14.7262 3.57243 14.9091 3.70137 15.0438C3.8303 15.1786 4.00516 15.2544 4.1875 15.2544C4.36984 15.2544 4.54471 15.1786 4.67364 15.0438C4.80257 14.9091 4.875 14.7262 4.875 14.5356V14.297H5.33288C5.75845 14.297 6.16659 14.1202 6.46752 13.8056C6.76844 13.491 6.9375 13.0643 6.9375 12.6194C6.9375 12.1745 6.76844 11.7478 6.46752 11.4332C6.16659 11.1186 5.75845 10.9419 5.33288 10.9419H4.1875ZM5.33288 12.8595H4.875V12.3794H5.33288C5.39378 12.3794 5.45218 12.4047 5.49525 12.4497C5.53831 12.4947 5.5625 12.5558 5.5625 12.6194C5.5625 12.6831 5.53831 12.7442 5.49525 12.7892C5.45218 12.8342 5.39378 12.8595 5.33288 12.8595ZM11.7514 11.6592C11.7517 11.4688 11.8243 11.2864 11.9532 11.1519C12.0821 11.0174 12.2568 10.9419 12.4389 10.9419H13.8111C13.9935 10.9419 14.1683 11.0176 14.2973 11.1524C14.4262 11.2872 14.4986 11.47 14.4986 11.6606C14.4986 11.8512 14.4262 12.0341 14.2973 12.1688C14.1683 12.3036 13.9935 12.3794 13.8111 12.3794H13.1236V12.8609H13.8111C13.9935 12.8609 14.1683 12.9367 14.2973 13.0714C14.4262 13.2062 14.4986 13.3891 14.4986 13.5797C14.4986 13.7703 14.4262 13.9531 14.2973 14.0879C14.1683 14.2227 13.9935 14.2984 13.8111 14.2984H13.125V14.5342C13.1252 14.6286 13.1076 14.7221 13.0732 14.8093C13.0388 14.8966 12.9883 14.976 12.9246 15.0428C12.7959 15.1779 12.6212 15.254 12.4389 15.2544C12.2565 15.2547 12.0815 15.1794 11.9523 15.0449C11.8231 14.9103 11.7504 14.7277 11.75 14.5371V11.6592H11.7514ZM8.30975 10.9419C8.12742 10.9419 7.95255 11.0176 7.82362 11.1524C7.69468 11.2872 7.62225 11.47 7.62225 11.6606V14.5356C7.62225 14.7262 7.69468 14.9091 7.82362 15.0438C7.95255 15.1786 8.12742 15.2544 8.30975 15.2544H9C9.54701 15.2544 10.0716 15.0272 10.4584 14.6228C10.8452 14.2184 11.0625 13.67 11.0625 13.0981C11.0625 12.5262 10.8452 11.9778 10.4584 11.5734C10.0716 11.169 9.54701 10.9419 9 10.9419H8.30975ZM8.99725 13.8169V12.3794H9C9.18234 12.3794 9.35721 12.4551 9.48614 12.5899C9.61507 12.7247 9.6875 12.9075 9.6875 13.0981C9.6875 13.2887 9.61507 13.4716 9.48614 13.6063C9.35721 13.7411 9.18234 13.8169 9 13.8169H8.99725ZM10.375 0.87793H4.1875C3.64049 0.87793 3.11589 1.10511 2.72909 1.50948C2.3423 1.91386 2.125 2.46231 2.125 3.03418V8.1833C1.72248 8.33208 1.37405 8.60779 1.12777 8.97237C0.881485 9.33696 0.749493 9.77247 0.750001 10.2188V15.9731C0.750001 16.545 0.9673 17.0934 1.35409 17.4978C1.74089 17.9022 2.26549 18.1294 2.8125 18.1294H15.1875C15.7345 18.1294 16.2591 17.9022 16.6459 17.4978C17.0327 17.0934 17.25 16.545 17.25 15.9731V10.2174C17.2502 9.77127 17.1181 9.33609 16.8718 8.97179C16.6256 8.60749 16.2773 8.332 15.875 8.1833V6.62505H12.4375C11.8905 6.62505 11.3659 6.39788 10.9791 5.9935C10.5923 5.58913 10.375 5.04068 10.375 4.4688V0.87793ZM2.8125 9.49862H15.1875C15.3698 9.49862 15.5447 9.57434 15.6736 9.70914C15.8026 9.84393 15.875 10.0267 15.875 10.2174V15.9717C15.875 16.1623 15.8026 16.3451 15.6736 16.4799C15.5447 16.6147 15.3698 16.6904 15.1875 16.6904H2.8125C2.63017 16.6904 2.4553 16.6147 2.32637 16.4799C2.19743 16.3451 2.125 16.1623 2.125 15.9717V10.2174C2.125 10.0267 2.19743 9.84393 2.32637 9.70914C2.4553 9.57434 2.63017 9.49862 2.8125 9.49862ZM15.4708 5.18612H12.4375C12.2552 5.18612 12.0803 5.11039 11.9514 4.9756C11.8224 4.84081 11.75 4.65799 11.75 4.46737V1.30343L15.4708 5.18755V5.18612Z" fill="#C4C4C4"/>
</svg>
