<svg width="54" height="75" viewBox="0 0 54 75" fill="none" xmlns="http://www.w3.org/2000/svg">
<path fill-rule="evenodd" clip-rule="evenodd" d="M26.4011 22.9161C27.9326 22.9393 29.4535 22.6602 30.8752 22.0948C32.2969 21.5294 33.5911 20.6892 34.6824 19.623C35.7737 18.5567 36.6404 17.2858 37.2319 15.8842C37.8235 14.4826 38.1281 12.9782 38.1281 11.4587C38.1281 9.9392 37.8235 8.43485 37.2319 7.03323C36.6404 5.6316 35.7737 4.3607 34.6824 3.29448C33.5911 2.22826 32.2969 1.38802 30.8752 0.822658C29.4535 0.257297 27.9326 -0.021892 26.4011 0.00133936C23.3687 0.0473381 20.4762 1.27469 18.3482 3.41836C16.2201 5.56203 15.0273 8.45003 15.0273 11.4587C15.0273 14.4674 16.2201 17.3554 18.3482 19.4991C20.4762 21.6428 23.3687 22.8701 26.4011 22.9161Z" fill="white"/>
<path fill-rule="evenodd" clip-rule="evenodd" d="M26.4013 18.8983C27.3981 18.9171 28.3886 18.7385 29.315 18.3731C30.2414 18.0076 31.0851 17.4626 31.7967 16.7699C32.5083 16.0772 33.0736 15.2508 33.4595 14.3388C33.8453 13.4269 34.0441 12.4477 34.0441 11.4587C34.0441 10.4697 33.8453 9.49056 33.4595 8.57861C33.0736 7.66666 32.5083 6.84018 31.7967 6.14749C31.0851 5.4548 30.2414 4.9098 29.315 4.54436C28.3886 4.17891 27.3981 4.00035 26.4013 4.01911C24.4371 4.05609 22.5659 4.85615 21.1899 6.24732C19.814 7.63849 19.0432 9.5097 19.0432 11.4587C19.0432 13.4077 19.814 15.2789 21.1899 16.6701C22.5659 18.0613 24.4371 18.8613 26.4013 18.8983ZM37.949 11.46C37.9724 12.9794 37.691 14.4882 37.1211 15.8986C36.5513 17.3091 35.7043 18.593 34.6295 19.6756C33.5548 20.7582 32.2737 21.618 30.8609 22.2049C29.4481 22.7917 27.9317 23.094 26.4 23.094C24.8683 23.094 23.3519 22.7917 21.9391 22.2049C20.5263 21.618 19.2452 20.7582 18.1704 19.6756C17.0957 18.593 16.2487 17.3091 15.6788 15.8986C15.109 14.4882 14.8275 12.9794 14.851 11.46C14.8973 8.4517 16.1345 5.58214 18.2953 3.47099C20.4561 1.35985 23.3672 0.176514 26.4 0.176514C29.4328 0.176514 32.3438 1.35985 34.5047 3.47099C36.6655 5.58214 37.9027 8.4517 37.949 11.46ZM15.9012 39.5845V33.3329H36.9014V39.5845H15.9012ZM15.9012 43.7496V47.7942C15.9012 49.1121 17.1 52.5004 20.7746 54.1236C21.1958 54.3111 21.6656 54.5414 22.0922 54.753L22.3433 54.8736C22.8644 55.1307 23.3693 55.3718 23.8823 55.5887C24.9461 56.036 25.7777 56.2503 26.4013 56.2503C27.0223 56.2503 27.8539 56.036 28.9204 55.5887C29.4334 55.3744 29.9383 55.1307 30.4594 54.8736L30.7105 54.7503C31.1344 54.5414 31.6068 54.3084 32.028 54.1236C35.7027 52.5004 36.9014 49.1121 36.9014 47.7915V43.7496H15.9012Z" fill="white"/>
<path fill-rule="evenodd" clip-rule="evenodd" d="M22.4215 50.4541C22.921 50.6738 23.4583 50.9363 23.8606 51.1372L24.136 51.2711L24.1387 51.2738C24.649 51.5229 25.0648 51.7211 25.4617 51.8898C25.7663 52.0216 26.0804 52.1308 26.4013 52.2166C26.7222 52.13 27.0363 52.0199 27.3408 51.8871C27.7877 51.6953 28.2288 51.4907 28.6638 51.2738L28.9419 51.1372C29.3442 50.9389 29.8815 50.6738 30.381 50.4541C31.38 50.0122 32.0091 49.3559 32.4005 48.7292C32.5884 48.4298 32.7337 48.1063 32.8325 47.7676H19.9673C20.0664 48.1053 20.2117 48.428 20.3993 48.7265C20.7935 49.3533 21.4253 50.0122 22.4215 50.4541ZM15.9012 43.7498H36.9014V47.7944C36.9014 49.1122 35.7026 52.5005 32.028 54.1237C31.6068 54.3112 31.1343 54.5416 30.7104 54.7532L30.4593 54.8737C29.9355 55.1308 29.4333 55.3719 28.9203 55.5889C27.8538 56.0362 27.0249 56.2505 26.4013 56.2505C25.7776 56.2505 24.946 56.0362 23.8822 55.5889C23.3618 55.3666 22.8485 55.1281 22.3432 54.8737L22.0921 54.7505C21.6682 54.5416 21.1958 54.3085 20.7746 54.1237C17.0999 52.5005 15.9012 49.1122 15.9012 47.7917V43.7498ZM15.9012 39.5847V33.333H36.9014V39.5847H15.9012ZM13.7601 53.5398C10.5013 56.3522 8.7085 59.8933 8.7085 64.5619C8.7085 66.4235 9.10809 69.2172 10.153 71.4832C11.2221 73.8001 12.6558 75.0001 14.4702 75.0001C16.4141 75.0001 18.0611 73.5216 18.0611 71.6198C18.0611 70.7761 17.702 69.9752 17.1296 68.7859L17.0918 68.7056C16.5761 67.6342 15.8931 66.2119 15.8931 64.5619C15.8931 62.7539 16.7948 60.8388 17.8478 59.2852C18.1537 58.829 18.5115 58.4092 18.9143 58.0344C16.4303 56.9147 14.7645 55.2219 13.7601 53.5398Z" fill="white"/>
<path fill-rule="evenodd" clip-rule="evenodd" d="M16.6517 61.4144C16.1928 62.4376 15.8958 63.517 15.8958 64.5617C15.8958 66.2116 16.5761 67.6313 17.0945 68.708L17.1296 68.7884C17.702 69.975 18.0611 70.7758 18.0611 71.6196C18.0611 73.5213 16.4141 74.9999 14.4702 74.9999C12.6558 74.9999 11.2221 73.7999 10.153 71.483C9.10809 69.2169 8.7085 66.4206 8.7085 64.5617C8.7085 61.468 9.49688 58.8698 10.9765 56.652C11.758 55.4942 12.6944 54.4472 13.7601 53.5396C14.4272 54.6567 15.2936 55.6442 16.3169 56.4538C17.0567 57.0484 17.9207 57.5868 18.9143 58.0341C18.539 58.3823 18.1853 58.7895 17.8478 59.2877C17.4023 59.9439 16.9838 60.6644 16.6517 61.4144ZM33.8882 58.0341C36.3722 56.9145 38.038 55.2217 39.0424 53.5396C42.2986 56.352 44.0913 59.8903 44.0913 64.559C44.0913 66.4232 43.6917 69.2169 42.6496 71.4803C41.5804 73.7999 40.144 74.9972 38.3296 74.9972C36.3857 74.9972 34.7387 73.5213 34.7387 71.6196C34.7387 70.7732 35.1005 69.975 35.6702 68.7857L35.708 68.7054C36.2237 67.6313 36.9068 66.2116 36.9068 64.559C36.9068 62.7537 36.005 60.8358 34.9547 59.285C34.6475 58.8297 34.2898 58.4102 33.8882 58.0341Z" fill="white"/>
<path fill-rule="evenodd" clip-rule="evenodd" d="M36.4854 56.4539C35.6903 57.0873 34.8176 57.6183 33.8881 58.0342C34.2607 58.3824 34.6171 58.7869 34.9546 59.2851C35.3974 59.9413 35.8185 60.6618 36.1506 61.4118C36.6069 62.4377 36.9066 63.5172 36.9066 64.5591C36.9066 66.2117 36.2235 67.6314 35.7078 68.7055L35.6701 68.7858C35.1004 69.9751 34.7386 70.7733 34.7386 71.6197C34.7386 73.5214 36.3855 74.9973 38.3295 74.9973C40.1439 74.9973 41.5802 73.8 42.6494 71.4804C43.6916 69.217 44.0939 66.4207 44.0939 64.5591C44.0939 61.4654 43.3055 58.8699 41.8259 56.6494C41.0432 55.4926 40.1059 54.4464 39.0396 53.5396C38.3732 54.6566 37.5078 55.6441 36.4854 56.4539ZM52.6419 26.8133C52.9853 28.1922 52.7626 29.6498 52.0229 30.8659C51.2832 32.0819 50.087 32.9567 48.6973 33.298C40.2438 35.3739 33.3751 36.4292 26.3795 36.4051C19.3975 36.3783 12.5504 35.2748 4.16164 33.3141C3.47131 33.1527 2.81979 32.8579 2.24429 32.4467C1.66878 32.0354 1.18056 31.5157 0.807501 30.9173C0.054069 29.7087 -0.184555 28.2527 0.144121 26.8696C0.472798 25.4865 1.34185 24.2895 2.5601 23.5421C3.77835 22.7946 5.24601 22.5579 6.6402 22.8839C14.6536 24.7589 20.6043 25.6669 26.42 25.6884C32.2249 25.7098 38.154 24.85 46.1027 22.9C47.4925 22.5585 48.9622 22.7787 50.1885 23.512C51.4148 24.2454 52.2973 25.4319 52.6419 26.8107V26.8133Z" fill="white"/>
</svg>
