<svg width="88" height="86" viewBox="0 0 88 86" fill="none" xmlns="http://www.w3.org/2000/svg">
<path d="M85.4596 19.7809L45.3554 0.837906C44.9683 0.657299 44.5456 0.566102 44.1186 0.571075C43.6915 0.576048 43.2711 0.677064 42.8884 0.866634C42.5056 1.0562 42.1705 1.32947 41.9078 1.66618C41.645 2.00289 41.4615 2.39441 41.3706 2.81172C41.3613 2.84266 38.1531 17.7545 33.3887 32.62C31.7645 37.7154 29.9454 42.752 28.0458 47.1761L33.1969 49.6078C39.3844 35.2466 44.2849 15.4218 46.1288 7.49256L80.9861 23.9358C79.9156 28.6167 77.1715 40.0945 73.4992 51.5537C71.1263 58.9787 68.3481 66.3945 65.5019 71.7621C62.7484 77.2999 59.4443 80.0224 58.7049 79.6574C54.3118 79.7502 51.2242 75.753 49.1452 70.6298C48.2707 68.3758 47.5907 66.0512 47.1126 63.6812C46.7166 61.7693 46.596 60.5689 46.5867 60.5689C46.5374 60.0853 46.3632 59.6228 46.0811 59.2268C45.7991 58.8309 45.4189 58.5151 44.9779 58.3105L4.88292 39.3767C4.42611 39.1612 3.92035 39.0706 3.41713 39.1141C2.91391 39.1575 2.43119 39.3336 2.01811 39.6242C1.60743 39.9176 1.28213 40.3148 1.07555 40.7753C0.868966 41.2358 0.788531 41.7429 0.842486 42.2447C0.867236 42.387 1.44577 47.9681 3.77227 53.806C5.3872 57.8897 8.12517 62.5242 12.5771 64.8661L52.6597 83.8308L52.6783 83.7937C54.417 84.7064 56.3908 85.3004 58.7018 85.3282C64.2613 84.9662 67.2931 80.1678 70.5137 74.4227C79.795 56.8193 86.9725 23.0665 87.0282 22.9427C87.1655 22.3179 87.0859 21.6648 86.8025 21.0912C86.5191 20.5176 86.0487 20.0577 85.4689 19.7871L85.4596 19.7809Z" fill="white"/>
</svg>
