<svg width="93" height="93" viewBox="0 0 93 93" fill="none" xmlns="http://www.w3.org/2000/svg">
<path d="M32.9375 21.3125C38.409 23.1337 40.8735 29.6786 41.9546 36.9016L24.428 47.0192L28.303 53.7308L42.6792 45.4344C42.8575 50.6811 42.625 55.4435 42.625 58.125C42.625 69.75 38.75 81.375 23.25 81.375C7.75 81.375 7.75 81.375 7.75 65.875C7.75 36.8125 21.3125 17.4375 32.9375 21.3125ZM85.2539 65.875V67.5645C85.2345 81.375 84.6726 81.375 69.7539 81.375C54.2539 81.375 50.3789 69.75 50.3789 58.125C50.3789 55.4474 50.1464 50.685 50.3246 45.4382L64.7009 53.7308L68.5759 47.0192L51.0492 36.9055C52.1304 29.6786 54.5949 23.1376 60.0664 21.3125C71.6914 17.4375 85.2539 36.8125 85.2539 65.875ZM50.375 7.75V42.625H42.625V7.75H50.375Z" fill="white"/>
</svg>
