<svg width="87" height="87" viewBox="0 0 87 87" fill="none" xmlns="http://www.w3.org/2000/svg">
<path d="M32.625 27.1875C32.625 24.3033 33.7708 21.5372 35.8102 19.4977C37.8497 17.4583 40.6158 16.3125 43.5 16.3125C46.3842 16.3125 49.1503 17.4583 51.1898 19.4977C53.2292 21.5372 54.375 24.3033 54.375 27.1875C54.375 30.0717 53.2292 32.8378 51.1898 34.8773C49.1503 36.9167 46.3842 38.0625 43.5 38.0625C40.6158 38.0625 37.8497 36.9167 35.8102 34.8773C33.7708 32.8378 32.625 30.0717 32.625 27.1875ZM29.9062 43.5H57.0938C59.2569 43.5 61.3315 44.3593 62.8611 45.8889C64.3907 47.4185 65.25 49.4931 65.25 51.6562C65.25 57.7245 62.7542 62.5856 58.6598 65.8753C54.6306 69.1106 49.2257 70.6875 43.5 70.6875C37.7743 70.6875 32.3694 69.1106 28.3403 65.8753C24.2512 62.5856 21.75 57.7245 21.75 51.6562C21.75 49.4931 22.6093 47.4185 24.1389 45.8889C25.6685 44.3593 27.7431 43.5 29.9062 43.5ZM43.5 0C31.9631 0 20.8987 4.58302 12.7409 12.7409C4.58302 20.8987 0 31.9631 0 43.5C0 55.0369 4.58302 66.1013 12.7409 74.2591C20.8987 82.417 31.9631 87 43.5 87C55.0369 87 66.1013 82.417 74.2591 74.2591C82.417 66.1013 87 55.0369 87 43.5C87 31.9631 82.417 20.8987 74.2591 12.7409C66.1013 4.58302 55.0369 0 43.5 0ZM5.4375 43.5C5.4375 38.5016 6.42202 33.5521 8.33484 28.9341C10.2477 24.3162 13.0513 20.1202 16.5857 16.5857C20.1202 13.0513 24.3162 10.2477 28.9341 8.33483C33.5521 6.42201 38.5016 5.4375 43.5 5.4375C48.4984 5.4375 53.4479 6.42201 58.0659 8.33483C62.6838 10.2477 66.8798 13.0513 70.4143 16.5857C73.9487 20.1202 76.7523 24.3162 78.6652 28.9341C80.578 33.5521 81.5625 38.5016 81.5625 43.5C81.5625 53.5948 77.5524 63.2761 70.4143 70.4143C63.2761 77.5524 53.5948 81.5625 43.5 81.5625C33.4052 81.5625 23.7239 77.5524 16.5857 70.4143C9.44764 63.2761 5.4375 53.5948 5.4375 43.5Z" fill="white"/>
</svg>
