<svg width="90" height="90" viewBox="0 0 90 90" fill="none" xmlns="http://www.w3.org/2000/svg">
<path fill-rule="evenodd" clip-rule="evenodd" d="M36.7496 4.0944C36.7504 3.24127 36.4849 2.40925 35.9903 1.71477C35.4957 1.0203 34.7968 0.498117 33.9914 0.221311C33.1859 -0.0554949 32.3143 -0.0730754 31.4984 0.17103C30.6825 0.415135 29.9631 0.908711 29.4411 1.58268L0.860258 38.3994C0.302709 39.1175 0 40.0013 0 40.9111C0 41.8209 0.302709 42.7047 0.860258 43.4228L29.4411 80.2395C29.9631 80.9135 30.6825 81.4071 31.4984 81.6512C32.3143 81.8953 33.1859 81.8777 33.9914 81.6009C34.7968 81.3241 35.4957 80.8019 35.9903 80.1074C36.4849 79.4129 36.7504 78.5809 36.7496 77.7278V61.4057C58.7119 61.8639 69.2623 66.0405 74.562 70.5813C79.6004 74.897 80.5231 79.9736 81.4826 85.2916L81.7317 86.662C81.9149 87.6426 82.4495 88.5223 83.2348 89.1356C84.0201 89.7489 85.0021 90.0536 85.9959 89.9923C86.9898 89.9309 87.927 89.5079 88.6313 88.8026C89.3356 88.0974 89.7583 87.1586 89.8201 86.1629C90.5183 74.9215 89.4689 58.6322 81.5439 45.0059C73.8516 31.7806 59.998 21.611 36.7496 20.5474V4.0944Z" fill="#9DB5B2"/>
</svg>
