<?xml version="1.0" encoding="iso-8859-1"?>
<!-- Generator: Adobe Illustrator 19.0.0, SVG Export Plug-In . SVG Version: 6.00 Build 0)  -->
<svg version="1.1" id="Layer_1" xmlns="http://www.w3.org/2000/svg" xmlns:xlink="http://www.w3.org/1999/xlink" x="0px" y="0px"
	 viewBox="0 0 512 512" style="enable-background:new 0 0 512 512;" xml:space="preserve">
<g>
	<g>
		<path d="M413.071,0H98.93C66.397,0,39.928,26.469,39.928,59.002v393.995C39.928,485.531,66.397,512,98.93,512h221.222
			c0.053,0,0.105-0.007,0.157-0.007c3.276-0.041,6.558-1.345,8.997-3.784l138.972-138.972c2.223-2.223,3.651-5.255,3.77-8.719
			c0.005-0.145,0.021-0.29,0.021-0.435V59.002h0.002C472.072,26.469,445.605,0,413.071,0z M333.1,467.795v-61.661
			c0-18.255,14.853-33.108,33.108-33.108h61.661L333.1,467.795z M446.18,347.134h-79.97c-32.533,0-59.002,26.467-59.002,59.002
			v79.97H98.93c-18.255,0-33.108-14.853-33.108-33.108V59.002c0-18.255,14.853-33.108,33.108-33.108h314.141
			c18.255,0,33.108,14.853,33.108,33.108V347.134z"/>
	</g>
</g>
<g>
</g>
<g>
</g>
<g>
</g>
<g>
</g>
<g>
</g>
<g>
</g>
<g>
</g>
<g>
</g>
<g>
</g>
<g>
</g>
<g>
</g>
<g>
</g>
<g>
</g>
<g>
</g>
<g>
</g>
</svg>
