<svg width="77" height="52" viewBox="0 0 77 52" fill="none" xmlns="http://www.w3.org/2000/svg">
<path d="M77 43C77 47.6883 73.1634 51.5 68.4444 51.5H27.4446C25.172 51.5 22.9931 50.6102 21.3889 49.0164L1.25285 29.0016C0.450637 28.2047 0 27.1289 0 26C0 24.8711 0.450771 23.7953 1.25285 22.9984L21.3889 2.99023C22.9931 1.39516 25.172 0.5 27.4446 0.5H68.4444C73.1634 0.5 77 4.30508 77 9V43ZM36.2274 19.6383L42.5238 26L36.2274 32.2422C34.9842 33.4906 34.9842 35.5094 36.2274 36.6383C37.484 37.993 39.516 37.993 40.6523 36.6383L47.0556 30.5023L53.3385 36.6383C54.5951 37.993 56.6271 37.993 57.7634 36.6383C59.1269 35.5094 59.1269 33.4906 57.7634 32.2422L51.5873 26L57.7634 19.6383C59.1269 18.5094 59.1269 16.4906 57.7634 15.2422C56.6271 14.007 54.5951 14.007 53.3385 15.2422L47.0556 21.4977L40.6523 15.2422C39.516 14.007 37.484 14.007 36.2274 15.2422C34.9842 16.4906 34.9842 18.5094 36.2274 19.6383Z" fill="#9DB5B2"/>
</svg>
