<svg width="412" height="442" viewBox="0 0 412 442" fill="none" xmlns="http://www.w3.org/2000/svg">
<path d="M207.211 196.398H120.066V293.879H207.211V196.398Z" fill="#CCCCCC"/>
<path d="M164.788 412.942L163.291 433.417C163.223 434.344 163.354 435.274 163.675 436.146C163.997 437.018 164.5 437.811 165.153 438.473C165.806 439.134 166.592 439.648 167.46 439.98C168.327 440.312 169.256 440.455 170.183 440.399L180.696 439.762C181.183 439.732 181.658 439.595 182.086 439.362C182.514 439.128 182.886 438.802 183.175 438.409C183.463 438.015 183.661 437.563 183.755 437.084C183.849 436.604 183.837 436.111 183.718 435.637L177.883 412.287L164.788 412.942Z" fill="white"/>
<path d="M252.721 425.05C265.094 427.945 273.932 432.061 279.738 437.63C281.806 439.599 284.511 440.759 287.362 440.9C291.004 441.091 293.981 440.683 296.219 439.683H296.219C296.792 439.431 297.288 439.029 297.653 438.52C298.019 438.011 298.242 437.414 298.299 436.79C298.366 436.156 298.264 435.516 298 434.935C297.737 434.354 297.324 433.854 296.803 433.488L267.459 412.601L254.995 417.589L252.087 420.498C251.772 420.813 251.535 421.196 251.393 421.619C251.252 422.041 251.21 422.49 251.272 422.931C251.333 423.373 251.496 423.793 251.747 424.161C251.999 424.528 252.332 424.833 252.721 425.05H252.721Z" fill="white"/>
<path d="M214.645 90.7493L130.77 89.9723C130.98 77.751 133.823 65.75 140.036 55.0109C144.116 47.9578 144.028 40.282 143.045 33.8152C141.527 23.8357 145.056 13.6252 152.898 7.2725C158.89 2.40927 166.454 -0.0941359 174.163 0.233789L175.792 0.301667C181.097 0.522222 186.262 2.07251 190.812 4.81018C195.362 7.54785 199.151 11.3852 201.833 15.9698C204.558 20.8641 205.657 26.4985 204.971 32.0587C204.439 37.2904 205.711 42.5754 208.687 47.9108C213.821 59.6264 214.932 74.618 214.645 90.7493Z" fill="#2F2E41"/>
<path d="M270.761 413.69L254.3 417.986L174.14 243.285L179.15 413.69H162.688C145.098 333.519 113.34 240.993 127.618 211.781L212.788 206.769L270.761 413.69Z" fill="#9DB5B2"/>
<path d="M173.425 61.4231C185.679 61.4231 195.613 51.4857 195.613 39.2274C195.613 26.969 185.679 17.0317 173.425 17.0317C161.172 17.0317 151.238 26.969 151.238 39.2274C151.238 51.4857 161.172 61.4231 173.425 61.4231Z" fill="#FFB9B9"/>
<path d="M192.749 80.0388L156.248 77.8908C159.825 69.6773 161.254 61.7679 159.827 54.2632H187.024C186.962 60.0254 189.828 69.9928 192.749 80.0388Z" fill="#FFB9B9"/>
<path d="M215.652 213.213L135.492 218.941L143.723 76.817L157.679 72.8789L173.425 76.4588L189.17 68.5826L199.19 72.1632L215.652 213.213Z" fill="#9DB5B2"/>
<path d="M149.09 315.6L94.3379 303.07C110.619 249.06 139.949 125.503 130.482 81.4708L159.11 68.583L149.09 315.6Z" fill="white"/>
<path d="M122.609 159.514L101.854 146.626L119.554 94.7633C121.529 89.4117 125.31 84.9185 130.245 82.0604L136.208 78.6069L132.629 130.874L122.609 159.514Z" fill="white"/>
<path d="M263.247 303.786C245.966 313.788 202.769 319.363 183.802 312.378C182.407 263.579 179.67 125.548 188.454 67.151L219.946 80.0388L217.083 118.702C202.028 151.777 245.745 266.975 263.247 303.786Z" fill="white"/>
<path d="M260.743 153.07L241.418 146.626L215.652 117.27L219.947 80.0386L262.889 140.182L260.743 153.07Z" fill="white"/>
<path d="M200.179 180.939C200.496 182.327 201.349 183.533 202.553 184.292C203.756 185.052 205.212 185.303 206.6 184.99L223.004 181.274L220.633 170.799L204.229 174.515C202.841 174.83 201.634 175.683 200.875 176.888C200.115 178.092 199.865 179.549 200.179 180.939Z" fill="#FFB9B9"/>
<path d="M192.75 33.4994C180.426 28.43 168.255 28.0632 156.248 32.7834L151.238 14.8837H197.044L192.75 33.4994Z" fill="#2F2E41"/>
<path d="M214.936 168.822L224.24 186.005C239.889 181.639 253.452 167.873 266.467 151.638L262.888 140.182L240.701 145.91L214.936 168.822Z" fill="white"/>
<path d="M208.138 133.38H205.275C205.275 92.8735 196.938 64.645 188.813 64.645L188.098 61.7811C195.384 61.7811 200.029 73.5295 202.643 83.3856C206.186 96.7471 208.138 114.502 208.138 133.38Z" fill="#3F3D56"/>
<path d="M142.291 123.356H139.428C139.428 86.2586 147.822 63.2131 160.183 63.2131L159.468 66.077C150.918 66.077 142.291 83.7883 142.291 123.356Z" fill="#3F3D56"/>
<path d="M206.706 141.256C210.659 141.256 213.863 138.05 213.863 134.096C213.863 130.142 210.659 126.936 206.706 126.936C202.753 126.936 199.549 130.142 199.549 134.096C199.549 138.05 202.753 141.256 206.706 141.256Z" fill="#3F3D56"/>
<path d="M130.839 140.54H127.977C127.977 130.275 133.756 121.924 140.859 121.924V124.788C135.334 124.788 130.839 131.854 130.839 140.54Z" fill="#3F3D56"/>
<path d="M153.742 140.54H150.879C150.879 131.854 146.384 124.788 140.859 124.788V121.924C147.963 121.924 153.742 130.275 153.742 140.54Z" fill="#3F3D56"/>
<path d="M152.312 144.12C153.893 144.12 155.175 142.838 155.175 141.256C155.175 139.674 153.893 138.392 152.312 138.392C150.731 138.392 149.449 139.674 149.449 141.256C149.449 142.838 150.731 144.12 152.312 144.12Z" fill="#3F3D56"/>
<path d="M129.408 144.12C130.989 144.12 132.271 142.838 132.271 141.256C132.271 139.674 130.989 138.392 129.408 138.392C127.827 138.392 126.545 139.674 126.545 141.256C126.545 142.838 127.827 144.12 129.408 144.12Z" fill="#3F3D56"/>
<path d="M93.623 114.92L111.485 118.111L152.312 176.184L130.622 171.079L93.623 114.92Z" fill="#9DB5B2"/>
<path d="M90.4554 114.209C90.1832 114.213 89.9171 114.29 89.6849 114.433C89.4528 114.575 89.2631 114.777 89.1357 115.017C89.0083 115.258 88.9478 115.529 88.9607 115.801C88.9735 116.073 89.0593 116.336 89.2088 116.564L127.371 174.488C127.584 174.812 127.913 175.042 128.29 175.13L146.046 179.309C146.346 179.38 146.659 179.358 146.946 179.246C147.232 179.134 147.478 178.937 147.65 178.682C147.822 178.427 147.913 178.126 147.91 177.819C147.907 177.511 147.811 177.211 147.634 176.96L105.734 117.36C105.621 117.198 105.476 117.059 105.309 116.953C105.142 116.846 104.955 116.774 104.76 116.74L90.7416 114.235C90.6471 114.218 90.5513 114.209 90.4554 114.209Z" fill="#3F3D56"/>
<path d="M114.26 155.624L115.32 166.312L132.057 164.65C133.474 164.509 134.777 163.811 135.679 162.71C136.581 161.608 137.009 160.193 136.869 158.776C136.728 157.358 136.031 156.055 134.929 155.152C133.828 154.25 132.414 153.822 130.997 153.962L114.26 155.624Z" fill="#FFB9B9"/>
<path d="M99.707 154.386C99.7313 158.031 101.194 161.517 103.777 164.087C106.36 166.657 109.854 168.101 113.497 168.106H116.249L118.252 151.403L101.663 145.428L99.707 154.386Z" fill="white"/>
<path d="M411.605 440.224H0V442H411.605V440.224Z" fill="#3F3D56"/>
</svg>
