<svg width="110" height="110" viewBox="0 0 110 110" fill="none" xmlns="http://www.w3.org/2000/svg">
<path d="M98.7852 18.3333C98.3687 18.2904 97.9489 18.2904 97.5324 18.3333H11.9769C11.4285 18.3418 10.8838 18.424 10.3574 18.5778L54.5102 62.5472L98.7852 18.3333Z" fill="white"/>
<path d="M103.308 22.5806L58.8187 66.8861C57.6737 68.0243 56.1248 68.6632 54.5104 68.6632C52.8959 68.6632 51.347 68.0243 50.202 66.8861L6.11037 22.9167C5.97483 23.4148 5.90296 23.9282 5.89648 24.4444V85.5555C5.89648 87.1763 6.54033 88.7307 7.68639 89.8768C8.83244 91.0228 10.3868 91.6667 12.0076 91.6667H97.5631C99.1839 91.6667 100.738 91.0228 101.884 89.8768C103.03 88.7307 103.674 87.1763 103.674 85.5555V24.4444C103.65 23.8078 103.526 23.1789 103.308 22.5806ZM16.1937 85.5555H11.9465V81.1861L34.1604 59.1556L38.4687 63.4639L16.1937 85.5555ZM97.502 85.5555H93.2243L70.9493 63.4639L75.2576 59.1556L97.4715 81.1861L97.502 85.5555Z" fill="white"/>
</svg>
