<svg width="239" height="611" viewBox="0 0 239 611" fill="none" xmlns="http://www.w3.org/2000/svg">
<path d="M149.644 71.3471L86.4428 82.0422C84.8815 82.3084 83.2769 81.9864 81.9395 81.1385C80.6022 80.2905 79.6271 78.977 79.203 77.4521C74.6368 60.9835 65.0901 39.4996 74.359 28.7148C74.8312 24.1776 77.0364 19.9973 80.5154 17.044C83.9944 14.0907 88.4792 12.5919 93.0363 12.8598C104.327 -4.80083 123.133 -2.1492 135.843 8.88064C148.635 13.2913 153.458 21.1272 151.771 31.7608C157.297 36.5945 160.195 42.039 160.806 48.0149C161.095 51.3403 160.672 54.6893 159.563 57.8382C158.455 60.9872 156.688 63.8638 154.379 66.276L149.644 71.3471Z" fill="#2F2E41"/>
<path d="M139.818 121.068L90.8229 118.188C95.6245 107.175 97.5426 96.5704 95.6264 86.508H132.133C132.05 94.2339 135.897 107.598 139.818 121.068Z" fill="#9F616A"/>
<path d="M80.8413 573.473L78.8318 600.926C78.7408 602.169 78.9168 603.417 79.3479 604.586C79.779 605.755 80.4554 606.818 81.3315 607.705C82.2076 608.591 83.2633 609.28 84.4278 609.726C85.5923 610.171 86.8386 610.363 88.0831 610.287L102.194 609.433C102.848 609.393 103.485 609.21 104.06 608.897C104.635 608.583 105.134 608.147 105.521 607.619C105.909 607.091 106.175 606.485 106.301 605.842C106.427 605.2 106.41 604.538 106.251 603.903L98.4186 572.595L80.8413 573.473Z" fill="white"/>
<path d="M126.525 572.595L118.692 603.903C118.534 604.538 118.517 605.2 118.643 605.842C118.769 606.485 119.035 607.091 119.423 607.619C119.81 608.147 120.309 608.583 120.884 608.897C121.459 609.21 122.096 609.393 122.75 609.433L136.861 610.287C138.105 610.363 139.352 610.171 140.516 609.726C141.681 609.28 142.736 608.591 143.612 607.705C144.489 606.818 145.165 605.755 145.596 604.586C146.027 603.417 146.203 602.169 146.112 600.926L144.103 573.473L126.525 572.595Z" fill="white"/>
<path d="M145.013 577.285L125.971 575.375L107.012 372.87L99.8472 574.722L81.1385 574.052L49.6055 294.498H170.078L145.013 577.285Z" fill="#9DB5B2"/>
<path d="M114.843 98.1619C134.937 98.1619 151.227 81.8837 151.227 61.8036C151.227 41.7236 134.937 25.4454 114.843 25.4454C94.748 25.4454 78.4581 41.7236 78.4581 61.8036C78.4581 81.8837 94.748 98.1619 114.843 98.1619Z" fill="#9F616A"/>
<path d="M155.85 44.4348C141.082 41.8649 126.564 41.5121 112.45 44.7718C103.459 47.7128 92.6624 47.4418 80.6552 45.0186V20.5002L145.478 21.6677L155.85 44.4348Z" fill="#2F2E41"/>
<path d="M139.057 90.9765C123.14 97.5926 106.45 97.3239 89.0773 90.9765C94.1323 82.3543 86.5762 75.6015 82.697 66.8977L147.564 64.9714C142.603 72.5326 135.284 81.466 139.057 90.9765Z" fill="white"/>
<path d="M78.2308 61.9325L77.5929 62.6974L83.9729 68.0101L84.6108 67.2453L78.2308 61.9325Z" fill="white"/>
<path d="M148.739 72.6746L137.571 90.2064L138.411 90.7409L149.58 73.209L148.739 72.6746Z" fill="white"/>
<path d="M79.3938 72.6738L78.5535 73.2082L89.7191 90.7416L90.5594 90.2073L79.3938 72.6738Z" fill="white"/>
<path d="M45.6702 227.628L17.81 210.348L41.5698 140.811C44.2198 133.635 49.2955 127.611 55.9195 123.779L63.9233 119.148L64.6193 189.298L45.6702 227.628Z" fill="#9DB5B2"/>
<path d="M166.094 261.401L161.972 226.122C161.752 207.5 164.922 189.497 172.482 172.908L176.325 121.068L134.054 103.788C133.924 104.649 133.814 105.509 133.691 106.37L113.879 116.268L94.5586 111.88L94.6656 105.708L56.2378 122.988C68.9459 182.026 62.0146 243.335 40.1613 315.751L90.7863 329.583L91.2073 305.292L136.325 302.072C136.79 309.953 137.163 317.694 137.38 325.263C162.839 334.629 163.713 334.474 186.909 321.064C177.672 301.656 170.358 281.461 166.094 261.401Z" fill="#9DB5B2"/>
<path d="M231.084 218.988L205.146 210.348L163.655 162.082L176.324 121.069L233.966 201.709L231.084 218.988Z" fill="#9DB5B2"/>
<path d="M149.793 256.355C150.217 258.216 151.363 259.833 152.978 260.851C154.594 261.869 156.548 262.206 158.412 261.787L180.43 256.804L177.248 242.76L155.229 247.742C153.365 248.164 151.745 249.308 150.726 250.923C149.706 252.538 149.371 254.492 149.793 256.355V256.355Z" fill="#E6E6E6"/>
<path d="M169.6 240.108L182.089 263.148C203.095 257.294 221.301 238.837 238.77 217.068L233.966 201.708L204.185 209.388L169.6 240.108Z" fill="#9DB5B2"/>
<path d="M6.76172 167.837L30.7374 172.115L85.5391 249.98L56.4259 243.134L6.76172 167.837Z" fill="#E6E6E6"/>
<path d="M2.50928 166.884C2.14393 166.889 1.78676 166.993 1.47514 167.183C1.16352 167.374 0.908884 167.645 0.737869 167.968C0.566854 168.29 0.485743 168.653 0.503012 169.018C0.520281 169.382 0.635306 169.736 0.836045 170.041L52.0611 247.706C52.3469 248.14 52.7884 248.448 53.2948 248.567L77.1283 254.17C77.5301 254.265 77.9512 254.235 78.3357 254.085C78.7202 253.935 79.05 253.671 79.2812 253.329C79.5124 252.988 79.6342 252.584 79.6304 252.171C79.6265 251.759 79.4973 251.357 79.2598 251.02L23.0179 171.109C22.8653 170.891 22.6714 170.705 22.4471 170.563C22.2227 170.42 21.9724 170.323 21.7105 170.277L2.89346 166.918C2.76666 166.896 2.63811 166.884 2.50928 166.884Z" fill="#3F3D56"/>
<path d="M34.4636 222.413L35.8873 236.743L58.3529 234.515C60.2545 234.326 62.0033 233.39 63.2145 231.913C64.4257 230.436 65.0001 228.539 64.8114 226.639C64.6226 224.738 63.6862 222.991 62.2081 221.781C60.73 220.57 58.8313 219.996 56.9297 220.185L34.4636 222.413Z" fill="#E6E6E6"/>
<path d="M14.9284 220.753C14.961 225.64 16.9249 230.315 20.392 233.76C23.8591 237.206 28.5484 239.143 33.4382 239.148H37.1323L39.8216 216.753L17.5544 208.742L14.9284 220.753Z" fill="#9DB5B2"/>
<path d="M145.789 67.4488L145.085 66.7453L146.149 65.6825L152.503 58.2719L153.259 58.9187L146.878 66.3572L145.789 67.4488Z" fill="white"/>
</svg>
