<svg width="29" height="26" viewBox="0 0 29 26" fill="none" xmlns="http://www.w3.org/2000/svg">
<path fill-rule="evenodd" clip-rule="evenodd" d="M4.852 13.4956C3.97041 14.818 3.49998 16.3718 3.5 17.9611V19.0938C3.5 19.5247 3.3288 19.9381 3.02405 20.2428C2.7193 20.5475 2.30598 20.7188 1.875 20.7188C1.44402 20.7188 1.0307 20.5475 0.725951 20.2428C0.421205 19.9381 0.25 19.5247 0.25 19.0938V17.9611C0.25 15.73 0.90975 13.5493 2.148 11.6919L4.852 13.4956Z" fill="#3B413C"/>
<path fill-rule="evenodd" clip-rule="evenodd" d="M8.05531 11.7812C6.76831 11.7812 5.56581 12.4248 4.85244 13.4956L2.14844 11.6919C2.79683 10.7196 3.67521 9.92239 4.70564 9.37103C5.73606 8.81968 6.88665 8.53122 8.05531 8.53125H8.37544C8.80641 8.53125 9.21974 8.70246 9.52449 9.0072C9.82923 9.31195 10.0004 9.72527 10.0004 10.1562C10.0004 10.5872 9.82923 11.0006 9.52449 11.3053C9.21974 11.61 8.80641 11.7812 8.37544 11.7812H8.05531ZM11.6482 13.4956C12.5306 14.8168 13.0002 16.3719 13.0002 17.9611V19.0938C13.0002 19.5247 13.1714 19.9381 13.4761 20.2428C13.7809 20.5475 14.1942 20.7188 14.6252 20.7188C15.0562 20.7188 15.4695 20.5475 15.7742 20.2428C16.079 19.9381 16.2502 19.5247 16.2502 19.0938V17.9611C16.2502 15.7298 15.5898 13.5484 14.3522 11.6919L11.6482 13.4956Z" fill="#3B413C"/>
<path fill-rule="evenodd" clip-rule="evenodd" d="M8.44512 11.7812C9.73212 11.7812 10.9346 12.4247 11.648 13.4956L14.352 11.6919C13.7036 10.7196 12.8252 9.92239 11.7948 9.37103C10.7644 8.81968 9.61378 8.53122 8.44512 8.53125H8.125C7.69402 8.53125 7.2807 8.70246 6.97595 9.0072C6.67121 9.31195 6.5 9.72527 6.5 10.1562C6.5 10.5872 6.67121 11.0006 6.97595 11.3053C7.2807 11.61 7.69402 11.7812 8.125 11.7812H8.44512Z" fill="#3B413C"/>
<path fill-rule="evenodd" clip-rule="evenodd" d="M8.125 7.3125C8.66372 7.3125 9.18038 7.09849 9.56131 6.71756C9.94224 6.33663 10.1563 5.81997 10.1563 5.28125C10.1563 4.74253 9.94224 4.22587 9.56131 3.84494C9.18038 3.46401 8.66372 3.25 8.125 3.25C7.58628 3.25 7.06962 3.46401 6.68869 3.84494C6.30776 4.22587 6.09375 4.74253 6.09375 5.28125C6.09375 5.81997 6.30776 6.33663 6.68869 6.71756C7.06962 7.09849 7.58628 7.3125 8.125 7.3125ZM8.125 10.5625C9.52568 10.5625 10.869 10.0061 11.8594 9.01566C12.8498 8.02523 13.4063 6.68192 13.4063 5.28125C13.4063 3.88058 12.8498 2.53727 11.8594 1.54684C10.869 0.556416 9.52568 0 8.125 0C6.72433 0 5.38102 0.556416 4.39059 1.54684C3.40017 2.53727 2.84375 3.88058 2.84375 5.28125C2.84375 6.68192 3.40017 8.02523 4.39059 9.01566C5.38102 10.0061 6.72433 10.5625 8.125 10.5625ZM16.6335 18.7769C15.7519 20.0993 15.2815 21.653 15.2815 23.2424V24.375C15.2815 24.806 15.1103 25.2193 14.8055 25.524C14.5008 25.8288 14.0875 26 13.6565 26C13.2255 26 12.8122 25.8288 12.5075 25.524C12.2027 25.2193 12.0315 24.806 12.0315 24.375V23.2424C12.0315 21.0112 12.6912 18.8305 13.9295 16.9731L16.6335 18.7769ZM19.8364 17.0625C18.5494 17.0625 17.3469 17.706 16.6335 18.7769L13.9295 16.9731C14.5779 16.0008 15.4563 15.2036 16.4867 14.6523C17.5171 14.1009 18.6677 13.8125 19.8364 13.8125H20.1565C20.5875 13.8125 21.0008 13.9837 21.3055 14.2885C21.6103 14.5932 21.7815 15.0065 21.7815 15.4375C21.7815 15.8685 21.6103 16.2818 21.3055 16.5865C21.0008 16.8913 20.5875 17.0625 20.1565 17.0625H19.8364ZM23.4293 18.7769C24.3116 20.098 24.7813 21.6531 24.7813 23.2424V24.375C24.7813 24.806 24.9525 25.2193 25.2572 25.524C25.5619 25.8288 25.9753 26 26.4063 26C26.8372 26 27.2506 25.8288 27.5553 25.524C27.86 25.2193 28.0313 24.806 28.0313 24.375V23.2424C28.0313 21.0111 27.3709 18.8297 26.1333 16.9731L23.4293 18.7769Z" fill="#3B413C"/>
<path fill-rule="evenodd" clip-rule="evenodd" d="M20.2264 17.0625C21.5134 17.0625 22.7159 17.706 23.4293 18.7769L26.1333 16.9731C25.4849 16.0008 24.6065 15.2036 23.5761 14.6523C22.5456 14.1009 21.395 13.8125 20.2264 13.8125H19.9062C19.4753 13.8125 19.0619 13.9837 18.7572 14.2885C18.4525 14.5932 18.2812 15.0065 18.2812 15.4375C18.2812 15.8685 18.4525 16.2818 18.7572 16.5865C19.0619 16.8913 19.4753 17.0625 19.9062 17.0625H20.2264Z" fill="#3B413C"/>
<path fill-rule="evenodd" clip-rule="evenodd" d="M19.9062 12.5938C20.445 12.5938 20.9616 12.3797 21.3426 11.9988C21.7235 11.6179 21.9375 11.1012 21.9375 10.5625C21.9375 10.0238 21.7235 9.50712 21.3426 9.12619C20.9616 8.74526 20.445 8.53125 19.9062 8.53125C19.3675 8.53125 18.8509 8.74526 18.4699 9.12619C18.089 9.50712 17.875 10.0238 17.875 10.5625C17.875 11.1012 18.089 11.6179 18.4699 11.9988C18.8509 12.3797 19.3675 12.5938 19.9062 12.5938ZM19.9062 15.8438C21.3069 15.8438 22.6502 15.2873 23.6407 14.2969C24.6311 13.3065 25.1875 11.9632 25.1875 10.5625C25.1875 9.16183 24.6311 7.81852 23.6407 6.82809C22.6502 5.83767 21.3069 5.28125 19.9062 5.28125C18.5056 5.28125 17.1623 5.83767 16.1718 6.82809C15.1814 7.81852 14.625 9.16183 14.625 10.5625C14.625 11.9632 15.1814 13.3065 16.1718 14.2969C17.1623 15.2873 18.5056 15.8438 19.9062 15.8438Z" fill="#3B413C"/>
</svg>
