<svg width="116" height="116" viewBox="0 0 116 116" fill="none" xmlns="http://www.w3.org/2000/svg">
<path d="M58.0009 6.44446C47.8042 6.44446 37.8364 9.46814 29.3582 15.1331C20.8799 20.7981 14.2719 28.85 10.3698 38.2706C6.46765 47.6911 5.44668 58.0572 7.43596 68.058C9.42524 78.0588 14.3354 87.2451 21.5456 94.4553C28.7558 101.665 37.9421 106.576 47.9429 108.565C57.9437 110.554 68.3098 109.533 77.7303 105.631C87.1509 101.729 95.2028 95.121 100.868 86.6428C106.533 78.1645 109.556 68.1967 109.556 58C109.556 44.3266 104.125 31.2133 94.4562 21.5447C84.7876 11.8762 71.6743 6.44446 58.0009 6.44446ZM91.6731 40.6967L49.3331 83.0045L24.3287 58C23.4741 57.1454 22.994 55.9864 22.994 54.7778C22.994 53.5692 23.4741 52.4102 24.3287 51.5556C25.1833 50.701 26.3423 50.2209 27.5509 50.2209C28.7595 50.2209 29.9185 50.701 30.7731 51.5556L49.3976 70.18L85.2931 34.3167C85.7163 33.8935 86.2186 33.5579 86.7715 33.3289C87.3243 33.0999 87.9169 32.982 88.5153 32.982C89.1138 32.982 89.7063 33.0999 90.2592 33.3289C90.8121 33.5579 91.3144 33.8935 91.7376 34.3167C92.1607 34.7398 92.4964 35.2422 92.7254 35.7951C92.9544 36.3479 93.0723 36.9405 93.0723 37.5389C93.0723 38.1373 92.9544 38.7299 92.7254 39.2828C92.4964 39.8356 92.1607 40.338 91.7376 40.7611L91.6731 40.6967Z" fill="#019874"/>
</svg>
