<svg width="33" height="33" viewBox="0 0 33 33" fill="none" xmlns="http://www.w3.org/2000/svg">
<path d="M13.75 11V19.25L20.2125 23.2375L21.3125 21.5875L15.8125 18.2875V11H13.75Z" fill="#3B413C"/>
<path d="M24.64 16.5C24.8473 17.8667 24.7559 19.262 24.3721 20.59C23.9884 21.9179 23.3214 23.1469 22.4171 24.1924C21.5127 25.2378 20.3926 26.0749 19.1338 26.6459C17.8749 27.2169 16.5073 27.5083 15.125 27.5C9.7625 27.5 5.5 23.2375 5.5 17.875C5.5 12.5125 9.7625 8.25 15.125 8.25C16.0875 8.25 17.0087 8.3875 17.875 8.64875V5.81625C16.995 5.61 16.0737 5.5 15.125 5.5C8.25 5.5 2.75 11 2.75 17.875C2.75 24.75 8.25 30.25 15.125 30.25C16.8681 30.2572 18.5928 29.8946 20.1854 29.1861C21.778 28.4776 23.2022 27.4394 24.364 26.1399C25.5257 24.8404 26.3986 23.3092 26.9249 21.6475C27.4513 19.9858 27.6192 18.2314 27.4175 16.5H24.64Z" fill="#3B413C"/>
<path d="M27.5 6.875V2.75H24.75V6.875H20.625V9.625H24.75V13.75H27.5V9.625H31.625V6.875H27.5Z" fill="#3B413C"/>
</svg>
